<?xml version="1.0" encoding="UTF-8"?>
<svg width="22px" height="16px" viewBox="0 0 22 16" version="1.1" xmlns="http://www.w3.org/2000/svg" xmlns:xlink="http://www.w3.org/1999/xlink">
    <!-- Generator: Sketch 53.2 (72643) - https://sketchapp.com -->
    <title>026-air-conditioner</title>
    <desc>Created with Sketch.</desc>
    <g id="Page-1" stroke="none" stroke-width="1" fill="none" fill-rule="evenodd">
        <g id="026-air-conditioner" transform="translate(0.250000, 0.750000)" fill="#6D2158">
            <path d="M20.2722881,0.0229237288 L1.06694915,0.0229237288 C0.462330508,0.0229237288 0,0.485254237 0,1.08987288 L0,8.2029661 C0,8.80758475 0.462330508,9.26991525 1.06694915,9.26991525 L20.2722881,9.26991525 C20.8769068,9.26991525 21.3392373,8.80758475 21.3392373,8.2029661 L21.3392373,1.08987288 C21.3392797,0.485254237 20.8769068,0.0229237288 20.2722881,0.0229237288 Z M20.6279661,8.2029661 C20.6279661,8.41635593 20.4857203,8.55860169 20.2723305,8.55860169 L1.06694915,8.55860169 C0.853559322,8.55860169 0.711313559,8.41635593 0.711313559,8.2029661 L0.711313559,1.08987288 C0.711313559,0.876483051 0.889152542,0.734237288 1.06694915,0.734237288 L20.2722881,0.734237288 C20.485678,0.734237288 20.6279237,0.876483051 20.6279237,1.08987288 L20.6279237,8.2029661 L20.6279661,8.2029661 Z" id="Shape" fill-rule="nonzero"></path>
            <path d="M9.24699153,3.22381356 L12.0922458,3.22381356 C12.3056356,3.22381356 12.4478814,3.0815678 12.4478814,2.86817797 C12.4478814,2.65478814 12.3056356,2.51254237 12.0922458,2.51254237 L9.24699153,2.51254237 C9.03360169,2.51254237 8.89135593,2.65478814 8.89135593,2.86817797 C8.89135593,3.0815678 9.03360169,3.22381356 9.24699153,3.22381356 Z" id="Path"></path>
            <path d="M19.5609746,7.13601695 L1.77826271,7.13601695 C1.56487288,7.13601695 1.42262712,7.27826271 1.42262712,7.49165254 C1.42262712,7.70504237 1.56487288,7.84728814 1.77826271,7.84728814 L19.5609746,7.84728814 C19.7743644,7.84728814 19.9166102,7.70504237 19.9166102,7.49165254 C19.9166102,7.27826271 19.7743644,7.13601695 19.5609746,7.13601695 Z" id="Path"></path>
            <path d="M19.5609746,5.71338983 L1.77826271,5.71338983 C1.56487288,5.71338983 1.42262712,5.85563559 1.42262712,6.06902542 C1.42262712,6.28241525 1.56487288,6.42466102 1.77826271,6.42466102 L19.5609746,6.42466102 C19.7743644,6.42466102 19.9166102,6.28241525 19.9166102,6.06902542 C19.9166102,5.85563559 19.7743644,5.71338983 19.5609746,5.71338983 Z" id="Path"></path>
            <path d="M10.8474576,11.7950847 C10.491822,11.6172458 10.3139831,11.4038559 10.3139831,11.2260169 C10.3139831,11.048178 10.5273729,10.8347881 10.8119068,10.6213983 C10.9897458,10.5502542 11.0252966,10.3368644 10.9541525,10.1590678 C10.8830085,9.98122881 10.6696186,9.91012712 10.491822,10.016822 C9.92275424,10.3369068 9.60266949,10.7636864 9.60266949,11.2260593 C9.60266949,11.6883898 9.92275424,12.1152119 10.491822,12.4708475 C10.8474576,12.6486864 11.0252966,12.8620763 11.0252966,13.0399153 C11.0252966,13.2177542 10.8119068,13.4311441 10.491822,13.6089407 C10.3139831,13.6800847 10.2428814,13.8934746 10.3495763,14.0712712 C10.4207203,14.1779661 10.5274153,14.2491102 10.669661,14.2491102 C10.7408051,14.2491102 10.7763559,14.2491102 10.8475,14.2135593 C11.4165678,13.8934746 11.7366525,13.4666949 11.7366525,13.004322 C11.7366525,12.5419492 11.4165254,12.0796186 10.8474576,11.7950847 Z" id="Path"></path>
            <path d="M6.93525424,12.5063983 C6.57961864,12.3285593 6.40177966,12.1151695 6.40177966,11.9373305 C6.40177966,11.7594915 6.61516949,11.5461017 6.89970339,11.3327119 C7.07754237,11.2615678 7.14864407,11.048178 7.04194915,10.8703814 C6.97080508,10.6925424 6.75741525,10.6214407 6.57961864,10.7281356 C6.01055085,11.0482203 5.6904661,11.475 5.6904661,11.9373729 C5.6904661,12.3997034 6.01055085,12.8265254 6.57961864,13.182161 C6.93525424,13.36 7.11309322,13.5733898 7.11309322,13.7512288 C7.11309322,13.9290678 6.89970339,14.1424576 6.57961864,14.3202966 C6.40177966,14.3914407 6.33067797,14.6048305 6.43737288,14.7826271 C6.50851695,14.889322 6.61521186,14.9604661 6.75745763,14.9604661 C6.82860169,14.9604661 6.86415254,14.9604661 6.93529661,14.9249153 C7.50436441,14.6048305 7.82444915,14.1780508 7.82444915,13.715678 C7.82444915,13.2533051 7.50432203,12.7909322 6.93525424,12.5063983 Z" id="Path"></path>
            <path d="M14.759661,12.5063983 C14.4040254,12.3285593 14.2261864,12.1151695 14.2261864,11.9373305 C14.2261864,11.7594915 14.4395763,11.5461017 14.7241102,11.3327119 C14.9019492,11.2615678 14.9375,11.048178 14.8663559,10.8703814 C14.7952119,10.6925424 14.581822,10.6214407 14.4040254,10.7281356 C13.8349576,11.0482203 13.5148729,11.475 13.5148729,11.9373729 C13.5148729,12.3997034 13.8349576,12.8265254 14.4040254,13.182161 C14.759661,13.36 14.9375,13.5733898 14.9375,13.7512288 C14.9375,13.9290678 14.7241102,14.1424576 14.4040254,14.3202966 C14.2261864,14.3914407 14.1550847,14.6048305 14.2617797,14.7826271 C14.3329237,14.889322 14.4396186,14.9604661 14.5818644,14.9604661 C14.6530085,14.9604661 14.6885593,14.9604661 14.7597034,14.9249153 C15.3287712,14.6048305 15.6488559,14.1780508 15.6488559,13.715678 C15.6488559,13.2533051 15.3286864,12.7909322 14.759661,12.5063983 Z" id="Path"></path>
        </g>
    </g>
</svg>