<?xml version="1.0" encoding="UTF-8"?>
<svg width="16px" height="16px" viewBox="0 0 16 16" version="1.1" xmlns="http://www.w3.org/2000/svg" xmlns:xlink="http://www.w3.org/1999/xlink">
    <!-- Generator: Sketch 53.2 (72643) - https://sketchapp.com -->
    <title>021-bathtub</title>
    <desc>Created with Sketch.</desc>
    <g id="Page-1" stroke="none" stroke-width="1" fill="none" fill-rule="evenodd">
        <g id="021-bathtub" transform="translate(0.283186, 0.500000)" fill="#6D2158">
            <path d="M3.50302651,2.74428274 C2.95026769,2.74428274 2.50216179,3.19107069 2.50216179,3.74220374 C2.50216179,4.2933368 2.95026769,4.74012474 3.50302651,4.74012474 C4.05578533,4.74012474 4.50389123,4.2933368 4.50389123,3.74220374 C4.50389123,3.19107069 4.05578533,2.74428274 3.50302651,2.74428274 Z M3.50302651,4.24116424 C3.22663146,4.24116424 3.00259415,4.01778586 3.00259415,3.74220374 C3.00259415,3.46662162 3.22663146,3.24324324 3.50302651,3.24324324 C3.77942156,3.24324324 4.00345887,3.46662162 4.00345887,3.74220374 C4.00345887,4.01778586 3.77939028,4.24116424 3.50302651,4.24116424 Z" id="Shape" fill-rule="nonzero"></path>
            <path d="M6.50562066,3.49272349 C6.09104373,3.49272349 5.75497213,3.82780665 5.75497213,4.24116424 C5.75497213,4.65452183 6.09104373,4.98960499 6.50562066,4.98960499 C6.9201976,4.98960499 7.2562692,4.65452183 7.2562692,4.24116424 C7.2562692,3.82780665 6.9201976,3.49272349 6.50562066,3.49272349 Z M6.50562066,4.49064449 C6.36743878,4.49064449 6.25540449,4.37893971 6.25540449,4.24116424 C6.25540449,4.10338877 6.36743878,3.99168399 6.50562066,3.99168399 C6.64380255,3.99168399 6.75583684,4.10338877 6.75583684,4.24116424 C6.75583684,4.37893971 6.64380255,4.49064449 6.50562066,4.49064449 Z" id="Shape" fill-rule="nonzero"></path>
            <path d="M5.50432359,1.995842 C5.22819859,1.995842 5.00432359,2.219717 5.00432359,2.495842 C5.00432359,2.771967 5.22819859,2.995842 5.50432359,2.995842 C5.78044859,2.995842 6.00432359,2.771967 6.00432359,2.495842 C6.00432359,2.219717 5.78044859,1.995842 5.50432359,1.995842 Z M5.50432359,2.66250866 C5.41228192,2.66250866 5.33765692,2.58788366 5.33765692,2.495842 C5.33765692,2.40380033 5.41228192,2.32917533 5.50432359,2.32917533 C5.59636526,2.32917533 5.67099026,2.40380033 5.67099026,2.495842 C5.67099026,2.58788366 5.59636526,2.66250866 5.50432359,2.66250866 Z" id="Shape" fill-rule="nonzero"></path>
            <path d="M15.0053392,8.75893971 C14.9725609,8.55424116 14.8395084,8.37935551 14.6506577,8.29272349 C14.7205619,8.11443867 14.7585009,7.92527027 14.7627546,7.73388773 C14.7620978,7.23848233 14.4674995,6.7904158 14.012106,6.59226611 L14.012106,1.24740125 C14.012106,0.558492723 13.4519659,0 12.7610252,0 C12.0700844,0 11.5099443,0.558492723 11.5099443,1.24740125 L11.5099443,1.25313929 C10.8330782,1.28089397 10.2898276,1.82005198 10.2588634,2.49480249 C10.2588634,2.63257796 10.3708977,2.74428274 10.5090795,2.74428274 L12.7610252,2.74428274 C12.899207,2.74428274 13.0112413,2.63257796 13.0112413,2.49480249 C12.9912866,1.9141684 12.5794308,1.42075884 12.0103766,1.29580042 L12.0103766,1.24740125 C12.0103766,0.834043659 12.3464482,0.498960499 12.7610252,0.498960499 C13.1756021,0.498960499 13.5116737,0.834043659 13.5116737,1.24740125 L13.5116737,6.48648649 C13.3996081,6.48658004 13.2881368,6.50220374 13.1803875,6.53288981 C12.8619248,5.40658004 11.6880356,4.75094595 10.5584034,5.06844075 C9.95394366,5.2383368 9.45579453,5.66613306 9.19769654,6.23700624 C9.10277078,6.24053015 9.00828289,6.25178794 8.91520247,6.27068607 C8.66217136,5.63407484 7.9394532,5.3225052 7.30096407,5.5747921 C7.14132615,5.63784823 6.99654481,5.73321206 6.87569039,5.85480249 C6.04556694,5.03030146 4.70228138,5.03285863 3.87531691,5.86054054 C3.816391,5.91951143 3.76099939,5.98191268 3.70945486,6.04740125 C2.88705683,5.82477131 2.02340441,6.22506237 1.66393759,6.9954262 C0.983130646,6.90212058 0.355338252,7.37678794 0.261788678,8.0556237 C0.253656652,8.11434511 0.249809578,8.17356549 0.250216179,8.23284823 L0.250216179,8.36058212 C-0.025084172,8.56524948 -0.0818206907,8.95369023 0.123481685,9.22818087 C0.220628116,9.35806653 0.364909021,9.44488565 0.525453977,9.47002079 L0.684091035,10.9748857 C0.842634261,12.1917879 1.61896123,13.2413202 2.73811565,13.7518503 L2.63802918,14.147027 C2.54923371,14.5015385 2.76548305,14.8606965 3.12104024,14.9492308 C3.39311906,15.0169958 3.67855316,14.9068815 3.83406252,14.6741788 L4.16584917,14.1779626 C4.36789874,14.2050312 4.57151215,14.2191892 4.77537578,14.2203742 L10.2378452,14.2203742 C10.4417088,14.2191892 10.6453222,14.2050312 10.8473718,14.1779626 L11.1794087,14.6744283 C11.382678,14.9784823 11.7946903,15.0606237 12.09961,14.8579522 C12.3334057,14.7025572 12.4436885,14.417183 12.3749416,14.1455301 L12.2748551,13.7508524 C13.3941346,13.2407588 14.1708057,12.191632 14.3298806,10.9748857 L14.4885177,9.47002079 C14.8281548,9.41594595 15.0595423,9.09757796 15.0053392,8.75893971 Z M12.0662999,1.85204782 C12.2349769,1.93989605 12.3726271,2.07714137 12.4607345,2.24532225 L10.8093077,2.24532225 C11.0475135,1.79064449 11.6102809,1.61454262 12.0662999,1.85204782 Z M1.50129708,7.48440748 C1.58217946,7.48577963 1.66227991,7.50028067 1.73850201,7.52731809 C1.86942763,7.57141372 2.01139404,7.50130977 2.05561975,7.37076923 C2.05627656,7.36883576 2.0569021,7.3668711 2.05752764,7.36490644 C2.26104723,6.70743243 2.96062039,6.33891892 3.62006513,6.5418711 C3.65171748,6.55160083 3.68296322,6.56260915 3.71370853,6.57480249 C3.82433536,6.61846154 3.95053815,6.57841996 4.01546925,6.47900208 C4.50123268,5.7281289 5.50553787,5.512079 6.25862602,5.99641372 C6.42467573,6.10322245 6.56980111,6.2393763 6.68677718,6.39817048 C6.76916086,6.50878378 6.92589002,6.53189189 7.03682961,6.44975052 C7.06497893,6.42891892 7.08840542,6.40241164 7.10563906,6.37197505 C7.30402922,6.01262994 7.75701433,5.88168399 8.11741946,6.07949064 C8.32031351,6.19085239 8.4597152,6.38993763 8.49458908,6.61821206 C8.51613894,6.75430353 8.64424963,6.84723493 8.78074255,6.82574844 C8.79681894,6.82322245 8.81258256,6.81913721 8.82787703,6.81355509 C8.9655272,6.76256757 9.11115302,6.73630977 9.25799864,6.73596674 C9.28302026,6.73596674 9.30804187,6.73796258 9.34782625,6.74095634 C9.45967288,6.74675676 9.56229279,6.67933472 9.60104502,6.57455301 C9.89698821,5.72996881 10.82357,5.28452183 11.6706143,5.57956341 C12.2550255,5.78313929 12.672605,6.30015593 12.7475135,6.91284823 C12.7642467,7.04962578 12.889042,7.14695426 13.0261917,7.13027027 C13.0613784,7.12599792 13.0952514,7.11430353 13.1255901,7.09596674 C13.2415653,7.02427235 13.375212,6.98600832 13.5116737,6.98544699 C13.9262506,6.98544699 14.2623222,7.32053015 14.2623222,7.73388773 C14.2592571,7.90839917 14.2139367,8.0795738 14.1302081,8.23284823 L0.750648538,8.23284823 C0.750648538,7.81949064 1.08672014,7.48440748 1.50129708,7.48440748 Z M3.41770279,14.3972557 C3.38748919,14.4426299 3.33647637,14.4699168 3.28183541,14.4698545 C3.19131971,14.4695114 3.1182253,14.3961019 3.11853808,14.3058524 C3.11856935,14.2930353 3.1201332,14.2802495 3.12319835,14.2677755 L3.20301731,13.9506861 C3.34163708,14.0005821 3.48325943,14.0449896 3.62838482,14.0811642 L3.41770279,14.3972557 Z M11.8602469,14.4072349 L11.8594963,14.4072349 C11.8290324,14.4471518 11.7814601,14.4703846 11.7311354,14.4698545 C11.6766195,14.4699792 11.6256692,14.4427859 11.5955182,14.3975052 L11.3848362,14.0811642 C11.530462,14.0449896 11.6720843,14.0000832 11.8102037,13.9506861 L11.8897724,14.2672765 C11.9025647,14.3159563 11.8916178,14.367817 11.8602469,14.4072349 Z M13.8322006,10.9227443 C13.6635549,12.51842 12.11847,13.7214137 10.2378452,13.7214137 L4.77512557,13.7214137 C2.89450076,13.7214137 1.34941586,12.51842 1.18077015,10.9227443 L1.0283885,9.48024948 L13.9845823,9.48024948 L13.8322006,10.9227443 Z M14.3874303,8.98128898 L0.625540449,8.98128898 C0.556449506,8.98128898 0.500432359,8.92543659 0.500432359,8.85654886 C0.500432359,8.78766112 0.556449506,8.73180873 0.625540449,8.73180873 L14.3874303,8.73180873 C14.4565213,8.73180873 14.5125384,8.78766112 14.5125384,8.85654886 C14.5125384,8.92543659 14.4565213,8.98128898 14.3874303,8.98128898 Z" id="Shape" fill-rule="nonzero"></path>
            <path d="M10.5090795,3.24324324 C10.3708977,3.24324324 10.2588634,3.35494802 10.2588634,3.49272349 L10.2588634,4.24116424 C10.2588634,4.37893971 10.3708977,4.49064449 10.5090795,4.49064449 C10.6472614,4.49064449 10.7592957,4.37893971 10.7592957,4.24116424 L10.7592957,3.49272349 C10.7592957,3.35494802 10.6472614,3.24324324 10.5090795,3.24324324 Z" id="Path"></path>
            <path d="M11.2597281,2.99376299 C11.1215462,2.99376299 11.0095119,3.10546778 11.0095119,3.24324324 L11.0095119,3.74220374 C11.0095119,3.87997921 11.1215462,3.99168399 11.2597281,3.99168399 C11.39791,3.99168399 11.5099443,3.87997921 11.5099443,3.74220374 L11.5099443,3.24324324 C11.5099443,3.10546778 11.39791,2.99376299 11.2597281,2.99376299 Z" id="Path"></path>
            <path d="M12.0103766,3.24324324 C11.8721947,3.24324324 11.7601604,3.35494802 11.7601604,3.49272349 L11.7601604,4.24116424 C11.7601604,4.37893971 11.8721947,4.49064449 12.0103766,4.49064449 C12.1485585,4.49064449 12.2605928,4.37893971 12.2605928,4.24116424 L12.2605928,3.49272349 C12.2605928,3.35494802 12.1485585,3.24324324 12.0103766,3.24324324 Z" id="Path"></path>
            <path d="M12.7610252,2.99376299 C12.6228433,2.99376299 12.510809,3.10546778 12.510809,3.24324324 L12.510809,3.74220374 C12.510809,3.87997921 12.6228433,3.99168399 12.7610252,3.99168399 C12.899207,3.99168399 13.0112413,3.87997921 13.0112413,3.74220374 L13.0112413,3.24324324 C13.0112413,3.10546778 12.899207,2.99376299 12.7610252,2.99376299 Z" id="Path"></path>
        </g>
    </g>
</svg>