<?xml version="1.0" encoding="UTF-8"?>
<svg width="11px" height="16px" viewBox="0 0 11 16" version="1.1" xmlns="http://www.w3.org/2000/svg" xmlns:xlink="http://www.w3.org/1999/xlink">
    <!-- Generator: Sketch 53.2 (72643) - https://sketchapp.com -->
    <title>009-beer</title>
    <desc>Created with Sketch.</desc>
    <g id="Page-1" stroke="none" stroke-width="1" fill="none" fill-rule="evenodd">
        <g id="009-beer" transform="translate(0.180723, 0.500000)" fill="#6D2158">
            <path d="M9.96420771,6.12649123 C9.8248282,6.12649123 9.71189178,6.23991228 9.71189178,6.37982456 L9.71189178,13.1607602 C9.04746565,13.2689181 8.521458,13.7969591 8.41373447,14.4641228 L8.18369713,14.4641228 C8.04431762,14.4641228 7.9313812,14.5775439 7.9313812,14.7174561 C7.9313812,14.8573684 8.04431762,14.9707895 8.18369713,14.9707895 L8.64581038,14.9707895 C8.78518988,14.9707895 8.89812631,14.8573684 8.89812631,14.7174561 C8.89812631,14.1272515 9.37637333,13.6471053 9.96417859,13.6471053 C10.1035581,13.6471053 10.2164945,13.5336842 10.2164945,13.3937719 L10.2164945,6.37982456 C10.2165236,6.23988304 10.1035872,6.12649123 9.96420771,6.12649123 Z" id="Path"></path>
            <path d="M7.34576012,8.82538012 C7.20638061,8.82538012 7.09344419,8.93880117 7.09344419,9.07871345 L7.09344419,10.790848 C7.09344419,11.1814327 6.77697175,11.4991813 6.38795556,11.4991813 C5.99893938,11.4991813 5.68243782,11.1814327 5.68243782,10.790848 L5.68243782,5.9825731 C5.68243782,5.84266082 5.56947228,5.72923977 5.43012189,5.72923977 C5.29074238,5.72923977 5.17780596,5.84266082 5.17780596,5.9825731 L5.17780596,10.7908772 C5.17780596,11.4608187 5.72070457,12.0058772 6.38795556,12.0058772 C7.05520656,12.0058772 7.59807605,11.460848 7.59807605,10.7908772 L7.59807605,9.07874269 C7.59807605,8.93880117 7.48513962,8.82538012 7.34576012,8.82538012 Z" id="Path"></path>
            <path d="M7.34570187,5.72923977 C7.20632237,5.72923977 7.09338594,5.84266082 7.09338594,5.9825731 L7.09338594,8.1447076 C7.09338594,8.28461988 7.20635149,8.39804094 7.34570187,8.39804094 C7.48508138,8.39804094 7.5980178,8.28461988 7.5980178,8.1447076 L7.5980178,5.9825731 C7.5980178,5.84266082 7.48508138,5.72923977 7.34570187,5.72923977 Z" id="Path"></path>
            <path d="M9.25280725,11.4990351 C9.06415275,11.4990351 8.88700157,11.4254094 8.75397074,11.2914912 C8.6206778,11.1576901 8.54726039,10.9797953 8.54726039,10.7906433 L8.54726039,5.98248538 C8.54728951,5.8425731 8.43435308,5.72915205 8.29497358,5.72915205 C8.15559407,5.72915205 8.04265765,5.8425731 8.04265765,5.98248538 L8.04265765,10.7906433 C8.04265765,11.1151462 8.16855351,11.4202632 8.39696,11.6495906 C8.62519176,11.8792105 8.9291416,12.0056725 9.25280725,12.0056725 C9.39218676,12.0056725 9.50512318,11.8922515 9.50512318,11.7523392 C9.50512318,11.6124561 9.39218676,11.4990351 9.25280725,11.4990351 Z" id="Path"></path>
            <path d="M4.48070457,9.87152047 C4.34132507,9.87152047 4.22838864,9.98494152 4.22838864,10.1248538 L4.22838864,10.7906433 C4.22838864,11.1812573 3.91206181,11.4990351 3.52322037,11.4990351 C3.38384086,11.4990351 3.27090444,11.6124561 3.27090444,11.7523684 C3.27090444,11.8922807 3.38384086,12.0057018 3.52322037,12.0057018 C4.19032575,12.0057018 4.7330205,11.460614 4.7330205,10.7906433 L4.7330205,10.1248538 C4.7330205,9.98494152 4.62008408,9.87152047 4.48070457,9.87152047 Z" id="Path"></path>
            <path d="M4.48070457,5.72918129 C4.34132507,5.72918129 4.22838864,5.84260234 4.22838864,5.98251462 L4.22838864,9.19081871 C4.22838864,9.33073099 4.34135419,9.44415205 4.48070457,9.44415205 C4.62008408,9.44415205 4.7330205,9.33073099 4.7330205,9.19081871 L4.7330205,5.98251462 C4.7330205,5.84263158 4.62008408,5.72918129 4.48070457,5.72918129 Z" id="Path"></path>
            <path d="M9.6411245,1.54146199 C9.62167078,0.957368421 9.14234623,0.488187135 8.55596797,0.488187135 C8.43286785,0.488187135 8.3114277,0.509298246 8.19639447,0.55005848 C7.91696564,0.206169591 7.49396369,0 7.0454797,0 C6.81599568,0 6.59154983,0.0529239766 6.38807205,0.154152047 C6.18453604,0.0529239766 5.95994457,0 5.73022758,0 C5.28174358,0 4.85874163,0.206169591 4.57931281,0.550087719 C4.46427957,0.509269006 4.34286855,0.488216374 4.21973931,0.488216374 C3.63321543,0.488216374 3.15380352,0.95751462 3.13449541,1.54175439 C2.974905,1.58874269 2.82326499,1.66266082 2.68752578,1.7604386 C2.57429813,1.8419883 2.548321,2.00026316 2.62951408,2.11394737 C2.71073628,2.22763158 2.86843373,2.25368421 2.98160314,2.1721345 C3.11472134,2.07625731 3.27081707,2.01523392 3.43305761,1.99564327 C3.50280561,1.98722222 3.56588459,1.94997076 3.60715094,1.89292398 C3.64838817,1.83584795 3.66408511,1.76409357 3.65045586,1.69488304 C3.64256371,1.65482456 3.63854482,1.61561404 3.63854482,1.57839181 C3.63854482,1.25666667 3.89927711,0.994883041 4.21971019,0.994883041 C4.32894807,0.994883041 4.43594354,1.02616959 4.52901853,1.08535088 C4.58703023,1.12219298 4.65750628,1.13374269 4.72410907,1.11730994 C4.79074098,1.10090643 4.84790812,1.05789474 4.8823016,0.998245614 C5.05721036,0.69505848 5.38209916,0.506695906 5.73019845,0.506695906 C5.91620282,0.506695906 6.09696517,0.559152047 6.25294441,0.658421053 C6.33538975,0.710906433 6.440667,0.710906433 6.52314145,0.658421053 C6.67912069,0.559152047 6.85973743,0.506695906 7.0454797,0.506695906 C7.39357899,0.506695906 7.71846779,0.69502924 7.89334742,0.998245614 C7.92774091,1.05789474 7.98484981,1.10087719 8.05151084,1.11730994 C8.11820099,1.13377193 8.18864793,1.12222222 8.24660138,1.08535088 C8.33979286,1.02616959 8.44673008,0.994883041 8.55596797,0.994883041 C8.87640104,0.994883041 9.13710421,1.25666667 9.13710421,1.57839181 C9.13710421,1.6172807 9.13323094,1.65581871 9.12560088,1.6930117 C9.11133094,1.7624269 9.12670753,1.83464912 9.16794476,1.89216374 C9.20918199,1.94967836 9.27249395,1.98722222 9.34259142,1.99567251 C9.83327368,2.05491228 10.2033021,2.47421053 10.2033021,2.97099415 C10.2033021,3.23394737 10.1016069,3.47871345 9.92081543,3.66175439 L2.85506658,3.66175439 C2.67442072,3.47868421 2.57281289,3.23388889 2.57281289,2.97099415 C2.57281289,2.89008772 2.58256887,2.80973684 2.60184786,2.73210526 C2.63557153,2.59631579 2.5532718,2.45883041 2.41802767,2.42502924 C2.28301651,2.39122807 2.1458503,2.47383041 2.11218488,2.6095614 C2.08297518,2.72725146 2.06815191,2.84883041 2.06815191,2.97099415 C2.06815191,3.39923977 2.24594378,3.79567251 2.55932925,4.07815789 L2.55932925,4.97192982 C2.28837502,4.72616959 1.92958782,4.57625731 1.53652364,4.57625731 C1.47053242,4.57625731 1.40564785,4.58096491 1.34184081,4.58915205 C1.33394866,4.58979532 1.326173,4.59081871 1.3184847,4.5921345 C0.579185044,4.69874269 0.00908616924,5.33856725 0.00908616924,6.1098538 L0.00908616924,8.32880117 C0.00908616924,9.18649123 0.512902605,9.96704678 1.29265319,10.3173684 L2.55370864,10.8839474 C2.50230771,11.3631579 2.09712863,11.7375439 1.60641725,11.7375439 C1.46703774,11.7375439 1.35410132,11.8509649 1.35410132,11.9908772 C1.35410132,12.1307895 1.46703774,12.2442105 1.60641725,12.2442105 C1.97053383,12.2442105 2.303606,12.109152 2.55932925,11.8867251 L2.55932925,13.3937719 C2.55932925,13.5336842 2.67226567,13.6471053 2.81164518,13.6471053 C3.39947956,13.6471053 3.87769746,14.1272515 3.87769746,14.7174561 C3.87769746,14.8573684 3.99063388,14.9707895 4.13001339,14.9707895 L7.3426149,14.9707895 C7.48199441,14.9707895 7.59493083,14.8573684 7.59493083,14.7174561 C7.59493083,14.5775439 7.48199441,14.4641228 7.3426149,14.4641228 L4.36206017,14.4641228 C4.25433664,13.7970175 3.72835811,13.2689181 3.06393199,13.1607602 L3.06393199,4.16836257 L9.71183353,4.16836257 L9.71183353,5.53535088 C9.71183353,5.67526316 9.82476996,5.78868421 9.96414946,5.78868421 C10.103529,5.78868421 10.2164654,5.67526316 10.2164654,5.53535088 L10.2164654,4.07809942 C10.5300838,3.79567251 10.707934,3.39923977 10.707934,2.97093567 C10.7079631,2.30076023 10.2635271,1.72356725 9.6411245,1.54146199 Z M1.10956105,9.6098538 C0.738222128,9.29692982 0.51371803,8.83011696 0.51371803,8.32874269 L0.51371803,6.10979532 C0.51371803,5.69652047 0.758258296,5.33976608 1.10956105,5.17701754 L1.10956105,9.6098538 Z M2.55935837,10.3313743 L1.61422203,9.90672515 L1.61422203,5.08616959 C2.14200615,5.12616959 2.55935837,5.56982456 2.55935837,6.10982456 L2.55935837,10.3313743 Z" id="Shape" fill-rule="nonzero"></path>
            <path d="M8.9556138,12.3052047 L3.82018084,12.3052047 C3.68080133,12.3052047 3.56786491,12.4186257 3.56786491,12.558538 C3.56786491,12.6984503 3.68083046,12.8118713 3.82018084,12.8118713 L8.95558468,12.8118713 C9.09496418,12.8118713 9.20790061,12.6984503 9.20790061,12.558538 C9.20792973,12.4186257 9.09499331,12.3052047 8.9556138,12.3052047 Z" id="Path"></path>
        </g>
    </g>
</svg>