<?xml version="1.0" encoding="UTF-8"?>
<svg width="14px" height="16px" viewBox="0 0 14 16" version="1.1" xmlns="http://www.w3.org/2000/svg" xmlns:xlink="http://www.w3.org/1999/xlink">
    <!-- Generator: Sketch 53.2 (72643) - https://sketchapp.com -->
    <title>008-bowling</title>
    <desc>Created with Sketch.</desc>
    <g id="Page-1" stroke="none" stroke-width="1" fill="none" fill-rule="evenodd">
        <g id="008-bowling" transform="translate(0.500000, 0.500000)" fill="#6D2158">
            <path d="M4.28824561,6.4745614 C3.97552632,5.82315789 3.7054386,5.26052632 3.7054386,4.77309942 C3.7054386,4.09491228 3.81321637,3.47660819 3.91739766,2.87868421 C4.0045614,2.37850877 4.08692982,1.90602339 4.08692982,1.47064327 C4.08692982,0.865292398 3.79701754,0.511929825 3.55383041,0.322134503 C3.29538012,0.120409357 2.95380117,0 2.6401462,0 C2.32646199,0 1.9848538,0.120409357 1.72643275,0.322163743 C1.48324561,0.511959064 1.19333333,0.865321637 1.19333333,1.47067251 C1.19333333,1.90605263 1.27570175,2.37847953 1.3628655,2.87871345 C1.46704678,3.47666667 1.57482456,4.09494152 1.57482456,4.77312865 C1.57482456,5.26061404 1.3047076,5.82327485 0.991959064,6.47476608 C0.914649123,6.63578947 0.834707602,6.8022807 0.755204678,6.97517544 C0.696461988,7.10292398 0.752426901,7.25412281 0.880175439,7.31283626 C1.00804094,7.37163743 1.15918129,7.31564327 1.21789474,7.1878655 C1.29564327,7.01880117 1.37459064,6.85423977 1.45102339,6.69508772 C1.47836257,6.63812865 1.50523392,6.58201754 1.53184211,6.52625731 L3.74847953,6.52625731 C3.77505848,6.58192982 3.80190058,6.6380117 3.82921053,6.69488304 C4.27017544,7.61345029 4.77,8.65461988 4.77,9.97108187 C4.77,11.9424269 3.9002924,13.9291813 3.64921053,14.4614912 L1.63093567,14.4614912 C1.37973684,13.9295322 0.510233918,11.9454386 0.510233918,9.97108187 C0.510233918,9.30459064 0.634473684,8.65961988 0.90128655,7.94131579 C0.950204678,7.80950292 0.883070175,7.66295322 0.75122807,7.61400585 C0.619269006,7.56494152 0.472865497,7.63222222 0.423859649,7.76400585 C0.139327485,8.53020468 0.00102339181,9.25216374 0.00102339181,9.97108187 C0.00102339181,12.3894152 1.19453216,14.7340643 1.24535088,14.8326608 C1.28900585,14.9174269 1.37631579,14.9706433 1.47166667,14.9706433 L3.80839181,14.9706433 C3.90374269,14.9706433 3.99105263,14.9173684 4.0347076,14.8326608 C4.08552632,14.7340351 5.27903509,12.3894152 5.27903509,9.97108187 C5.27915205,8.53877193 4.72973684,7.39423977 4.28824561,6.4745614 Z M1.76552632,6.0171345 C1.82453216,5.88020468 1.87774854,5.74616959 1.92318713,5.61426901 L3.3571345,5.61426901 C3.40254386,5.74614035 3.45578947,5.88017544 3.51479532,6.0171345 L1.76552632,6.0171345 Z M3.22429825,5.10505848 L2.05593567,5.10505848 C2.07400585,4.99377193 2.08400585,4.88330409 2.08400585,4.77309942 C2.08400585,4.54225146 2.07201754,4.31695906 2.0524269,4.09777778 L3.22777778,4.09777778 C3.20821637,4.31692982 3.19619883,4.5422807 3.19619883,4.77309942 C3.19622807,4.88333333 3.20619883,4.99377193 3.22429825,5.10505848 Z M1.99356725,3.58856725 C1.97444444,3.45116959 1.95350877,3.31690058 1.93187135,3.18570175 L3.34836257,3.18570175 C3.32672515,3.31687135 3.30576023,3.45116959 3.28663743,3.58856725 L1.99356725,3.58856725 Z M3.43564327,2.67652047 L1.84453216,2.67652047 C1.76909357,2.24128655 1.70248538,1.8304386 1.70248538,1.47067251 C1.70248538,1.1495614 1.81593567,0.898187135 2.03967836,0.723567251 C2.24236842,0.565380117 2.48982456,0.509210526 2.64011696,0.509210526 C2.88336257,0.509210526 3.5777193,0.685847953 3.5777193,1.47067251 C3.5777193,1.8304386 3.51111111,2.24131579 3.43564327,2.67652047 Z" id="Shape" fill-rule="nonzero"></path>
            <path d="M7.85915205,5.19394737 C6.76248538,5.19394737 5.72634503,5.54868421 4.86263158,6.21979532 C4.75157895,6.30608187 4.73152047,6.46602339 4.81780702,6.57704678 C4.90403509,6.68809942 5.06403509,6.70815789 5.17502924,6.62190058 C5.94859649,6.02081871 6.87669591,5.70315789 7.85915205,5.70315789 C10.2738596,5.70315789 12.2383626,7.66766082 12.2383626,10.0823684 C12.2383626,11.5394737 11.5164912,12.897076 10.3074854,13.7138596 C10.1909357,13.7925731 10.1603216,13.950848 10.2390058,14.0673392 C10.2881871,14.1402047 10.3684503,14.1794737 10.4502339,14.1794737 C10.4992398,14.1794737 10.5488304,14.1653216 10.5925146,14.1358187 C11.9419591,13.2242105 12.7475439,11.7088889 12.7475439,10.0823684 C12.7475731,7.38687135 10.5546784,5.19394737 7.85915205,5.19394737 Z" id="Path"></path>
            <path d="M10.0062281,14.197807 C9.9480117,14.0697661 9.7971345,14.0131287 9.66909357,14.0713158 C9.09929825,14.3302339 8.49035088,14.4615497 7.85915205,14.4615497 C6.8930117,14.4615497 5.97704678,14.1532164 5.21023392,13.5698538 C5.09830409,13.4846784 4.93859649,13.5064035 4.85345029,13.6183333 C4.76830409,13.7302632 4.79,13.8899708 4.90192982,13.975117 C5.75812865,14.6264912 6.78070175,14.9707895 7.85915205,14.9707895 C8.56347953,14.9707895 9.24327485,14.8241228 9.87973684,14.5349415 C10.0077485,14.4767544 10.064386,14.3258187 10.0062281,14.197807 Z" id="Path"></path>
            <path d="M10.3964912,7.72997076 C10.2969591,7.81114035 10.2741813,7.96125731 10.3462865,8.06789474 C10.4035673,8.15722222 10.5178655,8.19906433 10.6198246,8.17353801 C10.7230994,8.14769006 10.800614,8.05754386 10.811462,7.95163743 C10.8341228,7.72938596 10.5673684,7.59061404 10.3964912,7.72997076 Z" id="Path"></path>
            <path d="M9.26991228,8.21154971 C9.17716374,8.1621345 9.06038012,8.17593567 8.98146199,8.24532164 C8.88760234,8.32783626 8.86798246,8.4730117 8.93809942,8.57707602 C9.06467836,8.76692982 9.36760234,8.69871345 9.40169591,8.47330409 C9.41754386,8.36836257 9.36353801,8.26140351 9.26991228,8.21154971 Z" id="Path"></path>
            <path d="M10.5785965,8.96918129 C10.5351754,8.88017544 10.4406725,8.82383041 10.3417836,8.82663743 C10.2267836,8.82994152 10.1269883,8.91345029 10.1018129,9.02523392 C10.0748246,9.14517544 10.1397661,9.26850877 10.2525731,9.31614035 C10.4647953,9.40122807 10.6797953,9.17663743 10.5785965,8.96918129 Z" id="Path"></path>
        </g>
    </g>
</svg>