<?xml version="1.0" encoding="UTF-8"?>
<svg width="16px" height="16px" viewBox="0 0 16 16" version="1.1" xmlns="http://www.w3.org/2000/svg" xmlns:xlink="http://www.w3.org/1999/xlink">
    <!-- Generator: Sketch 53.2 (72643) - https://sketchapp.com -->
    <title>Group 27</title>
    <desc>Created with Sketch.</desc>
    <g id="Page-1" stroke="none" stroke-width="1" fill="none" fill-rule="evenodd">
        <g id="Group-27" transform="translate(0.211268, 0.500000)" fill="#6D2158">
            <path d="M14.533273,5.14763672 L9.8057873,0.397910156 C9.55058484,0.141533203 9.21026629,0.000322265625 8.84746589,0.000322265625 C8.48469465,0.000322265625 8.14434694,0.141474609 7.88914448,0.397851562 L0.395721281,7.92665039 C0.140547975,8.18305664 7.10542736e-15,8.52495117 7.10542736e-15,8.88946289 C7.10542736e-15,9.25397461 0.140547975,9.59592773 0.395721281,9.85227539 L0.978674626,10.4379785 C0.978732945,10.4380078 0.978762104,10.4380664 0.978820423,10.438125 C0.978878741,10.4381836 0.97893706,10.4382422 0.978995379,10.4383008 L4.89684309,14.3746289 L4.3543629,14.3746289 C4.18261444,14.3746289 4.04334947,14.5145215 4.04334947,14.6871094 C4.04334947,14.859668 4.18261444,14.9995898 4.3543629,14.9995898 L6.08027454,14.9995898 C6.08068277,14.9995898 6.08106184,14.9996191 6.08147007,14.9996191 C6.0818783,14.9996191 6.08225737,14.9995898 6.0826656,14.9995898 L10.574748,14.9996484 C10.7464965,14.9996484 10.8857614,14.8597266 10.8857614,14.687168 C10.8857614,14.5145801 10.7464965,14.3746875 10.574748,14.3746875 L7.26621369,14.3746289 L14.5333022,7.07326172 C15.0616692,6.54234375 15.0616692,5.67849609 14.533273,5.14763672 Z M14.0934336,6.63134766 L6.59995213,14.1601758 C6.46252421,14.2982227 6.27882042,14.3743359 6.08260728,14.3746289 L6.08024538,14.3746289 C5.88409056,14.3743066 5.70044509,14.2982227 5.56307548,14.1601758 L1.6386086,10.217168 L8.8349857,2.98678711 C8.95643431,2.86476562 8.95643431,2.66689453 8.8349857,2.54487305 C8.71350792,2.42285156 8.51662412,2.42285156 8.39511719,2.54490234 L1.1987401,9.7752832 L0.83553147,9.41036133 C0.697870268,9.27205078 0.622056008,9.08707031 0.622056008,8.88949219 C0.622056008,8.69191406 0.697870268,8.5069043 0.835560629,8.36856445 L8.32898382,0.839794922 C8.46667419,0.701484375 8.65081536,0.6253125 8.84746589,0.6253125 C9.04411642,0.6253125 9.22825759,0.701484375 9.36594795,0.839824219 L11.0485288,2.5303125 L3.85206426,9.76078125 C3.73061565,9.88277344 3.73061565,10.0806445 3.85206426,10.2027246 C3.91280315,10.2637207 3.99240812,10.2942187 4.07198393,10.2942187 C4.15155975,10.2942187 4.23116472,10.2636914 4.29190361,10.2026953 L11.4883682,2.97225586 L14.0934336,5.58952148 C14.3792826,5.87674805 14.3792534,6.34412109 14.0934336,6.63134766 Z" id="Shape" fill-rule="nonzero"></path>
            <path d="M7.66310134,9.0253125 C7.54165273,8.90329102 7.34476893,8.90332031 7.22323283,9.0253125 L4.77577355,11.4842871 C4.65432493,11.6063086 4.65432493,11.8041504 4.77577355,11.9262305 C4.83651243,11.9872559 4.91611741,12.0177539 4.99569322,12.0177539 C5.07526904,12.0177539 5.15487401,11.9872266 5.2156129,11.9262305 L7.66307218,9.46725586 C7.78454996,9.34517578 7.78454996,9.14733398 7.66310134,9.0253125 Z" id="Path"></path>
            <path d="M11.8699763,4.79862305 C11.8116577,4.7400293 11.7325484,4.70709961 11.6500567,4.70709961 C11.5675649,4.70709961 11.4884848,4.7400293 11.430137,4.79862305 L10.1105315,6.12442383 C10.0522128,6.18304688 10.0194377,6.2625 10.0194377,6.34538086 C10.0194377,6.42826172 10.0522128,6.50774414 10.1105315,6.56633789 L10.9902685,7.45013672 C11.0510074,7.51116211 11.1306123,7.54166016 11.2101882,7.54166016 C11.2898223,7.54166016 11.3693689,7.51113281 11.4301078,7.45013672 L12.749655,6.12439453 C12.8711037,6.00237305 12.8711037,5.80450195 12.749655,5.68248047 L11.8699763,4.79862305 Z M11.210159,6.78729492 L10.7702905,6.34538086 L11.6500275,5.46152344 L12.0898669,5.9034668 L11.210159,6.78729492 Z" id="Shape" fill-rule="nonzero"></path>
            <path d="M6.65926221,11.3595996 L5.65545224,12.3681445 C5.53400363,12.490166 5.53400363,12.6880371 5.65545224,12.8100879 C5.71619113,12.871084 5.7957961,12.9016113 5.87537192,12.9016113 C5.95500605,12.9016113 6.03455271,12.871084 6.09529159,12.8100879 L7.09910156,11.801543 C7.22055018,11.6795215 7.22055018,11.4816504 7.09910156,11.3595996 C6.97765295,11.2375488 6.78079831,11.2375488 6.65926221,11.3595996 Z" id="Path"></path>
            <path d="M7.58300066,10.4315918 L7.45105469,10.5641309 C7.32957691,10.6861523 7.32957691,10.8839941 7.45102553,11.0060742 C7.51173526,11.0670996 7.59136939,11.097627 7.6709452,11.097627 C7.75052102,11.097627 7.83012599,11.0670996 7.89083572,11.0060742 L8.02278169,10.8735352 C8.14425946,10.7515137 8.14425946,10.5536719 8.02281085,10.4316211 C7.90142055,10.3095996 7.70444927,10.3095703 7.58300066,10.4315918 Z" id="Path"></path>
            <path d="M9.34087093,2.34919922 C9.42050506,2.34919922 9.50011004,2.31867187 9.56081976,2.25761719 L9.69276574,2.12499023 C9.81418519,2.00293945 9.81415603,1.80506836 9.69267826,1.68307617 C9.57122964,1.56108398 9.37425836,1.56111328 9.25283891,1.68316406 L9.12089294,1.81579102 C8.99947348,1.9378418 8.99950264,2.13571289 9.12098041,2.25770508 C9.1817193,2.31873047 9.26126596,2.34919922 9.34087093,2.34919922 Z" id="Path"></path>
            <path d="M3.12631767,10.4899512 L2.9943717,10.6225195 C2.87292309,10.7445117 2.87292309,10.9423828 2.9943717,11.0644629 C3.05511059,11.125459 3.13471556,11.155957 3.21429137,11.155957 C3.29386719,11.155957 3.37347216,11.125459 3.43421105,11.0644629 L3.56615702,10.9318945 C3.68760563,10.8098438 3.68760563,10.6119727 3.56615702,10.4899512 C3.44467925,10.3679004 3.24779544,10.3679004 3.12631767,10.4899512 Z" id="Path"></path>
        </g>
    </g>
</svg>