<?xml version="1.0" encoding="UTF-8"?>
<svg width="15px" height="16px" viewBox="0 0 15 16" version="1.1" xmlns="http://www.w3.org/2000/svg" xmlns:xlink="http://www.w3.org/1999/xlink">
    <!-- Generator: Sketch 53.2 (72643) - https://sketchapp.com -->
    <title>002-cat</title>
    <desc>Created with Sketch.</desc>
    <g id="Page-1" stroke="none" stroke-width="1" fill="none" fill-rule="evenodd">
        <g id="002-cat" transform="translate(0.750000, 0.500000)" fill="#6D2158">
            <path d="M7.78759002,5.54878236 C7.90889739,5.54878236 8.00731658,5.45047761 8.00731658,5.3290558 L8.00731658,4.90001678 C8.00731658,4.77859497 7.90889739,4.68029021 7.78759002,4.68029021 C7.66628265,4.68029021 7.56786346,4.77859497 7.56786346,4.90001678 L7.56786346,5.3290558 C7.56786346,5.45047761 7.66628265,5.54878236 7.78759002,5.54878236 Z" id="Path"></path>
            <path d="M7.49530793,6.1795807 L8.07987214,6.1795807 C8.20117951,6.1795807 8.2995987,6.08127595 8.2995987,5.95985414 C8.2995987,5.83854674 8.20117951,5.74012758 8.07987214,5.74012758 L7.49530793,5.74012758 C7.37400056,5.74012758 7.27558137,5.83854674 7.27558137,5.95985414 C7.27558137,6.08127595 7.37400056,6.1795807 7.49530793,6.1795807 Z" id="Path"></path>
            <path d="M3.37337493,5.54878236 C3.4946823,5.54878236 3.59310149,5.45047761 3.59310149,5.3290558 L3.59310149,4.90001678 C3.59310149,4.77859497 3.4946823,4.68029021 3.37337493,4.68029021 C3.25195312,4.68029021 3.15364837,4.77859497 3.15364837,4.90001678 L3.15364837,5.3290558 C3.15364837,5.45047761 3.25195312,5.54878236 3.37337493,5.54878236 Z" id="Path"></path>
            <path d="M3.08109284,6.1795807 L3.66554262,6.1795807 C3.78696442,6.1795807 3.88526918,6.08127595 3.88526918,5.95985414 C3.88526918,5.83854674 3.78696442,5.74012758 3.66554262,5.74012758 L3.08109284,5.74012758 C2.95967104,5.74012758 2.86136628,5.83854674 2.86136628,5.95985414 C2.86136628,6.08127595 2.95967104,6.1795807 3.08109284,6.1795807 Z" id="Path"></path>
            <path d="M5.58048249,6.15543366 C5.79769134,6.15543366 6.0019684,6.06433869 6.14067076,5.90560913 C6.22055054,5.81428529 6.21128083,5.67546844 6.11984253,5.59558869 C6.02851869,5.51570892 5.88970184,5.52509309 5.80982209,5.61641692 C5.75454712,5.67970277 5.6708908,5.71598054 5.58048249,5.71598054 C5.49007415,5.71598054 5.40641783,5.67970277 5.35114289,5.61641692 C5.27126312,5.52509309 5.13244629,5.51570892 5.04112242,5.59558869 C4.94968415,5.67546844 4.94041441,5.81428529 5.02029419,5.90560913 C5.15899658,6.06433869 5.36315918,6.15543366 5.58048249,6.15543366 Z" id="Path"></path>
            <path d="M0.519218438,5.79654694 C0.519218438,7.1534729 1.05628969,8.12885285 2.11555482,8.69579314 C2.39604949,8.8458252 2.7109909,8.96816253 3.0670166,9.06406403 C3.00418854,9.44332122 2.81558991,9.82097625 2.61726381,10.2176285 C2.32852937,10.7952118 2.00122834,11.4498138 2.02365876,12.2288132 C2.02720641,12.3501205 2.12848664,12.4456787 2.24967955,12.4420166 C2.37098695,12.4385834 2.46643066,12.3374176 2.46299742,12.2161102 C2.44365691,11.5475464 2.73170473,10.9714508 3.01036834,10.414238 C3.220253,9.99446868 3.42029572,9.59415437 3.49651336,9.16294099 C3.86180877,9.23412322 4.26567076,9.2824173 4.71370696,9.30862427 C5.29026032,9.34226988 5.87104799,9.34146882 6.44748688,9.30862427 C6.89552309,9.2824173 7.29927064,9.23412322 7.66445159,9.16294099 C7.74066926,9.59415437 7.94094085,9.99446868 8.15082551,10.414238 C8.41117857,10.9347153 8.68034361,11.4728165 8.69842529,12.0855331 C8.70162964,12.1960831 8.69613647,12.3092651 8.68263246,12.4198151 C8.61019134,13.0106735 8.30108643,13.6239624 7.74456023,14.2839432 C7.5962448,14.4597244 7.3772049,14.5605469 7.14328767,14.5605469 L6.98844908,14.5605469 C7.56671906,13.3166885 7.39929199,11.7892456 7.39105225,11.7190933 C7.37709047,11.5985871 7.26802825,11.5121842 7.14763641,11.5261459 C7.02701569,11.5401077 6.94061279,11.6490555 6.95457457,11.7696762 C6.95652009,11.7863846 7.13481902,13.4073258 6.49600983,14.5605469 L5.80020905,14.5605469 L5.80020905,11.7443848 C5.80020905,11.6230774 5.70178986,11.5246582 5.58048249,11.5246582 C5.45917512,11.5246582 5.36075593,11.6230774 5.36075593,11.7443848 L5.36075593,14.5605469 L4.66495515,14.5605469 C4.02889251,13.4116745 4.20398713,11.79142 4.20639038,11.7695618 C4.22035219,11.6490555 4.13394929,11.5401077 4.01332854,11.5261459 C3.89282227,11.5121842 3.78376008,11.5985871 3.76991273,11.7190933 C3.76178742,11.7892456 3.59424592,13.3166885 4.17251587,14.5605469 L4.01767731,14.5605469 C3.78387451,14.5605469 3.56472015,14.4597244 3.41651918,14.2839432 C3.04813386,13.8472366 2.78388979,13.4230042 2.63088226,13.0229187 C2.5876236,12.9095077 2.46059417,12.852745 2.34718324,12.8961182 C2.23388672,12.9393768 2.17712402,13.0664062 2.22038268,13.1798172 C2.39341734,13.6323166 2.67482757,14.0861893 3.08052064,14.5672989 C3.31249236,14.8423004 3.6540985,15 4.01767731,15 L7.14328767,15 C7.50698089,15 7.84858705,14.8423004 8.08044434,14.5672989 C8.33621979,14.2640304 8.54473113,13.967514 8.7071228,13.6758041 C9.45144653,13.5361862 10.0183869,13.2250213 10.436554,12.7259445 C10.940094,12.1250153 11.1186218,11.3795471 11.2913132,10.6585693 C11.3922501,10.2368546 11.4876938,9.8384857 11.6419601,9.46689606 C11.6884232,9.35474396 11.6353226,9.22622681 11.5231705,9.17964935 C11.4110184,9.13318635 11.2825012,9.18628693 11.2360382,9.29843903 C11.0684967,9.70230103 10.9644699,10.1363754 10.8638763,10.5561447 C10.7030868,11.227684 10.5366898,11.9221115 10.0997543,12.4436188 C9.81033325,12.7891159 9.43027497,13.0282974 8.94527435,13.1688309 C9.02355193,12.9624939 9.07711028,12.7582169 9.10766602,12.5540543 C9.1210556,12.4647904 9.1305542,12.3748398 9.13513184,12.2845459 C9.76444245,11.9218826 9.92877961,11.2360382 10.1335144,10.3811646 C10.2709579,9.80724334 10.4268265,9.15664673 10.758934,8.55720521 C11.1362457,7.87639617 11.6854477,7.36461639 12.4382401,6.99268342 C12.6219177,6.90204621 12.8507996,6.97998047 12.9412079,7.16308594 C13.0319595,7.34687807 12.9541397,7.57553101 12.7708054,7.66616821 C12.3278046,7.88497925 11.9780731,8.15769196 11.7014694,8.49998473 C11.6251373,8.59428404 11.6397858,8.73264313 11.7341995,8.80897523 C11.8286133,8.88519287 11.9669723,8.87054443 12.04319,8.77624512 C12.2790527,8.48442076 12.580719,8.25027466 12.9654694,8.06007387 C13.3608627,7.86472321 13.5305786,7.37239837 13.3383179,6.97483063 C13.3372879,6.97277068 13.3362579,6.97059633 13.335228,6.96842194 C13.1399918,6.57325746 12.6472092,6.40354157 12.2499847,6.59557342 C12.2478104,6.59660338 12.2457504,6.59763337 12.243576,6.59866333 C11.4079285,7.01156616 10.7965851,7.58251189 10.374527,8.34411621 C10.0133514,8.99597168 9.85015869,9.67746735 9.70607757,10.2788544 C9.53739167,10.9831238 9.42169189,11.4650345 9.10938264,11.7597199 C9.02538299,11.1820221 8.77201081,10.67379 8.54381561,10.2176285 C8.34537507,9.82097625 8.15677644,9.44332122 8.09394838,9.06406403 C8.44997405,8.96816253 8.76491546,8.8458252 9.04529572,8.69579314 C10.1045609,8.12885285 10.6417465,7.15335847 10.6417465,5.79643248 C10.6417465,5.21942139 10.578804,4.67388152 10.45578,4.16530608 C11.335144,2.78526305 11.2050247,1.36127473 11.0456085,0.626907363 C10.9745407,0.299377441 10.7006836,0.0557327344 10.3644562,0.0204849316 C10.2343368,0.00686645508 10.1035309,0 9.9758148,0 C8.83426667,0 8.1004715,0.535926826 7.82444001,0.781173691 C7.13459016,0.439681992 6.36234284,0.254173271 5.58048249,0.254173271 C4.79850768,0.254173271 4.02626039,0.439681992 3.33652497,0.781173691 C3.06037904,0.535926826 2.32646941,0 1.18503571,0 C1.05731965,0 0.926628105,0.00686645508 0.796508789,0.0204849316 C0.460166924,0.0557327344 0.186424248,0.299377441 0.115356445,0.626907363 C-0.0441741797,1.36127473 -0.174179062,2.78526305 0.705184922,4.16530608 C0.582160957,4.67388152 0.519218438,5.21942139 0.519218438,5.79654694 Z M1.3500595,1.3394165 C1.70585631,1.36756898 1.98371889,1.47903442 2.17266082,1.58363344 C2.13947297,1.61453247 2.10697175,1.64611816 2.07469939,1.67804719 C1.82899477,1.92134856 1.60938264,2.1907425 1.42044067,2.48039244 C1.32087709,2.05455779 1.31916047,1.65641783 1.3500595,1.3394165 Z M9.74052428,2.48039244 C9.6194458,2.29465485 9.48635101,2.11818694 9.34181215,1.95121764 C9.23458099,1.82739258 9.1210556,1.70894622 9.00192261,1.59656525 C8.99734497,1.59233092 8.99288177,1.58786774 8.98830413,1.58363344 C9.17724609,1.47914886 9.45510864,1.36756898 9.81079102,1.33953094 C9.84169008,1.6563034 9.83997346,2.05467223 9.74052428,2.48039244 Z M9.97592927,0.439453125 C10.0884247,0.439453125 10.2036667,0.445518486 10.3186798,0.457534805 C10.4658508,0.472984307 10.5854416,0.578498848 10.6161117,0.720176689 C10.7478333,1.32625579 10.8584976,2.44812012 10.2832031,3.58314516 C10.2739334,3.5570526 10.2168274,3.41457366 10.2013779,3.36811066 C10.1517105,3.24497224 10.0980377,3.12469482 10.0401306,3.00727846 C10.3155899,2.2620392 10.2923584,1.55239104 10.221405,1.0804367 C10.2053833,0.97366333 10.1141739,0.894470215 10.0062561,0.893440254 L9.98199463,0.89332582 C9.35840607,0.89332582 8.90464781,1.10595703 8.63433838,1.28356934 C8.50742341,1.18595124 8.37547301,1.09439851 8.23848724,1.0093689 C8.53042603,0.785980225 9.12117006,0.439453125 9.97592927,0.439453125 Z M8.51016999,1.74762727 C9.69017027,2.73342132 10.2022934,4.29576873 10.2022934,5.79643248 C10.2022934,6.99543 9.75608824,7.81700133 8.83804321,8.30829621 C8.00136565,8.75598908 7.00756072,8.85543823 6.07383727,8.88565063 C6.06628418,8.88587953 5.0946808,8.88587953 5.08712769,8.88565063 C4.1530609,8.85520934 3.16062926,8.75656128 2.32292174,8.30829621 C1.40487671,7.81700133 0.958671563,6.99543 0.958671563,5.79643248 C0.958671563,4.40563201 1.37592316,3.00018311 2.37728118,1.99825286 C3.21510316,1.15997314 4.39899445,0.693626396 5.58048249,0.693626396 C6.65290834,0.693626396 7.70496369,1.07494354 8.51016999,1.74762727 Z M0.54473877,0.720176689 C0.575523369,0.578498848 0.695114121,0.472984307 0.842285156,0.457534805 C0.957298271,0.445518486 1.07254028,0.439453125 1.18503571,0.439453125 C2.03372956,0.439453125 2.62733461,0.786781318 2.92121889,1.01005553 C2.78469085,1.0949707 2.65319824,1.18629457 2.5266266,1.28356934 C2.25631714,1.10595703 1.80244447,0.89332582 1.17897035,0.89332582 L1.15470885,0.893440254 C1.04679108,0.894470215 0.95558168,0.97366333 0.939559922,1.0804367 C0.868606582,1.55239104 0.845375068,2.2620392 1.12083434,3.00727846 C1.06269838,3.12515259 1.0087967,3.2460022 0.959014893,3.36959839 C0.941162109,3.4137726 0.887374863,3.55613707 0.877761855,3.58325959 C0.302467354,2.44812012 0.413131699,1.32625579 0.54473877,0.720176689 Z" id="Shape" fill-rule="nonzero"></path>
        </g>
    </g>
</svg>