<?xml version="1.0" encoding="UTF-8"?>
<svg width="20px" height="16px" viewBox="0 0 20 16" version="1.1" xmlns="http://www.w3.org/2000/svg" xmlns:xlink="http://www.w3.org/1999/xlink">
    <!-- Generator: Sketch 53.2 (72643) - https://sketchapp.com -->
    <title>025-cctv</title>
    <desc>Created with Sketch.</desc>
    <g id="Page-1" stroke="none" stroke-width="1" fill="none" fill-rule="evenodd">
        <g id="025-cctv" transform="translate(-0.053333, 0.500000)" fill="#6D2158">
            <path d="M2.98159529,11.246381 L4.47399396,11.2379331 C4.47407557,11.2379327 4.4741421,11.2379984 4.47414256,11.23808 C4.47414298,11.2381532 4.47408977,11.2382157 4.47401746,11.2382269 L4.47401746,11.2382269 C4.47270881,11.23843 4.47138691,11.2385357 4.47006262,11.2385432 L2.97766395,11.2469911 C2.97758234,11.2469916 2.97751581,11.2469258 2.97751535,11.2468442 C2.97751493,11.246771 2.97756814,11.2467086 2.97764045,11.2466973 L2.97764045,11.2466973 C2.9789491,11.2464943 2.980271,11.2463885 2.98159529,11.246381 Z" id="Rectangle" transform="translate(3.725829, 11.242462) rotate(-45.000000) translate(-3.725829, -11.242462) "></path>
            <path d="M2.12474591,10.0136641 L4.36548335,10.0009801 C4.36556496,10.0009796 4.36563149,10.0010454 4.36563196,10.001127 C4.36563237,10.0012002 4.36557916,10.0012627 4.36550685,10.0012739 L4.36550685,10.0012739 C4.36419811,10.001477 4.36287611,10.0015827 4.36155173,10.0015902 L2.12081429,10.0142742 C2.12073268,10.0142747 2.12066615,10.0142089 2.12066568,10.0141273 C2.12066527,10.0140541 2.12071848,10.0139917 2.12079079,10.0139805 L2.12079079,10.0139805 C2.12209953,10.0137774 2.12342153,10.0136716 2.12474591,10.0136641 Z" id="Rectangle-Copy-12" transform="translate(3.243149, 10.007627) rotate(-45.000000) translate(-3.243149, -10.007627) "></path>
            <path d="M19.1089943,7.12135659 L18.4612272,7.12135659 C17.9106233,7.12135659 17.4895959,7.54426357 17.4895959,8.09732558 L17.4895959,9.78903101 L13.1047139,9.78903101 C12.7482818,9.39031008 12.2319435,9.13837209 11.6597306,9.13837209 C11.5972575,9.13837209 11.5355177,9.14166667 11.4745109,9.14751938 L10.3156148,7.98344961 L14.0888475,4.19337209 C14.2183855,4.06325581 14.2183855,3.86806202 14.0888475,3.73790698 L12.3623304,1.95550388 C12.3477444,1.93007752 12.3296469,1.90577519 12.3074977,1.88352713 C12.2877795,1.86372093 12.2664407,1.84732558 12.2442143,1.83356589 L10.5909361,0.126782946 C10.5261478,0.0617054264 10.4613981,0.0291860465 10.364235,0.0291860465 C10.2670718,0.0291860465 10.2022835,0.0617054264 10.1375339,0.126782946 L0.906881654,9.17093023 C0.842093368,9.23600775 0.809718519,9.30104651 0.809718519,9.39864341 C0.809718519,9.49624031 0.842093368,9.56131783 0.906881654,9.62635659 L1.13358277,9.85406977 L0.485815676,10.5047674 C0.42102739,10.569845 0.388652541,10.6348837 0.388652541,10.7324806 C0.388652541,10.8300775 0.42102739,10.895155 0.485815676,10.9601938 L0.728723514,11.204186 L0.0971631352,11.8386047 C-0.0323748493,11.9687209 -0.0323748493,12.1639147 0.0971631352,12.2940698 L1.94330129,14.1484496 C2.00808958,14.2135271 2.07283928,14.2460465 2.17000241,14.2460465 C2.2347907,14.2460465 2.33195383,14.2135271 2.36432868,14.1484496 L3.01209578,13.4977907 L3.2387969,13.7255039 C3.30358519,13.7905814 3.36833488,13.8231008 3.46549802,13.8231008 C3.56266115,13.8231008 3.65982429,13.7905814 3.69219914,13.7255039 L4.33996624,13.074845 L4.56666736,13.3025581 C4.63145564,13.3676357 4.69620534,13.400155 4.79336848,13.400155 C4.89053161,13.400155 4.9553199,13.3676357 5.0200696,13.3025581 L8.50177433,9.80531008 L9.71793419,11.0268992 C9.71723962,11.0480233 9.71631352,11.0690698 9.71631352,11.0903488 C9.71631352,12.1639147 10.5907817,13.0423256 11.6596148,13.0423256 C12.2318277,13.0423256 12.7481661,12.7903876 13.1045981,12.3916667 L17.4894801,12.3916667 L17.4894801,14.0182946 C17.4894801,14.5713566 17.9105075,14.9942636 18.4611115,14.9942636 L19.1088786,14.9942636 C19.3032048,14.9942636 19.4327428,14.8641473 19.4327428,14.6689535 L19.4327428,7.44670543 C19.4328972,7.25147287 19.3033206,7.12135659 19.1089943,7.12135659 Z M2.13762756,13.4327132 L0.777343669,12.0663178 L1.19837106,11.6759302 L2.55869354,13.0423256 L2.13762756,13.4327132 Z M3.46553661,13.0423256 L2.33260982,11.8881008 L1.42507218,10.9602326 C1.41623566,10.9513566 1.40705185,10.9432171 1.39763652,10.9355426 L1.19833247,10.7324806 L1.58698501,10.3095736 L3.88652541,12.6193798 L3.46553661,13.0423256 Z M4.79344565,12.6193798 L4.56674453,12.3916667 L1.81376331,9.62639535 L1.58706219,9.39868217 L10.3641964,0.81 L11.6234198,2.11523256 L10.9147618,2.8270155 C10.7852238,2.95713178 10.7852238,3.15232558 10.9147618,3.28248062 C10.97955,3.34755814 11.0442997,3.38007752 11.1414629,3.38007752 C11.2062512,3.38007752 11.3034143,3.34755814 11.368164,3.28248062 L12.0696834,2.57782946 L12.5159855,3.04042636 L11.3682412,4.19341085 C11.2387032,4.32352713 11.2387032,4.51872093 11.3682412,4.64887597 C11.4330295,4.71395349 11.4977792,4.74647287 11.5949423,4.74647287 C11.6597306,4.74647287 11.7568937,4.71395349 11.8216434,4.64887597 L12.9623649,3.50306202 L13.408667,3.96565891 L4.79344565,12.6193798 Z M8.97149905,9.36612403 L9.87838071,8.4551938 L10.774072,9.35488372 C10.3849178,9.55674419 10.0714722,9.88662791 9.88968682,10.2883721 L8.97149905,9.36612403 Z M11.6597306,12.3916667 C10.9471752,12.3916667 10.3641964,11.8060853 10.3641964,11.0903488 C10.3641964,10.5658915 10.6774105,10.1116279 11.1251018,9.90612403 C11.2129268,9.86732558 11.3052665,9.83844961 11.400616,9.82155039 C11.4183276,9.81709302 11.4353061,9.81189922 11.4517444,9.80612403 C11.5195425,9.795 11.5889612,9.78899225 11.6597306,9.78899225 C12.1040648,9.78899225 12.4979652,10.0167442 12.7316121,10.3617442 C12.8315149,10.5146899 12.9022842,10.6817054 12.9348906,10.8627519 C12.9360096,10.8689922 12.9372444,10.8752326 12.9382477,10.8815116 C12.9398684,10.8913953 12.9412575,10.9013953 12.9426467,10.9113566 C12.9441516,10.9222481 12.9455793,10.9331395 12.9468141,10.9441085 C12.9477402,10.9523256 12.9486277,10.9605426 12.9493995,10.9687984 C12.9506343,10.9821705 12.9516376,10.9955814 12.9524865,11.009031 C12.9529109,11.0156977 12.9534126,11.0223256 12.9537213,11.029031 C12.9546474,11.049186 12.9552648,11.0694186 12.9552648,11.0898062 C12.9552648,11.0899612 12.9552648,11.090155 12.9552648,11.0903101 C12.9552648,11.0904651 12.9552648,11.0906589 12.9552648,11.090814 C12.9552648,11.1112016 12.9546474,11.1314341 12.9537213,11.1515891 C12.9534126,11.1582946 12.9528724,11.1649225 12.9524865,11.1715891 C12.9516376,11.1850388 12.9506729,11.1984884 12.9493995,11.2118217 C12.9486277,11.2200775 12.9477402,11.2282946 12.9468141,11.2365116 C12.9455793,11.2474806 12.9441516,11.2583721 12.9426467,11.2692636 C12.9412575,11.2792636 12.9398684,11.2892248 12.9382477,11.2991473 C12.9372444,11.3054264 12.9360096,11.3116279 12.9348906,11.3178682 C12.9022842,11.4989147 12.8315149,11.6659302 12.7316121,11.818876 C12.4980038,12.163876 12.1040648,12.3916667 11.6597306,12.3916667 Z M13.5058687,11.7410078 C13.570657,11.545814 13.6354067,11.3181008 13.6354067,11.0903488 C13.6354067,10.8625969 13.5706184,10.6348837 13.5058687,10.4396899 L17.4895959,10.4396899 L17.4895959,11.7410078 L13.5058687,11.7410078 L13.5058687,11.7410078 Z M18.7851301,14.3436434 L18.4612658,14.3436434 C18.2669395,14.3436434 18.1374016,14.2135271 18.1374016,14.0183333 L18.1374016,12.0663566 L18.1374016,10.1143798 L18.1374016,8.09736434 C18.1374016,7.90217054 18.2669395,7.77205426 18.4612658,7.77205426 L18.7851301,7.77205426 L18.7851301,14.3436434 L18.7851301,14.3436434 Z" id="Shape" fill-rule="nonzero"></path>
        </g>
    </g>
</svg>