<?xml version="1.0" encoding="UTF-8"?>
<svg width="19px" height="12px" viewBox="0 0 19 12" version="1.1" xmlns="http://www.w3.org/2000/svg" xmlns:xlink="http://www.w3.org/1999/xlink">
    <!-- Generator: Sketch 53.2 (72643) - https://sketchapp.com -->
    <title>couch (1)</title>
    <desc>Created with Sketch.</desc>
    <g id="Page-1" stroke="none" stroke-width="1" fill="none" fill-rule="evenodd">
        <g id="couch-(1)" transform="translate(0.224299, 0.750000)" fill="#6D2158">
            <path d="M18.3265187,10.5455421 L15.2659193,10.5455421 L15.1631008,9.30489819 L15.5305951,9.30489819 C16.0707848,9.30489819 16.5249834,8.91607044 16.5900115,8.39942214 L17.00371,5.76513484 C17.4927043,5.63621355 18.101202,5.29636767 18.1732178,4.60236653 C18.2137177,4.21106222 18.0308975,3.85195378 17.6585545,3.59122179 C17.3258559,3.35828289 16.8809267,3.23183819 16.463663,3.23018712 L16.6952543,2.69854155 C16.8586802,2.32319758 16.8454179,1.89832141 16.6590325,1.53315907 C16.4725045,1.1679967 16.1315348,0.899009382 15.7235404,0.795404513 C11.5511885,-0.265134838 7.14040026,-0.265134838 2.968191,0.795404513 C2.56005403,0.899009382 2.21908426,1.1679967 2.03269889,1.53315907 C1.84617085,1.89832141 1.83305118,2.32319758 1.99647707,2.69854155 L2.22806841,3.23032474 C1.81066209,3.23183819 1.36573291,3.35828289 1.03303428,3.59122179 C0.660691297,3.85195378 0.477871057,4.21106222 0.518371021,4.60236653 C0.590386792,5.29636767 1.19902709,5.63621355 1.68787876,5.76513484 L2.10171992,8.39942214 C2.16660543,8.91607044 2.62080396,9.30489819 3.16099365,9.30489819 L3.34638077,9.30489819 L3.24341961,10.5455421 L0.365070093,10.5455421 C0.163425891,10.5455421 0,10.7032196 0,10.8977711 C0,11.0921849 0.163425891,11.25 0.365070093,11.25 L18.3265187,11.25 C18.5281629,11.25 18.6915888,11.0921849 18.6915888,10.8977711 C18.6915888,10.7032196 18.5281629,10.5455421 18.3265187,10.5455421 L18.3265187,10.5455421 Z M2.68754337,1.84452397 C2.78052212,1.66235552 2.95065052,1.52820585 3.15414858,1.47660981 C7.20471532,0.447028068 11.4867308,0.447028068 15.5375828,1.47660981 C15.7409383,1.52834343 15.9110667,1.66235552 16.0040454,1.84452397 C16.0970242,2.02669234 16.1035841,2.23844249 16.0220137,2.42556412 L15.5558363,3.49587233 C15.5441427,3.50481563 15.532449,3.51389655 15.5207554,3.52311505 C15.5204702,3.52352779 15.5200423,3.52380299 15.5196145,3.52407815 C15.5160494,3.52696752 15.5124843,3.52999451 15.5089191,3.53288387 C15.5079209,3.53370943 15.5069226,3.53453495 15.5059244,3.5353605 C15.5029297,3.53783709 15.499935,3.54031372 15.4970829,3.54279031 C15.4957994,3.54389103 15.494516,3.54499174 15.4932325,3.54609246 C15.490523,3.54843151 15.4878135,3.55063294 15.4852466,3.55297195 C15.4838205,3.55407266 15.4825371,3.55531096 15.4811111,3.55654926 C15.4785441,3.55875069 15.4759773,3.56095212 15.4734103,3.56329113 C15.4719843,3.56452946 15.4705582,3.56576776 15.4691322,3.56714367 C15.4667079,3.56920748 15.4644262,3.57140892 15.4620019,3.57361035 C15.4604333,3.57498626 15.4588646,3.57636214 15.4572959,3.57787563 C15.454729,3.58021464 15.4520195,3.58269127 15.4494526,3.58516786 C15.4464579,3.58805726 15.4433206,3.59080902 15.4403259,3.59369842 C15.4386146,3.59521188 15.4369033,3.59686299 15.4351921,3.59851403 C15.4326252,3.60099065 15.4300583,3.60346728 15.4274914,3.60594387 C15.4264931,3.60690701 15.4254949,3.60800772 15.4244966,3.60897086 C15.4217872,3.61158503 15.4190777,3.61419924 15.4163681,3.61695103 C15.4155125,3.61777658 15.4145143,3.61873968 15.4136587,3.61970282 C15.4108065,3.6224546 15.408097,3.62520639 15.4053875,3.62809576 C15.4046745,3.62878374 15.4039614,3.62947167 15.4032484,3.63015961 C15.4002537,3.63332418 15.397259,3.63635113 15.3942643,3.63951569 C15.3939791,3.63979089 15.3936939,3.63992847 15.3935513,3.64020363 C15.0212083,4.02834345 14.79033,4.70363235 14.7051945,5.65712714 L14.7051945,5.65822786 C14.7043389,5.66634564 14.7037684,5.67432581 14.7030554,5.6824436 C14.7029128,5.68368189 14.7027702,5.68505781 14.7026276,5.68643368 C14.7021998,5.69124932 14.701772,5.69606496 14.7013442,5.70101818 C14.6997755,5.72069344 14.6982068,5.74023116 14.6966381,5.75963126 C13.0076186,5.27848102 11.2289001,5.2903137 9.54430126,5.79526693 L9.32868173,5.85993398 L9.11306221,5.79526693 C7.439444,5.29375346 5.6729896,5.27875622 3.99395239,5.75027518 C3.99366717,5.74642267 3.99323934,5.74243259 3.99295415,5.73858009 C3.99281155,5.73761695 3.99281155,5.73679143 3.99266895,5.73596588 C3.9920985,5.72826087 3.99152811,5.72055586 3.99081506,5.71271327 C3.99067246,5.71147498 3.99067246,5.71037426 3.99052986,5.70913596 C3.99038727,5.70652176 3.99010204,5.70376997 3.98981681,5.70101818 C3.98953162,5.69689048 3.98910379,5.69276281 3.9888186,5.68863511 C3.98867596,5.68602094 3.98839077,5.68354431 3.98810558,5.6809301 C3.98753512,5.67418823 3.98696473,5.66758394 3.98639428,5.66084206 C3.98625168,5.65850305 3.98596649,5.65630162 3.98582389,5.65396258 C3.98511084,5.64667034 3.98454041,5.63937811 3.98382739,5.63208588 C3.9836848,5.63153549 3.9836848,5.63112275 3.9836848,5.63057239 C3.89740844,4.69977988 3.67095093,4.03714917 3.3080199,3.65093563 C3.3078773,3.65079805 3.30759207,3.65052285 3.30744947,3.65038527 C3.30474,3.6474959 3.30203048,3.64460649 3.29932097,3.64185471 C3.29832272,3.64075399 3.29718188,3.63965327 3.29618363,3.63855256 C3.29390194,3.63621355 3.29162025,3.63387454 3.2894812,3.63153549 C3.28776993,3.62988445 3.28620126,3.62823334 3.28463259,3.62671989 C3.28277873,3.62465604 3.28078227,3.62272977 3.27878578,3.62080353 C3.27678928,3.61873968 3.27479282,3.61681345 3.27279636,3.6147496 C3.27122769,3.6132361 3.26965902,3.61158503 3.26809035,3.61007157 C3.26523824,3.60731975 3.26238613,3.604568 3.25953402,3.60181617 C3.25867841,3.60099065 3.25782276,3.60016513 3.25710974,3.59933958 C3.21803585,3.56177767 3.17753585,3.52724272 3.13560985,3.49587233 L2.66943246,2.42556412 C2.58800471,2.23844249 2.59456454,2.02669234 2.68754337,1.84452397 Z M4.01163548,7.0548982 C4.01862314,6.89708311 4.02418476,6.69922949 4.02304392,6.4778481 L4.05555797,6.46807924 C5.6390495,5.99339572 7.3130955,5.99339572 8.89658703,6.46807924 L8.96375423,6.48816732 L8.96375423,7.0548982 L4.01163548,7.0548982 Z M2.82615588,8.31232804 C2.8257281,8.30806276 2.82515767,8.30379748 2.82444466,8.29966978 L2.37152957,5.41648323 C2.34700139,5.26018164 2.21751562,5.13882774 2.05494531,5.11956522 C2.04738723,5.1187397 1.29514318,5.01637316 1.24494604,4.53219594 C1.23082812,4.39680793 1.30384214,4.27201431 1.46184904,4.16139241 C1.76745261,3.94730325 2.29423737,3.86956523 2.58914555,3.99490921 C2.64789902,4.01981289 2.70365778,4.05902587 2.75627921,4.11158505 C2.75699222,4.11241057 2.75770524,4.11309854 2.7584183,4.11378648 C2.75913132,4.11447442 2.75970174,4.11516236 2.76041476,4.11585029 C3.02095502,4.38167311 3.20234923,4.98156304 3.26623649,5.80723722 C3.26766253,5.82622455 3.2690886,5.84507429 3.27037204,5.86378645 L3.27037204,5.86406165 C3.27065727,5.8673638 3.27079987,5.87066594 3.27108506,5.87396809 C3.27137029,5.87768301 3.27165552,5.88126032 3.27179812,5.88497524 C3.27194071,5.88580076 3.27194071,5.8867639 3.27208331,5.88772703 C3.27236854,5.89309303 3.27279636,5.89845902 3.27308156,5.9039626 C3.27322415,5.90506332 3.27322415,5.90616403 3.27336675,5.90740233 C3.27365198,5.91276833 3.2740798,5.9182719 3.274365,5.92377548 L3.274365,5.9243258 C3.27479282,5.93051735 3.27522065,5.93657129 3.27550584,5.9427628 C3.27564844,5.94317558 3.27564844,5.94372594 3.27564844,5.94413868 C3.30416954,6.41620804 3.29104987,6.85443037 3.27707451,7.1184645 C3.27664669,7.12630709 3.2762189,7.13387452 3.27579107,7.14144195 C3.27564844,7.14529445 3.27536324,7.14914695 3.27522065,7.15286188 C3.26737734,7.29072647 3.25996185,7.37286735 3.25967662,7.3752064 C3.25226117,7.4545955 3.27265373,7.53013209 3.31329629,7.59287287 C3.31358152,7.59342323 3.31386675,7.59397358 3.31429454,7.59452394 C3.31557798,7.59645021 3.31671882,7.59837644 3.3180023,7.60016513 C3.31828749,7.60044029 3.31843013,7.60071546 3.31857272,7.60099065 C3.31900051,7.60154101 3.31942834,7.60209137 3.31985616,7.60264173 C3.32085441,7.6042928 3.32199525,7.60580629 3.3229935,7.60731975 C3.32327869,7.60773253 3.32356389,7.6081453 3.32399171,7.60855808 C3.32441954,7.60910844 3.32484736,7.60979638 3.32527519,7.61034673 C3.3262734,7.61172261 3.32727165,7.61309852 3.3282699,7.61433682 C3.32912551,7.61543753 3.32998116,7.61653825 3.33069418,7.61763897 C3.33169243,7.6188773 3.33269064,7.62011559 3.33368889,7.62149147 C3.33425931,7.62204183 3.33482973,7.62272977 3.33525756,7.62341774 C3.33568538,7.62383048 3.33611317,7.62438087 3.3363984,7.62479362 C3.33739665,7.62589433 3.33839486,7.62713263 3.33925051,7.62823334 C3.34024876,7.62933406 3.34124701,7.63057239 3.34224522,7.63167311 C3.34324347,7.6329114 3.34438431,7.6341497 3.34538256,7.63538803 C3.34623817,7.63635113 3.34709382,7.63731426 3.34794944,7.6382774 C3.34937551,7.63979089 3.35080155,7.64130435 3.35222762,7.64281784 C3.35279804,7.6433682 3.35322583,7.64405614 3.35379629,7.64460649 L3.35408148,7.64488169 C3.36049872,7.65148598 3.36705859,7.65809028 3.37404625,7.66428179 C3.42353037,7.70899835 3.48599157,7.74064394 3.55629607,7.75330216 C3.55700913,7.75330216 3.55757955,7.75343974 3.55829257,7.75357733 C3.56043166,7.7539901 3.56271335,7.7542653 3.56485244,7.75467804 C3.56613588,7.75495324 3.56741932,7.75509082 3.56870276,7.7552284 C3.57041403,7.75550359 3.5719827,7.75564118 3.57369396,7.75591634 C3.57540523,7.75619153 3.57711649,7.75646673 3.57882776,7.75660431 C3.5801112,7.75674189 3.58125204,7.75687947 3.58253548,7.75701705 C3.58453198,7.75729225 3.58652848,7.75742983 3.58852493,7.75770503 C3.58909536,7.75770503 3.58966578,7.75784261 3.5903788,7.75784261 C3.59109185,7.75784261 3.59166224,7.75798019 3.59237529,7.75798019 C3.59365873,7.75811777 3.59508477,7.75811777 3.59636825,7.75825538 C3.59864993,7.75839296 3.60078899,7.75853054 3.60292808,7.75866816 C3.6034985,7.75866816 3.60421152,7.75880574 3.60478198,7.75880574 C3.61105659,7.7590809 3.61747386,7.7593561 3.6237485,7.7593561 C3.62474671,7.7593561 3.62574496,7.75921848 3.62674321,7.75921848 L11.4023084,7.75921848 C11.6038099,7.75921848 11.7673785,7.60154101 11.7673785,7.40698953 C11.7673785,7.21257567 11.6038099,7.05476059 11.4023084,7.05476059 L9.69375183,7.05476059 L9.69375183,6.48816732 L9.76091903,6.46807924 C11.3444106,5.99339572 13.0184566,5.99339572 14.6019481,6.46807924 L14.6684023,6.48789212 C14.668117,6.54733076 14.6684023,6.60484316 14.6689727,6.66042929 L14.6689727,7.05476059 L14.3228691,7.05476059 C14.121225,7.05476059 13.957799,7.21257567 13.957799,7.40698953 C13.957799,7.60154101 14.121225,7.75921848 14.3228691,7.75921848 L15.059997,7.75921848 C15.071548,7.75949368 15.0832417,7.75921848 15.0950779,7.75825538 C15.0963614,7.75811777 15.0976449,7.75811777 15.0990709,7.75798019 C15.0996413,7.75798019 15.1003543,7.75784261 15.1010674,7.75784261 C15.1017804,7.75770503 15.1023508,7.75770503 15.1030639,7.75756745 C15.1049177,7.75742983 15.1069142,7.75729225 15.1087681,7.75701705 C15.1100515,7.75687947 15.1114776,7.75674189 15.112761,7.75660431 C15.1144723,7.75646673 15.116041,7.75619153 15.1176096,7.75591634 C15.1194635,7.75577876 15.1213174,7.75550359 15.1231712,7.7552284 C15.1241695,7.75509082 15.1251677,7.75495324 15.1263086,7.75481562 C15.1287328,7.75440288 15.1311571,7.7539901 15.1335814,7.75357733 C15.1340092,7.75343974 15.1344371,7.75343974 15.1348649,7.75330216 C15.3085584,7.72234455 15.4349069,7.57471106 15.4331956,7.40396258 C15.4331956,7.40354981 15.4331956,7.40327465 15.4331956,7.40286187 C15.4331956,7.40134838 15.433053,7.39983492 15.433053,7.39832143 C15.4329104,7.39061642 15.4324825,7.38304899 15.4317695,7.37534398 C15.4309139,7.36763897 15.3598964,6.58626857 15.4292027,5.75866816 C15.4294878,5.75536601 15.4296305,5.75206387 15.4299157,5.7488993 C15.4299157,5.74862411 15.4299157,5.74821133 15.4300583,5.74793617 C15.4985089,4.94565217 15.6799031,4.36502477 15.9378765,4.10910842 C15.9385895,4.10842048 15.9391599,4.10773254 15.939873,4.10704457 C15.9410138,4.10594385 15.9421546,4.10484314 15.9432955,4.10374242 C15.9447215,4.10236655 15.9462902,4.10085305 15.9477163,4.09947718 C15.9481441,4.0990644 15.9485719,4.09865162 15.9489997,4.09823885 C15.9974856,4.05228399 16.048681,4.01761146 16.1023006,3.99490921 C16.3972088,3.86970281 16.9239935,3.94744083 17.2295971,4.16139241 C17.387604,4.27215189 17.4606181,4.39680793 17.4465001,4.53219594 C17.3961604,5.01774904 16.6424903,5.11887728 16.6365008,5.1197028 C16.4739306,5.13882774 16.3444448,5.26018164 16.3199166,5.41648323 L15.8670015,8.29966978 C15.8662885,8.30379748 15.8658607,8.30806276 15.8652903,8.31232804 C15.8457533,8.47660981 15.7018644,8.60044029 15.5304525,8.60044029 L3.16099365,8.60044029 C2.98958181,8.60044029 2.84569287,8.47647222 2.82615588,8.31232804 L2.82615588,8.31232804 Z M13.0331449,9.30489819 L13.573192,10.5455421 L4.93614698,10.5455421 L5.476194,9.30489819 L13.0331449,9.30489819 Z M3.97584149,10.5455421 L4.07880264,9.30489819 L4.68430564,9.30489819 L4.14425858,10.5455421 L3.97584149,10.5455421 Z M14.365223,10.5455421 L13.8250333,9.30489819 L14.4305363,9.30489819 L14.5334974,10.5455421 L14.365223,10.5455421 Z" id="Shape" fill-rule="nonzero"></path>
            <path d="M9.81460497,3.68817799 C9.86548787,3.72969572 9.92777188,3.75 9.98973921,3.75 C10.0661691,3.75 10.1421767,3.71908901 10.1955932,3.65908528 L10.4028195,3.42634361 C10.4995181,3.317549 10.4859001,3.15430657 10.3723109,3.06177559 C10.2587217,2.96914361 10.0881269,2.98217471 9.99132271,3.0908683 L9.78409636,3.32360998 C9.68739778,3.43240459 9.7010158,3.59564701 9.81460497,3.68817799 L9.81460497,3.68817799 Z" id="Path"></path>
            <path d="M6.07628172,3.68817799 C6.12716167,3.72969572 6.18944208,3.75 6.25140583,3.75 C6.3278313,3.75 6.40383452,3.71908901 6.45724789,3.65908528 L6.66446225,3.42634361 C6.7612608,3.317549 6.747538,3.15430657 6.6339554,3.06177559 C6.52026725,2.96914361 6.34978778,2.98217471 6.25298924,3.0908683 L6.04577488,3.32360998 C5.94908188,3.43240459 5.96269912,3.59564701 6.07628172,3.68817799 Z" id="Path"></path>
            <path d="M13.5529227,3.68817799 C13.6038056,3.72969572 13.6660896,3.75 13.728057,3.75 C13.8044869,3.75 13.8804945,3.71908901 13.9339109,3.65908528 L14.1411373,3.42634361 C14.2378359,3.317549 14.2242178,3.15430657 14.1106287,3.06177559 C13.9970395,2.96914361 13.8264446,2.98217471 13.7296405,3.0908683 L13.5224141,3.32360998 C13.4257155,3.43240459 13.4393336,3.59564701 13.5529227,3.68817799 L13.5529227,3.68817799 Z" id="Path"></path>
        </g>
    </g>
</svg>