<?xml version="1.0" encoding="UTF-8"?>
<svg width="19px" height="16px" viewBox="0 0 19 16" version="1.1" xmlns="http://www.w3.org/2000/svg" xmlns:xlink="http://www.w3.org/1999/xlink">
    <!-- Generator: Sketch 53.2 (72643) - https://sketchapp.com -->
    <title>Group 36</title>
    <desc>Created with Sketch.</desc>
    <g id="Page-1" stroke="none" stroke-width="1" fill="none" fill-rule="evenodd">
        <g id="Group-36" transform="translate(0.963303, 0.500000)" fill="#6D2158" fill-rule="nonzero">
            <path d="M16.742494,12.6072973 L15.5284141,12.6072973 C15.5035579,11.9894257 15.3989127,11.380777 15.2161288,10.7940878 C15.1687741,10.6419595 15.0074109,10.5571959 14.8557141,10.6047635 C14.704051,10.6522635 14.6195467,10.8141554 14.6669688,10.9662838 C14.8324072,11.4972635 14.9279587,12.0480405 14.9524781,12.6073649 L14.4828376,12.6073649 L14.4828376,9.70527027 C16.0298153,9.52875 17.2445014,7.94388514 17.2445014,6.02097973 C17.2445014,5.25087838 17.0513776,4.51226351 16.6860119,3.88493243 C16.6344134,3.79635135 16.5398386,3.74192568 16.4376184,3.74192568 L11.9525924,3.74192568 C11.8503385,3.74192568 11.7557637,3.79638514 11.7041989,3.88493243 C11.3388332,4.51222973 11.1457094,5.25084459 11.1457094,6.02097973 C11.1457094,6.82847973 11.3555387,7.59547297 11.752463,8.23915541 C11.8360916,8.37466216 12.0133856,8.41662162 12.148478,8.33273649 C12.2835703,8.24888514 12.3253341,8.0710473 12.2418066,7.93550676 C11.9011623,7.38314189 11.7211065,6.72114865 11.7211065,6.02097973 C11.7211065,5.96550676 11.7226558,5.91027027 11.7249461,5.85527027 L16.665231,5.85527027 C16.6674876,5.91030405 16.6690706,5.96550676 16.6690706,6.02097973 C16.6690706,7.74341216 15.5592654,9.14476351 14.1951054,9.14476351 C13.6872376,9.14476351 13.1988034,8.95077703 12.7825802,8.58371622 C12.6632503,8.47847973 12.4814768,8.49023649 12.3765621,8.60993243 C12.2716475,8.72962838 12.2833683,8.91195946 12.4026982,9.01719595 C12.8477519,9.40966216 13.3631978,9.6439527 13.9074405,9.70516892 L13.9074405,12.6074324 L2.0780176,12.6074324 C2.13025601,11.4156081 2.50555748,10.2715203 3.17179085,9.28236486 C3.26074097,9.15030405 3.22611745,8.97094595 3.09446049,8.88172297 C2.96276986,8.79253378 2.78396024,8.82722973 2.69501012,8.95929054 C1.96424498,10.044223 1.55465679,11.2999662 1.50208158,12.6074324 L0.28769857,12.6074324 C0.128827796,12.6074324 4.08562073e-14,12.7366216 4.08562073e-14,12.8960135 L4.08562073e-14,13.4245608 C4.08562073e-14,14.2787162 0.692773576,14.9736149 1.54431689,14.9736149 L4.83287792,14.9736149 C4.9917487,14.9736149 5.12057649,14.8444257 5.12057649,14.6850338 C5.12057649,14.5256757 4.99178238,14.3964527 4.83287792,14.3964527 L1.54431689,14.3964527 C1.0100436,14.3963851 0.57536346,13.9603716 0.57536346,13.4244257 L0.57536346,13.1844595 L13.9073731,13.1844595 L13.9073731,13.5307095 L13.6196746,13.5307095 C13.0844919,13.5307095 12.6334767,13.8991216 12.5054236,14.3963851 L5.92601124,14.3963851 C5.76714047,14.3963851 5.63831267,14.5255743 5.63831267,14.6849662 C5.63831267,14.8443581 5.76710679,14.9735473 5.92601124,14.9735473 L12.7567136,14.9735473 L15.4858083,14.9735473 L15.6333961,14.9735473 C15.6723981,14.9735473 15.7095477,14.9656757 15.7434302,14.9515878 C16.4726798,14.8281419 17.0301252,14.1905743 17.0301252,13.4244932 L17.0301252,12.8959459 C17.0301589,12.7364865 16.9013648,12.6072973 16.742494,12.6072973 Z M11.7920376,5.27804054 C11.8578155,4.93891892 11.9686243,4.61567568 12.1224093,4.31898649 L16.2677341,4.31898649 C16.4215191,4.61567568 16.5322942,4.93891892 16.5981058,5.27804054 L11.7920376,5.27804054 Z M13.1216415,14.3963176 C13.2212683,14.2239865 13.4072182,14.1078041 13.6197082,14.1078041 L14.7704015,14.1078041 C14.9828916,14.1078041 15.1688751,14.2239527 15.2684683,14.3963176 L13.1216415,14.3963176 Z M16.4547954,13.4243919 C16.4547954,13.8266216 16.2099047,14.1725676 15.8618845,14.3201014 C15.7093119,13.8619257 15.2778314,13.5306419 14.7704352,13.5306419 L14.4827366,13.5306419 L14.4827366,13.1843919 L16.4547618,13.1843919 L16.4547618,13.4243919 L16.4547954,13.4243919 Z" id="Shape"></path>
            <g id="011-dinner">
                <path d="M10.4401709,6.12331081 C10.1438501,6.03875 9.84193838,5.97462838 9.53655757,5.92993243 C9.70741859,5.70989865 9.80960513,5.43364865 9.80960513,5.13375 C9.80960513,4.41777027 9.2288528,3.83523649 8.51506261,3.83523649 C7.80127242,3.83523649 7.22052008,4.41777027 7.22052008,5.13375 C7.22052008,5.43320946 7.3224035,5.70912162 7.49282668,5.92902027 C6.00596868,6.14540541 4.63355691,6.83243243 3.55190863,7.91736486 C3.43955058,8.03006757 3.43955058,8.21273649 3.55190863,8.32543919 C3.60805397,8.38179054 3.68171316,8.40996622 3.75530498,8.40996622 C3.82893049,8.40996622 3.902556,8.38179054 3.95870134,8.32543919 C5.17577878,7.10462838 6.79399062,6.43233108 8.51512997,6.43233108 C9.1158885,6.43233108 9.71055087,6.51513514 10.282681,6.67844595 C10.4354556,6.72209459 10.5945958,6.63317568 10.638111,6.47986486 C10.6816262,6.32655405 10.5930129,6.16695946 10.4401709,6.12331081 Z M8.51506261,5.85516892 C8.11850876,5.85516892 7.79588354,5.53155405 7.79588354,5.13378378 C7.79591722,4.73597973 8.11850876,4.41239865 8.51506261,4.41239865 C8.91161646,4.41239865 9.23424167,4.73601351 9.23424167,5.13378378 C9.23424167,5.53155405 8.91161646,5.85516892 8.51506261,5.85516892 Z" id="Shape"></path>
                <path d="M5.19359575,5.91236486 L3.85954604,0.248716216 C3.82889681,0.11847973 3.71296863,0.0265202703 3.57956029,0.0265202703 C3.44615195,0.0265202703 3.33022378,0.118513514 3.29957455,0.24875 L0.63278866,11.5716216 C0.596245351,11.726723 0.691998926,11.8821622 0.84659228,11.9188176 C0.868855071,11.9240878 0.891084181,11.9266216 0.912976486,11.9266216 C1.0433199,11.9266216 1.16147099,11.8371284 1.19269278,11.7043581 L2.41468758,6.51601351 C2.74745062,6.35847973 3.63883792,5.90459459 4.43911956,5.21908784 L4.63365795,6.04510135 C4.67020126,6.2002027 4.82523246,6.29621622 4.97975845,6.25956081 C5.13441917,6.22293919 5.23017274,6.0675 5.19359575,5.91236486 Z M2.58837776,5.77888514 L3.57969502,1.57010135 L4.28856786,4.57959459 C3.72169188,5.11554054 3.04740888,5.52925676 2.58837776,5.77888514 Z" id="Shape"></path>
            </g>
        </g>
    </g>
</svg>