<?xml version="1.0" encoding="UTF-8"?>
<svg width="23px" height="16px" viewBox="0 0 23 16" version="1.1" xmlns="http://www.w3.org/2000/svg" xmlns:xlink="http://www.w3.org/1999/xlink">
    <!-- Generator: Sketch 53.2 (72643) - https://sketchapp.com -->
    <title>015-double-bed copy 2</title>
    <desc>Created with Sketch.</desc>
    <g id="Page-1" stroke="none" stroke-width="1" fill="none" fill-rule="evenodd">
        <g id="015-double-bed-copy-2" transform="translate(0.983740, 0.750000)" fill="#6D2158" fill-rule="nonzero">
            <path d="M21.6422671,9.50512931 L21.4516643,9.50512931 L21.4516643,8.16724138 C21.4516643,7.55314655 21.0558004,7.03034483 20.5067321,6.84086207 L20.5067321,1.60905172 C20.5067321,0.739525862 19.8012784,0.0321551724 18.934109,0.0321551724 L15.6610205,0.0321551724 C15.4583385,0.0321551724 15.2941295,0.196853448 15.2941295,0.400043103 C15.2941295,0.603232759 15.4583385,0.767931034 15.6610205,0.767931034 L18.934109,0.767931034 C19.3966452,0.767931034 19.7729502,1.14525862 19.7729502,1.60905172 L19.7729502,6.76474138 L2.23607887,6.76478448 L2.23607887,1.60905172 C2.23607887,1.14525862 2.61238389,0.767931034 3.0749201,0.767931034 L14.4379647,0.767931034 C14.6406467,0.767931034 14.8048556,0.603232759 14.8048556,0.400043103 C14.8048556,0.196853448 14.6406467,0.0321551724 14.4379647,0.0321551724 L3.0749201,0.0321551724 C2.20775068,0.0321551724 1.50229698,0.739525862 1.50229698,1.60905172 L1.50229698,6.84099138 C0.953271657,7.03047414 0.557493692,7.55323276 0.557493692,8.16732759 L0.557493692,9.50521552 L0.366890945,9.50521552 C0.164251939,9.50521552 0,9.6699569 0,9.87310345 L0,12.6134914 C0,12.816681 0.164251939,12.9813793 0.366890945,12.9813793 L1.64909635,12.9813793 L1.64909635,14.6000431 C1.64909635,14.8032328 1.81334829,14.967931 2.01598729,14.967931 L3.99715541,14.967931 C4.19979441,14.967931 4.36404635,14.8031897 4.36404635,14.6000431 L4.36404635,12.9813793 L14.9474423,12.9813793 C15.1501243,12.9813793 15.3143332,12.816681 15.3143332,12.6134914 C15.3143332,12.4103017 15.1501243,12.2456034 14.9474423,12.2456034 L0.73378189,12.2456034 L0.73378189,10.2409914 L3.28478086,10.2409914 C3.48741987,10.2409914 3.65167181,10.07625 3.65167181,9.87310345 C3.65167181,9.6699569 3.48741987,9.50521552 3.28478086,9.50521552 L1.29127558,9.50521552 L1.29127558,8.16732759 C1.29127558,7.79969828 1.58960284,7.50056034 1.95619288,7.50056034 L20.0528792,7.50056034 C20.4195122,7.50056034 20.7178395,7.79969828 20.7178395,8.16732759 L20.7178395,9.50521552 L4.50779366,9.50521552 C4.30515466,9.50521552 4.14090272,9.6699569 4.14090272,9.87310345 C4.14090272,10.07625 4.30515466,10.2409914 4.50779366,10.2409914 L21.2753761,10.2409914 L21.2753761,12.2456034 L16.1704121,12.2456034 C15.9677301,12.2456034 15.8035212,12.4103017 15.8035212,12.6134914 C15.8035212,12.816681 15.9677301,12.9813793 16.1704121,12.9813793 L17.6451117,12.9813793 L17.6451117,14.6000431 C17.6451117,14.8032328 17.8093206,14.967931 18.0120026,14.967931 L19.9931707,14.967931 C20.1958527,14.967931 20.3600617,14.8031897 20.3600617,14.6000431 L20.3600617,12.9813793 L21.6423101,12.9813793 C21.8449921,12.9813793 22.009201,12.816681 22.009201,12.6134914 L22.009201,9.87310345 C22.009158,9.66987069 21.8449491,9.50512931 21.6422671,9.50512931 Z M2.38287824,12.9812931 L3.63022147,12.9812931 L3.63022147,14.2320259 L2.38287824,14.2320259 L2.38287824,12.9812931 Z M19.6262368,14.232069 L18.3788936,14.232069 L18.3788936,12.9813362 L19.6262368,12.9813362 L19.6262368,14.232069 Z" id="Shape"></path>
            <g id="015-double-bed-copy" transform="translate(2.991870, 2.250000)">
                <path d="M14.7020746,4.51474138 C15.2305093,4.1400431 15.6706065,3.63478448 15.9752098,3.02732759 C16.0273526,2.92331897 16.0273526,2.80073276 15.9752098,2.69676724 C15.6636427,2.07543103 15.1940136,1.54202586 14.617176,1.15426724 C14.4489263,1.04116379 14.2209681,1.08612069 14.1081282,1.25491379 C13.9952883,1.42366379 14.0402093,1.65219828 14.208545,1.76534483 C14.6285674,2.04780172 14.9791234,2.42452586 15.2308102,2.86219828 C14.6439996,3.88616379 13.5687749,4.51474138 12.3816559,4.51474138 C11.194451,4.51474138 10.1192262,3.88612069 9.53241566,2.86206897 C10.1192262,1.83797414 11.194537,1.20939655 12.3816559,1.20939655 C12.7123521,1.20939655 13.0385347,1.25844828 13.3511335,1.35508621 C13.5449603,1.4149569 13.7501355,1.30603448 13.8098439,1.11193966 C13.8695954,0.917801724 13.7610111,0.711810345 13.5673563,0.651982759 C13.1846463,0.53362069 12.7856443,0.47362069 12.3816559,0.47362069 C10.8527932,0.47362069 9.47593122,1.32551724 8.78814503,2.69681034 C8.73600224,2.80081897 8.73600224,2.92340517 8.78814503,3.02737069 C9.09274834,3.63482759 9.53284553,4.14008621 10.0612803,4.51478448 L5.96413793,4.51478448 C6.49257266,4.14008621 6.93266984,3.63482759 7.23731614,3.02737069 C7.28945893,2.92336207 7.28945893,2.80077586 7.23731614,2.69681034 C6.54952995,1.32547414 5.17253902,0.47362069 3.64376227,0.47362069 C2.11498552,0.47362069 0.737951593,1.32551724 0.0502083917,2.69681034 C-0.00193439865,2.80081897 -0.00193439865,2.92340517 0.0502083917,3.02737069 C0.354897673,3.63482759 0.794951874,4.14008621 1.3233866,4.51478448 L14.7020746,4.51474138 Z M0.794479021,2.86202586 C1.3812896,1.83793103 2.45660032,1.20935345 3.64376227,1.20935345 C4.83092421,1.20935345 5.90619194,1.83793103 6.49304551,2.86202586 C5.90619194,3.88612069 4.83092421,4.51469828 3.64376227,4.51469828 C2.45660032,4.51469828 1.38133259,3.88607759 0.794479021,2.86202586 Z" id="Shape"></path>
            </g>
        </g>
    </g>
</svg>