<?xml version="1.0" encoding="UTF-8"?>
<svg width="10px" height="16px" viewBox="0 0 10 16" version="1.1" xmlns="http://www.w3.org/2000/svg" xmlns:xlink="http://www.w3.org/1999/xlink">
    <!-- Generator: Sketch 53.2 (72643) - https://sketchapp.com -->
    <title>005-elevator</title>
    <desc>Created with Sketch.</desc>
    <g id="Page-1" stroke="none" stroke-width="1" fill="none" fill-rule="evenodd">
        <g id="005-elevator" transform="translate(0.229008, 0.500000)" fill="#6D2158">
            <path d="M7.18670563,5.42276367 L4.94009303,1.52150391 C4.89155475,1.43724609 4.80190064,1.38530273 4.70479485,1.38530273 C4.60771827,1.38530273 4.51803495,1.43724609 4.46949666,1.52150391 L2.2227964,5.42276367 C2.17425811,5.50702148 2.17425811,5.6109082 2.2227964,5.69516602 C2.27133469,5.77942383 2.36104723,5.83136719 2.45809458,5.83136719 L6.95143667,5.83136719 C7.04851324,5.83136719 7.13819656,5.77942383 7.18673485,5.69516602 C7.23527314,5.6109082 7.23527314,5.50702148 7.18670563,5.42276367 Z M2.92869096,5.2865625 L4.70479485,2.20248047 L6.48084029,5.2865625 L2.92869096,5.2865625 Z" id="Shape" fill-rule="nonzero"></path>
            <path d="M7.2446462,8.38620117 C7.19610791,8.30194336 7.10645381,8.25 7.00934801,8.25 L2.51597671,8.25 C2.41890014,8.25 2.32921681,8.30194336 2.28067852,8.38620117 C2.23214024,8.47045898 2.23214024,8.5743457 2.28067852,8.65860352 L2.8592514,9.66328125 C2.93432356,9.79359375 3.10051094,9.83824219 3.23040419,9.76297852 C3.36035589,9.68777344 3.40486149,9.52116211 3.32984778,9.39087891 L2.98657309,8.79480469 L6.53872242,8.79480469 L4.76267697,11.8788867 L3.86683728,10.3233105 C3.79185279,10.1930273 3.62557774,10.1484082 3.49568449,10.2236133 C3.36573279,10.2988184 3.32122719,10.4654297 3.39624091,10.5957129 L4.52734956,12.5598926 C4.57588785,12.6441504 4.66554195,12.6960938 4.76264775,12.6960938 C4.85972433,12.6960938 4.94940765,12.6441504 4.99794594,12.5598926 L7.24461698,8.65863281 C7.29318449,8.5743457 7.29318449,8.47045898 7.2446462,8.38620117 Z" id="Path"></path>
            <path d="M8.92821028,0 L2.51598402,0 C2.36589814,0 2.24427481,0.121962891 2.24427481,0.272402344 C2.24427481,0.422841797 2.36589814,0.544804687 2.51598402,0.544804687 L8.65650107,0.544804687 L8.65650107,12.2578711 C8.65650107,12.4083105 8.7781244,12.5302734 8.92821028,12.5302734 C9.07829616,12.5302734 9.19991949,12.4083105 9.19991949,12.2578711 L9.19991949,0.272402344 C9.19989027,0.121962891 9.07829616,0 8.92821028,0 Z" id="Path"></path>
            <path d="M9.11117128,12.9297949 C8.9610854,12.9297949 8.83946207,13.0517578 8.83946207,13.2021973 L8.83946207,14.4552246 L0.543418416,14.4552246 L0.543418416,0.544804687 L1.53966603,0.544804687 C1.68975191,0.544804687 1.81137524,0.422841797 1.81137524,0.272402344 C1.81137524,0.121962891 1.68975191,0 1.53966603,0 L0.271709208,0 C0.12162333,0 0,0.121962891 0,0.272402344 L0,14.7275977 C0,14.8780371 0.12162333,15 0.271709208,15 L9.11114206,15 C9.26122793,15 9.38285126,14.8780371 9.38285126,14.7275977 L9.38285126,13.202168 C9.38285126,13.0517578 9.26125716,12.9297949 9.11117128,12.9297949 Z" id="Path"></path>
        </g>
    </g>
</svg>