<?xml version="1.0" encoding="UTF-8"?>
<svg width="16px" height="16px" viewBox="0 0 16 16" version="1.1" xmlns="http://www.w3.org/2000/svg" xmlns:xlink="http://www.w3.org/1999/xlink">
    <!-- Generator: Sketch 53.2 (72643) - https://sketchapp.com -->
    <title>022-dish copy 2</title>
    <desc>Created with Sketch.</desc>
    <g id="Page-1" stroke="none" stroke-width="1" fill="none" fill-rule="evenodd">
        <g id="022-dish-copy-2" transform="translate(0.220339, 0.250000)" fill="#6D2158">
            <path d="M10.5619887,5.0555 L10.4023955,4.52725 C10.1996723,3.9271875 9.55163559,3.60603125 8.95496328,3.80990625 C8.61930791,3.92459375 8.35571186,4.1896875 8.24167232,4.52725 L8.0820791,5.0555 C7.94777966,5.501 7.91959605,5.97203125 7.99979661,6.4305 C8.0729435,6.8165 8.31662147,7.148125 8.6620339,7.33175 L8.48329944,11.35 C8.45937288,11.5742812 8.53171186,11.7981875 8.68216949,11.9655 C9.00573729,12.3214375 9.55499153,12.3461875 9.90891808,12.0207812 C9.92805932,12.0031875 9.94639266,11.98475 9.96388701,11.9655 C10.1109887,11.8029375 10.1832034,11.5855937 10.1627571,11.36675 L9.98302825,7.33125 C10.3279746,7.14753125 10.5712486,6.816125 10.6442712,6.4305 C10.7244718,5.97203125 10.6962881,5.501 10.5619887,5.0555 Z M10.1545537,6.3435 C10.1007345,6.6208125 9.90422599,6.84834375 9.63873446,6.94075 C9.53796328,6.97884375 9.47305085,7.07784375 9.47789831,7.186 L9.66682486,11.40625 C9.67552542,11.4890313 9.64836723,11.5715625 9.59224859,11.63275 C9.4425678,11.7817813 9.2015,11.7817813 9.05181921,11.63275 C8.99290395,11.566625 8.96614972,11.477625 8.97873446,11.38975 L9.16616949,7.186 C9.17101695,7.07784375 9.10610452,6.97884375 9.00533333,6.94075 C8.73984181,6.84834375 8.54333333,6.6208125 8.48951412,6.3435 C8.42301695,5.962875 8.44644633,5.57184375 8.55787571,5.202 L8.71746893,4.6735 C8.8409548,4.33771875 9.21172316,4.1661875 9.54563842,4.290375 C9.72216667,4.35603125 9.86131356,4.496 9.92659887,4.6735 L10.0861921,5.202 C10.1974972,5.571875 10.2209266,5.962875 10.1545537,6.3435 Z" id="Shape" fill-rule="nonzero"></path>
            <path d="M6.71186441,3.75 C6.57458192,3.75 6.46327684,3.8619375 6.46327684,4 L6.46327684,6.1465 L5.79035028,6.82325 C5.74057062,6.873125 5.71409605,6.94190625 5.71751412,7.0125 L5.93502825,11.3875 C5.94021751,11.4818437 5.90616102,11.574125 5.84106215,11.64225 C5.70499153,11.7803125 5.48337571,11.7813125 5.34606215,11.6444375 C5.34531638,11.6437187 5.34460169,11.6429687 5.34388701,11.64225 C5.27875706,11.574125 5.24473164,11.4818437 5.2499209,11.3875 L5.46892655,7.0125 C5.47240678,6.9419375 5.44602542,6.8731875 5.39633898,6.82325 L4.72316384,6.1465 L4.72316384,4 C4.72316384,3.8619375 4.61185876,3.75 4.47457627,3.75 C4.33729379,3.75 4.2259887,3.8619375 4.2259887,4 L4.2259887,6.25 C4.2259887,6.3163125 4.25221469,6.379875 4.29882486,6.42675 L4.96653107,7.0985 L4.75448588,11.36325 C4.73192655,11.8290937 5.08914689,12.2251562 5.55235876,12.2478437 C6.01557062,12.2705312 6.40939548,11.9112813 6.4319548,11.4454375 C6.43329096,11.4180625 6.43329096,11.3906562 6.4319548,11.3632812 L6.2199096,7.09853125 L6.88761582,6.42678125 C6.93422599,6.37990625 6.96045198,6.31634375 6.96045198,6.25003125 L6.96045198,4.00003125 C6.96045198,3.8619375 6.84914689,3.75 6.71186441,3.75 Z" id="Path"></path>
            <path d="M5.22033898,3.75 C5.0830565,3.75 4.97175141,3.8619375 4.97175141,4 L4.97175141,6 C4.97175141,6.1380625 5.0830565,6.25 5.22033898,6.25 C5.35762147,6.25 5.46892655,6.1380625 5.46892655,6 L5.46892655,4 C5.46892655,3.8619375 5.35762147,3.75 5.22033898,3.75 Z" id="Path"></path>
            <path d="M5.96610169,3.75 C5.82881921,3.75 5.71751412,3.8619375 5.71751412,4 L5.71751412,6 C5.71751412,6.1380625 5.82881921,6.25 5.96610169,6.25 C6.10338418,6.25 6.21468927,6.1380625 6.21468927,6 L6.21468927,4 C6.21468927,3.8619375 6.10338418,3.75 5.96610169,3.75 Z" id="Path"></path>
            <path d="M7.45762712,0 C3.33890395,0 0,3.357875 0,7.5 C0,11.642125 3.33890395,15 7.45762712,15 C11.5763503,15 14.9152542,11.642125 14.9152542,7.5 C14.9105932,3.3598125 11.5744237,0.0046875 7.45762712,0 Z M7.45762712,14.5 C3.61346893,14.5 0.497175141,11.366 0.497175141,7.5 C0.497175141,3.634 3.61346893,0.5 7.45762712,0.5 C11.3017853,0.5 14.4180791,3.634 14.4180791,7.5 C14.4136977,11.3641563 11.299952,14.4955937 7.45762712,14.5 Z" id="Shape" fill-rule="nonzero"></path>
            <path d="M8.26457345,12.192875 C8.25124294,12.0554688 8.12965254,11.9549375 7.99299153,11.9683438 C7.98979096,11.9686563 7.9865904,11.9690313 7.98338983,11.9694688 L7.98438418,11.9692188 C7.63440395,12.0100938 7.28085028,12.0100938 6.93087006,11.9692188 C6.79445763,11.953125 6.67094068,12.0512813 6.65493785,12.1884688 C6.63893503,12.3256563 6.73653672,12.449875 6.87294915,12.4659688 C7.26108757,12.5115625 7.65317232,12.5115625 8.04131073,12.4659688 C8.17794068,12.4525938 8.27790395,12.3303125 8.26457345,12.192875 Z" id="Path"></path>
            <path d="M11.2610169,4.2785 C11.1727994,4.17271875 11.0160028,4.158875 10.9108192,4.247625 C10.9104774,4.24790625 10.9101356,4.24821875 10.9097627,4.2485 C10.8048277,4.3375 10.7914661,4.4951875 10.8799322,4.60075 C12.3787599,6.390125 12.2640989,9.03603125 10.6161808,10.6875 C10.5189209,10.7849687 10.5186412,10.9433125 10.6155593,11.041125 C10.7124774,11.1389375 10.8699266,11.1392187 10.9671864,11.04175 C12.7985621,9.20696875 12.926274,6.26690625 11.2610169,4.2785 Z" id="Path"></path>
            <g id="Group" transform="translate(5.531073, 2.500000)">
                <path d="M0.296610169,0.838909375 C0.296110169,0.838909375 0.295610169,0.838809375 0.295110169,0.838809375 C0.294310169,0.838809375 0.293510169,0.838909375 0.292610169,0.838909375 L0.296610169,0.838909375 Z" id="Path"></path>
                <path d="M3.09914124,0.13975 C2.12762994,-0.09440625 1.10873164,-0.03146875 0.173016949,0.3205 C0.0444971751,0.36909375 -0.0204774011,0.51328125 0.0278418079,0.6425 C0.064259887,0.73990625 0.156858757,0.804375 0.26030226,0.80446875 C0.290039548,0.8043125 0.319497175,0.79884375 0.347276836,0.78825 C1.18992655,0.47134375 2.10746328,0.41475 2.98230508,0.62575 C3.11576554,0.6581875 3.25009605,0.57571875 3.28235028,0.4415 C3.31460452,0.30728125 3.23260169,0.1721875 3.09914124,0.13975 Z" id="Path"></path>
            </g>
            <path d="M4.28788701,10.675 C3.44986723,9.83365625 2.98019209,8.690875 2.98305085,7.5 C2.98059605,6.5485625 3.28026836,5.6211875 3.83844068,4.853 C3.92094068,4.742625 3.89884746,4.58590625 3.78909605,4.5029375 C3.67934463,4.41996875 3.5235113,4.4421875 3.4410113,4.5525625 C3.43955085,4.55453125 3.43812147,4.5565 3.43672316,4.5585 C1.99948305,6.545625 2.21096893,9.28846875 3.93563842,11.029 C4.03283616,11.1268125 4.19050282,11.126875 4.28776271,11.029125 C4.3850226,10.931375 4.38508475,10.7728125 4.28788701,10.675 Z" id="Path"></path>
        </g>
    </g>
</svg>