<?xml version="1.0" encoding="UTF-8"?>
<svg width="11px" height="12px" viewBox="0 0 11 12" version="1.1" xmlns="http://www.w3.org/2000/svg" xmlns:xlink="http://www.w3.org/1999/xlink">
    <!-- Generator: Sketch 53.2 (72643) - https://sketchapp.com -->
    <title>010-french-press</title>
    <desc>Created with Sketch.</desc>
    <g id="Page-1" stroke="none" stroke-width="1" fill="none" fill-rule="evenodd">
        <g id="010-french-press" transform="translate(0.454545, 0.000000)" fill="#6D2158">
            <path d="M9.1816613,2.25439453 L7.88410956,2.25439453 L7.88410956,2.05480957 C7.88410956,1.54330444 7.44616418,1.12719727 6.90781415,1.12719727 L4.71982167,1.12719727 C4.72011072,1.12326049 4.72049616,1.11941529 4.72049616,1.11547852 L4.72049616,0.352294922 L5.32600744,0.352294922 C5.4284356,0.352294922 5.51139951,0.273376453 5.51139951,0.176147461 C5.51139951,0.0788268984 5.4284356,0 5.32600744,0 L3.74420074,0 C3.64186896,0 3.55880868,0.0788268984 3.55880868,0.176147461 C3.55880868,0.273376453 3.64186896,0.352294922 3.74420074,0.352294922 L4.34971203,0.352294922 L4.34971203,1.11547852 C4.34971203,1.11941529 4.35009746,1.12326049 4.35038654,1.12719727 L2.16239404,1.12719727 C1.62404403,1.12719727 1.18609862,1.54330444 1.18609862,2.05480957 L1.18609862,2.25439453 L0.185135659,2.25439453 C0.110458497,2.25439453 0.041466465,2.29852294 0.0133300151,2.36434936 C-0.0166371865,2.43447877 0.00513962347,2.51733398 0.0664230703,2.56585692 L1.18609862,3.45236205 L1.18609862,11.0723877 C1.18609862,11.5838928 1.62404403,12 2.16239404,12 L6.90781415,12 C7.44616418,12 7.88410956,11.5838928 7.88410956,11.0723877 L7.88410956,7.67907715 L9.1816613,7.67907715 C9.88353021,7.67907715 10.4545455,7.13653566 10.4545455,6.46966552 L10.4545455,3.46380614 C10.4545455,2.79693605 9.88353021,2.25439453 9.1816613,2.25439453 Z M1.55688275,5.42468262 L4.34971203,5.42468262 L4.34971203,9.39331055 L1.9646682,9.39331055 C1.86224007,9.39331055 1.77927614,9.47222902 1.77927614,9.56945801 C1.77927614,9.78671264 1.85848211,9.98657227 1.99058839,10.1447754 L1.55688275,10.1447754 L1.55688275,5.42468262 Z M2.17906393,9.74560547 L6.89114429,9.74560547 C6.81270919,9.97695923 6.58385984,10.1447754 6.31463663,10.1447754 L2.75557155,10.1447754 C2.48634837,10.1447754 2.25749902,9.97695923 2.17906393,9.74560547 Z M7.10553999,9.39331055 L4.72049616,9.39331055 L4.72049616,5.42468262 L7.51332544,5.42468262 L7.51332544,10.1447754 L7.07952344,10.1447754 C7.2117261,9.98657227 7.29093205,9.78671264 7.29093205,9.56945801 C7.29093205,9.47222902 7.20796814,9.39331055 7.10553999,9.39331055 Z M7.88410956,4.22698973 C7.88410956,4.12976074 7.80114566,4.0508423 7.6987175,4.0508423 C7.59628934,4.0508423 7.51332544,4.12976074 7.51332544,4.22698973 L7.51332544,5.0723877 L4.72049616,5.0723877 L4.72049616,2.60668945 L7.51332544,2.60668945 L7.51332544,3.3815918 C7.51332544,3.47891236 7.59628934,3.55773926 7.6987175,3.55773926 C7.80114566,3.55773926 7.88410956,3.47891236 7.88410956,3.3815918 L7.88410956,3.17028809 L9.1816613,3.17028809 C9.35202157,3.17028809 9.49058382,3.30194091 9.49058382,3.46380614 L9.49058382,6.46966552 C9.49058382,6.63153075 9.35202157,6.76318359 9.1816613,6.76318359 L7.88410956,6.76318359 L7.88410956,4.22698973 Z M1.55688275,2.05480957 C1.55688275,1.73757935 1.82851489,1.47949219 2.16239404,1.47949219 L6.90781415,1.47949219 C7.2416933,1.47949219 7.51332544,1.73757935 7.51332544,2.05480957 L7.51332544,2.25439453 L1.55688275,2.25439453 L1.55688275,2.05480957 Z M0.697083692,2.60668945 L4.34971203,2.60668945 L4.34971203,5.0723877 L1.55688275,5.0723877 L1.55688275,3.36987305 C1.55688275,3.31759643 1.53240793,3.26797486 1.49020328,3.23455809 L0.697083692,2.60668945 Z M6.90781415,11.6477051 L2.16239404,11.6477051 C1.82851489,11.6477051 1.55688275,11.3896179 1.55688275,11.0723877 L1.55688275,10.4970703 L7.51332544,10.4970703 L7.51332544,11.0723877 C7.51332544,11.3896179 7.2416933,11.6477051 6.90781415,11.6477051 Z M10.0837613,6.46966552 C10.0837613,6.94226074 9.67915567,7.32678223 9.1816613,7.32678223 L7.88410956,7.32678223 L7.88410956,7.11547852 L9.1816613,7.11547852 C9.55639608,7.11547852 9.86136794,6.82580566 9.86136794,6.46966552 L9.86136794,3.46380614 C9.86136794,3.10766602 9.55639608,2.81799316 9.1816613,2.81799316 L7.88410956,2.81799316 L7.88410956,2.60668945 L9.1816613,2.60668945 C9.67915567,2.60668945 10.0837613,2.99121094 10.0837613,3.46380614 L10.0837613,6.46966552 Z" id="Shape" fill-rule="nonzero"></path>
            <path d="M4.66106278,11.25 C4.66106278,11.3473206 4.58017489,11.4261475 4.48051948,11.4261475 C4.3808641,11.4261475 4.29997618,11.3473206 4.29997618,11.25 C4.29997618,11.152771 4.3808641,11.0738525 4.48051948,11.0738525 C4.58017489,11.0738525 4.66106278,11.152771 4.66106278,11.25 Z" id="Path"></path>
            <path d="M5.4077691,11.25 C5.4077691,11.3473206 5.32697504,11.4261475 5.2272258,11.4261475 C5.12757042,11.4261475 5.04677636,11.3473206 5.04677636,11.25 C5.04677636,11.152771 5.12757042,11.0738525 5.2272258,11.0738525 C5.32697504,11.0738525 5.4077691,11.152771 5.4077691,11.25 Z" id="Path"></path>
            <path d="M6.90127559,11.25 C6.90127559,11.3473206 6.82048153,11.4261475 6.72082612,11.4261475 C6.62107691,11.4261475 6.54028285,11.3473206 6.54028285,11.25 C6.54028285,11.152771 6.62107691,11.0738525 6.72082612,11.0738525 C6.82048153,11.0738525 6.90127559,11.152771 6.90127559,11.25 Z" id="Path"></path>
            <path d="M2.42080304,11.25 C2.42080304,11.3473206 2.33991515,11.4261475 2.24025974,11.4261475 C2.1405105,11.4261475 2.05971644,11.3473206 2.05971644,11.25 C2.05971644,11.152771 2.1405105,11.0738525 2.24025974,11.0738525 C2.33991515,11.0738525 2.42080304,11.152771 2.42080304,11.25 Z" id="Path"></path>
            <path d="M3.16755628,11.25 C3.16755628,11.3473206 3.08676223,11.4261475 2.98701299,11.4261475 C2.8873576,11.4261475 2.80646969,11.3473206 2.80646969,11.25 C2.80646969,11.152771 2.8873576,11.0738525 2.98701299,11.0738525 C3.08676223,11.0738525 3.16755628,11.152771 3.16755628,11.25 Z" id="Path"></path>
            <path d="M3.91430953,11.2499542 C3.91430953,11.3472748 3.83351547,11.4261017 3.73376623,11.4261017 C3.63411085,11.4261017 3.55322294,11.3472748 3.55322294,11.2499542 C3.55322294,11.1527252 3.63411085,11.0738983 3.73376623,11.0738983 C3.83351547,11.0738983 3.91430953,11.1527252 3.91430953,11.2499542 Z" id="Path"></path>
            <path d="M3.16755628,11.2499542 C3.16755628,11.3472748 3.08676223,11.4261017 2.98701299,11.4261017 C2.8873576,11.4261017 2.80646969,11.3472748 2.80646969,11.2499542 C2.80646969,11.1527252 2.8873576,11.0738983 2.98701299,11.0738983 C3.08676223,11.0738983 3.16755628,11.1527252 3.16755628,11.2499542 Z" id="Path"></path>
            <path d="M5.40781603,11.2499542 C5.40781603,11.3472748 5.32692814,11.4261017 5.22727273,11.4261017 C5.12752351,11.4261017 5.04672943,11.3472748 5.04672943,11.2499542 C5.04672943,11.1527252 5.12752351,11.0738983 5.22727273,11.0738983 C5.32692814,11.0738983 5.40781603,11.1527252 5.40781603,11.2499542 Z" id="Path"></path>
            <path d="M6.15456927,11.2499542 C6.15456927,11.3472748 6.07368138,11.4261017 5.97402597,11.4261017 C5.87427676,11.4261017 5.79348268,11.3472748 5.79348268,11.2499542 C5.79348268,11.1527252 5.87427676,11.0738983 5.97402597,11.0738983 C6.07368138,11.0738983 6.15456927,11.1527252 6.15456927,11.2499542 Z" id="Path"></path>
        </g>
    </g>
</svg>