<?xml version="1.0" encoding="UTF-8"?>
<svg width="18px" height="15px" viewBox="0 0 18 15" version="1.1" xmlns="http://www.w3.org/2000/svg" xmlns:xlink="http://www.w3.org/1999/xlink">
    <!-- Generator: Sketch 53.2 (72643) - https://sketchapp.com -->
    <title>024-gym</title>
    <desc>Created with Sketch.</desc>
    <g id="Page-1" stroke="none" stroke-width="1" fill="none" fill-rule="evenodd">
        <g id="024-gym" transform="translate(0.655556, 0.000000)" fill="#6D2158" fill-rule="nonzero">
            <path d="M16.5744235,0.566037736 L15.4507338,0.566037736 L15.4507338,0.283018868 C15.4507338,0.126721698 15.3249507,0 15.1698113,0 L13.7651992,0 C13.6100597,0 13.4842767,0.126721698 13.4842767,0.283018868 L13.4842767,2.26415094 L13.2033543,2.26415094 L13.2033543,1.98113208 C13.2033543,1.82483491 13.0775713,1.69811321 12.9224319,1.69811321 L11.7987421,1.69811321 C11.6436027,1.69811321 11.5178197,1.82483491 11.5178197,1.98113208 L11.5178197,2.26415094 L5.33752621,2.26415094 L5.33752621,1.98113208 C5.33752621,1.82483491 5.21174319,1.69811321 5.05660377,1.69811321 L3.93291405,1.69811321 C3.77777463,1.69811321 3.65199161,1.82483491 3.65199161,1.98113208 L3.65199161,2.26415094 L3.37106918,2.26415094 L3.37106918,0.283018868 C3.37106918,0.126721698 3.24528616,0 3.09014675,0 L1.68553459,0 C1.53039518,0 1.40461216,0.126721698 1.40461216,0.283018868 L1.40461216,0.566037736 L0.280922432,0.566037736 C0.125783019,0.566037736 0,0.692759434 0,0.849056604 L0,5.09433962 C0,5.25063679 0.125783019,5.37735849 0.280922432,5.37735849 L1.40461216,5.37735849 L1.40461216,5.66037736 C1.40461216,5.81667453 1.53039518,5.94339623 1.68553459,5.94339623 L3.09014675,5.94339623 C3.24528616,5.94339623 3.37106918,5.81667453 3.37106918,5.66037736 L3.37106918,3.96226415 L3.65199161,3.96226415 L3.65199161,4.24528302 C3.65199161,4.40158019 3.77777463,4.52830189 3.93291405,4.52830189 L4.21383648,4.52830189 L4.21383648,14.7169811 C4.21383648,14.8732783 4.3396195,15 4.49475891,15 C4.64989832,15 4.77568134,14.8732783 4.77568134,14.7169811 L4.77568134,4.52830189 L5.05660377,4.52830189 C5.21174319,4.52830189 5.33752621,4.40158019 5.33752621,4.24528302 L5.33752621,3.96226415 L11.5178197,3.96226415 L11.5178197,4.24528302 C11.5178197,4.40158019 11.6436027,4.52830189 11.7987421,4.52830189 L12.0796646,4.52830189 L12.0796646,14.7169811 C12.0796646,14.8732783 12.2054476,15 12.360587,15 C12.5157264,15 12.6415094,14.8732783 12.6415094,14.7169811 L12.6415094,4.52830189 L12.9224319,4.52830189 C13.0775713,4.52830189 13.2033543,4.40158019 13.2033543,4.24528302 L13.2033543,3.96226415 L13.4842767,3.96226415 L13.4842767,5.66037736 C13.4842767,5.81667453 13.6100597,5.94339623 13.7651992,5.94339623 L15.1698113,5.94339623 C15.3249507,5.94339623 15.4507338,5.81667453 15.4507338,5.66037736 L15.4507338,5.37735849 L16.5744235,5.37735849 C16.7295629,5.37735849 16.8553459,5.25063679 16.8553459,5.09433962 L16.8553459,0.849056604 C16.8553459,0.692759434 16.7295629,0.566037736 16.5744235,0.566037736 Z M1.40461216,4.81132075 L0.561844864,4.81132075 L0.561844864,1.13207547 L1.40461216,1.13207547 L1.40461216,4.81132075 Z M2.80922432,2.54716981 L2.80922432,5.37735849 L1.96645702,5.37735849 L1.96645702,0.566037736 L2.80922432,0.566037736 L2.80922432,2.54716981 Z M3.65199161,3.39622642 L3.37106918,3.39622642 L3.37106918,2.83018868 L3.65199161,2.83018868 L3.65199161,3.39622642 Z M4.77568134,3.96226415 L4.21383648,3.96226415 L4.21383648,2.26415094 L4.77568134,2.26415094 L4.77568134,3.96226415 Z M11.5178197,3.39622642 L5.33752621,3.39622642 L5.33752621,2.83018868 L11.5178197,2.83018868 L11.5178197,3.39622642 Z M12.6415094,3.96226415 L12.0796646,3.96226415 L12.0796646,2.26415094 L12.6415094,2.26415094 L12.6415094,3.96226415 Z M13.4842767,3.39622642 L13.2033543,3.39622642 L13.2033543,2.83018868 L13.4842767,2.83018868 L13.4842767,3.39622642 Z M14.8888889,0.849056604 L14.8888889,5.37735849 L14.0461216,5.37735849 L14.0461216,0.566037736 L14.8888889,0.566037736 L14.8888889,0.849056604 Z M16.293501,4.81132075 L15.4507338,4.81132075 L15.4507338,1.13207547 L16.293501,1.13207547 L16.293501,4.81132075 Z" id="Shape"></path>
            <path d="M11.4697117,9.90527123 C11.351022,9.56579009 11.0323506,9.33891509 10.6750524,9.33962264 L6.1802935,9.33962264 C5.71592872,9.33873821 5.33879036,9.71727594 5.33791247,10.1850708 C5.33724528,10.545 5.56240461,10.8660849 5.89937107,10.9856604 L5.89937107,11.6037736 C5.89937107,11.7600708 6.02515409,11.8867925 6.1802935,11.8867925 L6.1802935,14.7169811 C6.1802935,14.8732783 6.30607652,15 6.46121593,15 C6.61635535,15 6.74213836,14.8732783 6.74213836,14.7169811 L6.74213836,14.4339623 L10.1132075,14.4339623 L10.1132075,14.7169811 C10.1132075,14.8732783 10.2389906,15 10.39413,15 C10.5492694,15 10.6750524,14.8732783 10.6750524,14.7169811 L10.6750524,11.8867925 C10.8301918,11.8867925 10.9559748,11.7600708 10.9559748,11.6037736 L10.9559748,10.9856604 C11.393968,10.8302476 11.6239733,10.346533 11.4697117,9.90527123 Z M10.1132075,13.8679245 L6.74213836,13.8679245 L6.74213836,11.8867925 L10.1132075,11.8867925 L10.1132075,13.8679245 Z M10.39413,11.3207547 L6.46121593,11.3207547 L6.46121593,11.0377358 L10.39413,11.0377358 L10.39413,11.3207547 Z M10.6750524,10.4716981 L6.1802935,10.4716981 C6.02515409,10.4716981 5.89937107,10.3449764 5.89937107,10.1886792 C5.89937107,10.0323821 6.02515409,9.90566038 6.1802935,9.90566038 L10.6750524,9.90566038 C10.8301918,9.90566038 10.9559748,10.0323821 10.9559748,10.1886792 C10.9559748,10.3449764 10.8301918,10.4716981 10.6750524,10.4716981 Z" id="Shape"></path>
        </g>
    </g>
</svg>