<?xml version="1.0" encoding="UTF-8"?>
<svg width="19px" height="13px" viewBox="0 0 19 13" version="1.1" xmlns="http://www.w3.org/2000/svg" xmlns:xlink="http://www.w3.org/1999/xlink">
    <!-- Generator: Sketch 53.2 (72643) - https://sketchapp.com -->
    <title>014-iron</title>
    <desc>Created with Sketch.</desc>
    <g id="Page-1" stroke="none" stroke-width="1" fill="none" fill-rule="evenodd">
        <g id="014-iron" transform="translate(0.534653, 0.000000)" fill="#6D2158" fill-rule="nonzero">
            <path d="M17.7948423,11.0077231 C17.6190395,10.8324986 17.3901249,10.7296181 17.1443191,10.7134164 L16.6948295,8.54190124 C16.6621779,8.38400552 16.5071888,8.2824634 16.3488426,8.3150076 C16.1904258,8.34758702 16.0885132,8.50196064 16.1212002,8.65985635 L16.5457417,10.7108805 L5.29044352,10.7108805 C5.12870499,10.7108805 4.99760385,10.8415856 4.99760385,11.0027569 C4.99760385,11.1639282 5.12874033,11.2946333 5.29044352,11.2946333 L16.9036726,11.2946333 C16.9040966,11.2946333 16.9045206,11.2946685 16.9050154,11.2946685 C16.9054041,11.2946685 16.9057575,11.2946333 16.9061462,11.2946333 L17.0759416,11.2946333 C17.1911056,11.2946333 17.2993789,11.3392935 17.3807959,11.4204427 C17.4622129,11.5015919 17.5070205,11.6096146 17.5070205,11.7246112 C17.5070205,11.9615076 17.3136198,12.1542721 17.0759416,12.1542721 L3.24985953,12.1542721 C3.13466014,12.1542721 3.02617483,12.109471 2.94433379,12.0281457 C2.86312882,11.9474192 2.81842722,11.839643 2.81842722,11.7246112 C2.81842722,11.4874682 3.01196926,11.2945628 3.24989486,11.2945628 L4.29672512,11.2945628 C4.45846365,11.2945628 4.58956479,11.1638577 4.58956479,11.0026865 C4.58956479,10.8415152 4.45842831,10.7108101 4.29672512,10.7108101 L1.97298386,10.7108101 L2.70425261,1.52623135 C2.74577386,1.00443232 3.18968021,0.595622238 3.71489754,0.595622238 L12.4023802,0.595622238 C13.589782,0.595622238 14.625905,1.4370518 14.8659862,2.59620994 L15.9107316,7.64306146 C15.9433832,7.80092196 16.0980896,7.90246409 16.2567185,7.86995511 C16.4151353,7.83737569 16.5170479,7.68300207 16.4843609,7.52510635 L16.19244,6.11503384 L16.9051921,6.11503384 C16.9963975,6.11503384 17.082479,6.07266298 17.1378878,6.00042472 C17.1932965,5.92815124 17.2117779,5.83428729 17.1877839,5.7465518 L16.6340848,3.71775207 C16.599419,3.59067472 16.4836542,3.50248135 16.3514929,3.50248135 L15.6515683,3.50248135 L15.4395449,2.47832528 C15.1435249,1.04912776 13.8661898,0.0118694751 12.4023448,0.0118694751 L3.71489754,0.0118694751 C2.88627471,0.0118694751 2.18585537,0.656836326 2.12034013,1.48009185 L2.07161009,2.09209185 L0.29283967,2.09209185 C0.131101143,2.09209185 0,2.22279696 0,2.38396823 C0,2.5451395 0.13113648,2.67584461 0.29283967,2.67584461 L2.02514162,2.67584461 L1.36405262,10.9796872 C1.35758591,11.0608715 1.38546699,11.1410345 1.44091111,11.200875 C1.49631989,11.2606802 1.57434451,11.2947037 1.65600886,11.2947037 L2.32904185,11.2947037 C2.26737837,11.4253384 2.23271254,11.5710477 2.23271254,11.7247521 C2.23271254,11.9960594 2.3385829,12.250672 2.53078212,12.4417106 C2.72319337,12.6329254 2.97857557,12.738201 3.24985953,12.738201 L17.0759062,12.738201 C17.6365315,12.738201 18.0926645,12.2835684 18.0926645,11.7247873 C18.0926645,11.4537265 17.9869002,11.199114 17.7948423,11.0077231 Z M16.1277729,4.08623412 L16.5221364,5.53128108 L16.0716573,5.53128108 L15.7725277,4.08623412 L16.1277729,4.08623412 Z" id="Shape"></path>
            <path d="M12.8498556,6.13919544 L12.5054236,3.94369475 C12.3367589,2.8707576 11.4237154,2.09202141 10.3344452,2.09202141 L6.61799278,2.09202141 C6.45625425,2.09202141 6.32515311,2.22272652 6.32515311,2.38389779 C6.32515311,2.54506906 6.45628959,2.67577417 6.61799278,2.67577417 L10.3344452,2.67577417 C11.1333847,2.67577417 11.8030607,3.24702348 11.9267763,4.03393094 L12.2183439,5.89233149 L11.362582,5.89233149 L11.362582,5.0292058 C11.362582,4.86799931 11.2314455,4.73732942 11.0697424,4.73732942 L7.18381259,4.73732942 C7.02207407,4.73732942 6.89097292,4.86799931 6.89097292,5.0292058 L6.89097292,5.89240193 L4.20612045,5.89240193 L4.20612045,2.67580939 L5.52472939,2.67580939 C5.68646792,2.67580939 5.81756906,2.54510428 5.81756906,2.38393301 C5.81756906,2.22276174 5.68643258,2.09205663 5.52472939,2.09205663 L3.91324545,2.09205663 C3.75150692,2.09205663 3.62040578,2.22276174 3.62040578,2.38393301 L3.62040578,6.18431354 C3.62040578,6.34552003 3.75154226,6.47618992 3.91324545,6.47618992 L12.5605143,6.47618992 C12.6460658,6.47618992 12.7273767,6.43889088 12.7829975,6.37408425 C12.8386183,6.30927762 12.8630717,6.22344406 12.8498556,6.13919544 Z M10.7768673,5.89240193 L7.47665226,5.89240193 L7.47665226,5.32108218 L10.7768673,5.32108218 L10.7768673,5.89240193 Z" id="Shape"></path>
        </g>
    </g>
</svg>