<?xml version="1.0" encoding="UTF-8"?>
<svg width="16px" height="16px" viewBox="0 0 16 16" version="1.1" xmlns="http://www.w3.org/2000/svg" xmlns:xlink="http://www.w3.org/1999/xlink">
    <!-- Generator: Sketch 53.2 (72643) - https://sketchapp.com -->
    <title>011-jacuzzi</title>
    <desc>Created with Sketch.</desc>
    <g id="Page-1" stroke="none" stroke-width="1" fill="none" fill-rule="evenodd">
        <g id="011-jacuzzi" transform="translate(0.702128, 0.500000)" fill="#6D2158">
            <path d="M14.893617,7.74193548 L14.893617,5.80645161 L10.0892244,5.80645161 L10.0892244,5.56451613 C10.0892244,4.69887097 9.44039121,3.98370968 8.60706932,3.88403226 C8.92752231,3.57532258 9.12834592,3.14201613 9.12834592,2.66129032 L9.12834592,0.755080645 C9.12834592,0.338709677 8.79203844,0 8.37862045,0 C8.20998627,0 8.04399451,0.0587903226 7.91259437,0.163790323 C7.74468085,0.0570967742 7.55058339,0 7.34735758,0 L6.82560055,0 C6.24090597,0 5.76527111,0.479032258 5.76527111,1.06790323 L5.76527111,2.66129032 C5.76527111,3.14201613 5.96609472,3.57532258 6.2865477,3.88403226 C5.45322581,3.98370968 4.80439259,4.69887097 4.80439259,5.56451613 L4.80439259,5.80645161 L0,5.80645161 L0,7.74193548 L0.480439259,7.74193548 L0.480439259,13.0645161 L0,13.0645161 L0,15 L14.893617,15 L14.893617,13.0645161 L14.4131778,13.0645161 L14.4131778,7.74193548 L14.893617,7.74193548 Z M6.24571036,1.06790323 C6.24571036,0.745887097 6.50586822,0.483870968 6.82560055,0.483870968 L7.34735758,0.483870968 C7.50229925,0.483870968 7.64787234,0.544596774 7.75741249,0.654919355 L7.92724777,0.825967742 L8.18812629,0.563225806 C8.23833219,0.51266129 8.30775566,0.483870968 8.37862045,0.483870968 C8.52707618,0.483870968 8.64790666,0.605564516 8.64790666,0.755080645 L8.64790666,1.64419355 C8.40936857,1.55467742 8.18284146,1.36620968 8.09684283,1.28032258 L7.92724777,1.11193548 L7.75789293,1.27983871 C7.75188744,1.2858871 7.18280714,1.83846774 6.24571036,1.9233871 L6.24571036,1.06790323 Z M6.24571036,2.66129032 L6.24571036,2.40653226 C7.0672615,2.3441129 7.65219629,1.98193548 7.92436513,1.77096774 C8.08723404,1.90209677 8.3509952,2.07822581 8.64790666,2.14693548 L8.64790666,2.66129032 C8.64790666,3.32830645 8.10909403,3.87096774 7.44680851,3.87096774 C6.78452299,3.87096774 6.24571036,3.32830645 6.24571036,2.66129032 Z M5.28483185,5.56451613 C5.28483185,4.8975 5.82364447,4.35483871 6.48592999,4.35483871 L8.40768703,4.35483871 C9.06997255,4.35483871 9.60878518,4.8975 9.60878518,5.56451613 L9.60878518,5.80645161 L8.88812629,5.80645161 L8.88812629,5.32258065 L8.40768703,5.32258065 L8.40768703,5.80645161 L6.48592999,5.80645161 L6.48592999,5.32258065 L6.00549073,5.32258065 L6.00549073,5.80645161 L5.28483185,5.80645161 L5.28483185,5.56451613 Z M14.4131778,14.516129 L0.480439259,14.516129 L0.480439259,13.5483871 L14.4131778,13.5483871 L14.4131778,14.516129 Z M0.960878518,13.0645161 L0.960878518,7.74193548 L2.16197666,7.74193548 L2.16197666,13.0645161 L0.960878518,13.0645161 Z M2.64241592,13.0645161 L2.64241592,7.74193548 L3.84351407,7.74193548 L3.84351407,13.0645161 L2.64241592,13.0645161 Z M4.32395333,13.0645161 L4.32395333,7.74193548 L5.52505148,7.74193548 L5.52505148,13.0645161 L4.32395333,13.0645161 Z M6.00549073,13.0645161 L6.00549073,7.74193548 L7.20658888,7.74193548 L7.20658888,13.0645161 L6.00549073,13.0645161 Z M7.68702814,13.0645161 L7.68702814,7.74193548 L8.88812629,7.74193548 L8.88812629,13.0645161 L7.68702814,13.0645161 Z M9.36856555,13.0645161 L9.36856555,7.74193548 L10.5696637,7.74193548 L10.5696637,13.0645161 L9.36856555,13.0645161 Z M12.7316404,8.22580645 L12.7316404,7.74193548 L13.9327385,7.74193548 L13.9327385,13.0645161 L12.7316404,13.0645161 L12.7316404,8.70967742 L12.2512011,8.70967742 L12.2512011,13.0645161 L11.050103,13.0645161 L11.050103,7.74193548 L12.2512011,7.74193548 L12.2512011,8.22580645 L12.7316404,8.22580645 Z M0.480439259,7.25806452 L0.480439259,6.29032258 L14.4131778,6.29032258 L14.4131778,7.25806452 L0.480439259,7.25806452 Z" id="Shape" fill-rule="nonzero"></path>
            <path d="M13.4522992,3.87096774 C13.4522992,4.52443548 13.2392244,4.96887097 13.2373027,4.9725 L13.6670556,5.18903226 C13.6778655,5.16677419 13.9327385,4.64491935 13.9327385,3.87096774 C13.9327385,3.4616129 13.8018188,3.13185484 13.6754633,2.81346774 C13.5606383,2.52459677 13.4522992,2.25193548 13.4522992,1.93548387 C13.4522992,1.32435484 13.8589911,0.900483871 13.8630748,0.896129032 L13.6925189,0.725806452 L13.5226836,0.554758065 C13.500103,0.5775 12.97186,1.11895161 12.97186,1.93548387 C12.97186,2.34483871 13.1027797,2.67459677 13.2291352,2.99298387 C13.3439602,3.28185484 13.4522992,3.55451613 13.4522992,3.87096774 Z" id="Path"></path>
            <path d="M1.20109815,3.87096774 C1.20109815,4.52443548 0.988023336,4.96887097 0.986101579,4.9725 L1.4158545,5.18903226 C1.42666438,5.16677419 1.68153741,4.64491935 1.68153741,3.87096774 C1.68153741,3.4616129 1.55061771,3.13185484 1.42426218,2.81346774 C1.3094372,2.52459677 1.20109815,2.25193548 1.20109815,1.93548387 C1.20109815,1.32435484 1.60778998,0.900483871 1.61187371,0.896129032 L1.44131778,0.725806452 L1.2714825,0.554758065 C1.24890185,0.5775 0.720658888,1.11895161 0.720658888,1.93548387 C0.720658888,2.34483871 0.851578586,2.67459677 0.977934111,2.99298387 C1.09275909,3.28185484 1.20109815,3.55451613 1.20109815,3.87096774 Z" id="Path"></path>
            <path d="M3.12285518,3.87096774 C3.12285518,4.52443548 2.90978037,4.96887097 2.90785861,4.9725 L3.33761153,5.18903226 C3.34842141,5.16677419 3.60329444,4.64491935 3.60329444,3.87096774 C3.60329444,3.4616129 3.47237474,3.13185484 3.34601922,2.81346774 C3.23119423,2.52459677 3.12285518,2.25193548 3.12285518,1.93548387 C3.12285518,1.32435484 3.52954701,0.900483871 3.53363075,0.896129032 L3.36307481,0.725806452 L3.19323953,0.554758065 C3.17065889,0.5775 2.64241592,1.11895161 2.64241592,1.93548387 C2.64241592,2.34483871 2.77333562,2.67459677 2.89969115,2.99298387 C3.01451613,3.28185484 3.12285518,3.55451613 3.12285518,3.87096774 Z" id="Path"></path>
            <path d="M11.5305422,3.87096774 L12.0109815,3.87096774 C12.0109815,3.4616129 11.8800618,3.13185484 11.7537062,2.81346774 C11.6388813,2.52459677 11.5305422,2.25193548 11.5305422,1.93548387 C11.5305422,1.32435484 11.937234,0.900483871 11.9413178,0.896129032 L11.7707618,0.725806452 L11.6009266,0.554758065 C11.5783459,0.5775 11.050103,1.11895161 11.050103,1.93548387 C11.050103,2.34483871 11.1810226,2.67459677 11.3073782,2.99298387 C11.4222032,3.28185484 11.5305422,3.55451613 11.5305422,3.87096774 Z" id="Path"></path>
            <path d="M11.3153054,4.97298387 L11.7455388,5.18854839 C11.7515443,5.17596774 11.9002402,4.87185484 11.9720659,4.39112903 L11.4966712,4.31879032 C11.4370968,4.71895161 11.3162663,4.97104839 11.3153054,4.97298387 Z" id="Path"></path>
        </g>
    </g>
</svg>