<?xml version="1.0" encoding="UTF-8"?>
<svg width="16px" height="16px" viewBox="0 0 16 16" version="1.1" xmlns="http://www.w3.org/2000/svg" xmlns:xlink="http://www.w3.org/1999/xlink">
    <!-- Generator: Sketch 53.2 (72643) - https://sketchapp.com -->
    <title>006-meter</title>
    <desc>Created with Sketch.</desc>
    <g id="Page-1" stroke="none" stroke-width="1" fill="none" fill-rule="evenodd">
        <g id="006-meter" transform="translate(0.750000, 0.250000)" fill="#6D2158" fill-rule="nonzero">
            <path d="M4.52658228,1.9443038 C3.67594937,1.9443038 3.00759494,2.43037975 3.00759494,3.03797468 C3.00759494,3.64556962 3.67594937,4.13164557 4.52658228,4.13164557 C5.37721519,4.13164557 6.04556962,3.64556962 6.04556962,3.03797468 C6.04556962,2.43037975 5.37721519,1.9443038 4.52658228,1.9443038 Z M4.52658228,3.52405063 C4.01012658,3.52405063 3.61518987,3.25063291 3.61518987,3.03797468 C3.61518987,2.79493671 4.01012658,2.55189873 4.52658228,2.55189873 C5.04303797,2.55189873 5.43797468,2.82531646 5.43797468,3.03797468 C5.43797468,3.28101266 5.04303797,3.52405063 4.52658228,3.52405063 Z" id="Shape"></path>
            <path d="M12.9417722,5.46835443 L8.99240506,5.46835443 L8.99240506,3.03797468 C8.99240506,1.36708861 6.98734177,0 4.49620253,0 C2.00506329,0 0,1.36708861 0,3.03797468 L0,9.23544304 C0,10.6025316 1.36708861,11.8177215 3.31139241,12.1822785 L3.31139241,14.6734177 C3.31139241,14.8556962 3.43291139,14.9772152 3.61518987,14.9772152 L12.9417722,14.9772152 C13.7924051,14.9772152 14.4607595,14.3088608 14.4607595,13.4582278 L14.4607595,6.98734177 C14.4607595,6.13670886 13.7924051,5.46835443 12.9417722,5.46835443 Z M4.49620253,0.607594937 C6.65316456,0.607594937 8.38481013,1.70126582 8.38481013,3.03797468 C8.38481013,4.37468354 6.65316456,5.46835443 4.49620253,5.46835443 C2.33924051,5.46835443 0.607594937,4.37468354 0.607594937,3.03797468 C0.607594937,1.70126582 2.33924051,0.607594937 4.49620253,0.607594937 Z M8.38481013,4.55696203 L8.38481013,5.46835443 L7.16962025,5.46835443 C7.6556962,5.22531646 8.08101266,4.92151899 8.38481013,4.55696203 Z M3.31139241,8.20253165 L3.31139241,11.5443038 C1.73164557,11.2101266 0.607594937,10.2987342 0.607594937,9.23544304 L0.607594937,4.55696203 C1.39746835,5.46835443 2.82531646,6.07594937 4.49620253,6.07594937 L12.9417722,6.07594937 C13.4582278,6.07594937 13.8531646,6.47088608 13.8531646,6.98734177 C13.8531646,7.50379747 13.4582278,7.89873418 12.9417722,7.89873418 L3.61518987,7.89873418 C3.43291139,7.89873418 3.31139241,8.02025316 3.31139241,8.20253165 Z M13.9139241,13.4278481 L13.8531646,13.4278481 C13.8531646,13.9443038 13.4582278,14.3392405 12.9417722,14.3392405 L12.5772152,14.3392405 L12.5772152,12.9417722 C12.5772152,12.7594937 12.4556962,12.6379747 12.2734177,12.6379747 C12.0911392,12.6379747 11.9696203,12.7594937 11.9696203,12.9417722 L11.9696203,14.3392405 L10.8455696,14.3392405 L10.8455696,12.9417722 C10.8455696,12.7594937 10.7240506,12.6379747 10.5417722,12.6379747 C10.3594937,12.6379747 10.2379747,12.7594937 10.2379747,12.9417722 L10.2379747,14.3392405 L9.11392405,14.3392405 L9.11392405,12.9417722 C9.11392405,12.7594937 8.99240506,12.6379747 8.81012658,12.6379747 C8.6278481,12.6379747 8.50632911,12.7594937 8.50632911,12.9417722 L8.50632911,14.3392405 L7.38227848,14.3392405 L7.38227848,12.9417722 C7.38227848,12.7594937 7.26075949,12.6379747 7.07848101,12.6379747 C6.89620253,12.6379747 6.77468354,12.7594937 6.77468354,12.9417722 L6.77468354,14.3392405 L5.65063291,14.3392405 L5.65063291,12.9417722 C5.65063291,12.7594937 5.52911392,12.6379747 5.34683544,12.6379747 C5.16455696,12.6379747 5.04303797,12.7594937 5.04303797,12.9417722 L5.04303797,14.3392405 L3.97974684,14.3392405 L3.97974684,12 C3.97974684,11.9696203 4.01012658,11.9392405 4.01012658,11.9392405 C4.01012658,11.878481 4.01012658,11.8481013 3.97974684,11.7873418 L3.97974684,8.50632911 L13.0025316,8.50632911 C13.3367089,8.50632911 13.6708861,8.38481013 13.9139241,8.20253165 L13.9139241,13.4278481 Z" id="Shape"></path>
        </g>
    </g>
</svg>