<?xml version="1.0" encoding="UTF-8"?>
<svg width="11px" height="16px" viewBox="0 0 11 16" version="1.1" xmlns="http://www.w3.org/2000/svg" xmlns:xlink="http://www.w3.org/1999/xlink">
    <!-- Generator: Sketch 53.2 (72643) - https://sketchapp.com -->
    <title>Group 66</title>
    <desc>Created with Sketch.</desc>
    <g id="Page-1" stroke="none" stroke-width="1" fill="none" fill-rule="evenodd">
        <g id="Group-66" transform="translate(0.522293, 0.750000)" fill="#6D2158">
            <path d="M8.57273564,11.1618805 C9.50064299,9.92843628 10.0117891,8.29296111 10.0117891,6.55677797 C10.0117891,4.82059479 9.50064299,3.18523406 8.57273564,1.95167543 C7.62590543,0.693168633 6.35922181,0 5.00583721,0 C3.65256728,0 2.38576902,0.693168633 1.4389388,1.95167543 C0.511031424,3.18523406 3.8191672e-14,4.82070923 3.8191672e-14,6.55677797 C3.8191672e-14,8.29296111 0.511031424,9.92843628 1.4389388,11.1618805 C1.70512011,11.5157318 1.99664655,11.8248367 2.30812803,12.0864487 L1.59525296,13.8674927 C1.49318428,14.1222381 1.5243783,14.4100571 1.67862812,14.6372223 C1.83287798,14.8643875 2.08908178,15 2.36409377,15 C2.70470492,15 3.00655292,14.7959518 3.13293458,14.4803238 L3.76082887,12.9115677 C4.16245188,13.0448914 4.57978657,13.1136703 5.00583721,13.1136703 C5.43188788,13.1136703 5.84933724,13.0448914 6.25084554,12.9115677 L6.87885454,14.4803238 C7.0052362,14.7959518 7.3069695,15 7.64769535,15 C7.92270734,15 8.17891114,14.8643875 8.333161,14.6372223 C8.48729615,14.4099426 8.51849017,14.1222381 8.41653617,13.8674927 L7.70366109,12.0864487 C8.01514254,11.8248367 8.30655434,11.5156174 8.57273564,11.1618805 Z M2.58761267,14.2630005 C2.55091382,14.3547821 2.46306595,14.4140625 2.36409377,14.4140625 C2.28289755,14.4140625 2.21030265,14.3756104 2.16477315,14.308548 C2.11924365,14.2414856 2.11041297,14.1600037 2.14046017,14.0847015 L2.79610797,12.4468231 C2.93395802,12.5355148 3.07478984,12.6157379 3.2182594,12.6871491 L2.58761267,14.2630005 Z M3.71908394,12.2695541 C3.71552876,12.2678375 3.71197355,12.2663498 3.70841834,12.2648621 C3.40760249,12.1395492 3.11561731,11.9694901 2.84049064,11.7593765 C2.83510049,11.7553711 2.82971034,11.7514801 2.82409084,11.747818 C1.48917033,10.719223 0.587181529,8.77773284 0.587181529,6.55677797 C0.587181529,3.26442718 2.56937792,0.5859375 5.00583721,0.5859375 C7.44229652,0.5859375 9.42460759,3.26442718 9.42460759,6.55677797 C9.42460759,8.77761841 8.52261876,10.719223 7.18769825,11.7477035 C7.18219343,11.7514801 7.1766886,11.7553711 7.17129848,11.7593765 C6.89617181,11.9694901 6.60407193,12.1395492 6.30325607,12.2648621 C6.2997009,12.2663498 6.29614569,12.2678375 6.29270519,12.2695541 C5.885348,12.4373245 5.45321909,12.5277328 5.00583721,12.5277328 C4.55845535,12.5277328 4.12632645,12.4373245 3.71908394,12.2695541 Z M7.87121425,14.084816 C7.90137612,14.1600037 7.89243079,14.2416 7.84701597,14.308548 C7.80148644,14.3756104 7.72889155,14.4140625 7.64769535,14.4140625 C7.54860847,14.4140625 7.4608753,14.3547821 7.42406178,14.2630005 L6.79341505,12.6872635 C6.9368846,12.6157379 7.07771642,12.5356293 7.21556645,12.4468231 L7.87121425,14.084816 Z" id="Shape" fill-rule="nonzero"></path>
            <path d="M7.75228706,10.1799774 C8.45839578,9.20848846 8.84740354,7.92182924 8.84740354,6.55677797 C8.84740354,5.19184113 8.45839578,3.90518188 7.75228706,2.93369294 C7.02542057,1.93382262 6.05003404,1.38324738 5.00583721,1.38324738 C4.37243809,1.38324738 3.74523186,1.59358978 3.19199677,1.99172974 C3.06045437,2.08637238 3.03075123,2.26947785 3.12559482,2.40062713 C3.22043837,2.5320053 3.40404728,2.56164551 3.53547503,2.46700286 C3.99455466,2.13661195 4.48918628,1.96918488 5.00583721,1.96918488 C6.80029608,1.96918488 8.26022201,4.02717592 8.26022201,6.55677797 C8.26022201,9.08649445 6.80029608,11.144371 5.00583721,11.144371 C3.21149304,11.144371 1.75156708,9.08638002 1.75156708,6.55677797 C1.75156708,5.7371521 1.90788123,4.93228913 2.20353632,4.229393 C2.26626839,4.08016204 2.19596717,3.90850066 2.04641937,3.8459015 C1.89687158,3.78330231 1.72484574,3.85345459 1.66211364,4.00257111 C1.3365261,4.77676392 1.16438555,5.66001891 1.16438555,6.5568924 C1.16438555,7.92182924 1.55327864,9.20848846 2.25950206,10.1799774 C2.98625388,11.1797333 3.96164038,11.730423 5.00583721,11.730423 C6.05003404,11.730423 7.02542057,11.1797333 7.75228706,10.1799774 L7.75228706,10.1799774 Z" id="Path"></path>
            <path d="M5.66045287,4.01767731 C5.51663928,3.94260407 5.33933797,3.99833678 5.26422004,4.14173127 L3.26780284,7.95787811 C3.19279956,8.1012726 3.24853595,8.27831268 3.39223486,8.35315705 C3.43558535,8.37581634 3.48203232,8.38645934 3.52790588,8.38645934 C3.63375912,8.38645934 3.73605715,8.32923891 3.78835301,8.2291031 L5.78477021,4.41295623 C5.85988816,4.26944733 5.80415178,4.09252166 5.66045287,4.01767731 Z" id="Path"></path>
            <path d="M5.09930459,8.19053648 C5.14265508,8.21308137 5.18910208,8.2238388 5.23486096,8.2238388 C5.34071417,8.2238388 5.44301221,8.16650391 5.49542277,8.0663681 L6.60109017,5.95287322 C6.67609342,5.80947876 6.62047174,5.63243865 6.47665812,5.55759431 C6.33295921,5.4826355 6.15554322,5.53825377 6.08053997,5.68164826 L4.97487257,7.79525757 C4.89986929,7.93865203 4.95549097,8.11569214 5.09930459,8.19053648 Z" id="Path"></path>
        </g>
    </g>
</svg>