<?xml version="1.0" encoding="UTF-8"?>
<svg width="16px" height="16px" viewBox="0 0 16 16" version="1.1" xmlns="http://www.w3.org/2000/svg" xmlns:xlink="http://www.w3.org/1999/xlink">
    <!-- Generator: Sketch 53.2 (72643) - https://sketchapp.com -->
    <title>012-parking</title>
    <desc>Created with Sketch.</desc>
    <g id="Page-1" stroke="none" stroke-width="1" fill="none" fill-rule="evenodd">
        <g id="012-parking" transform="translate(0.968421, 0.500000)" fill="#6D2158">
            <path d="M13.506991,0 L1.44040666,0 C0.646152549,0 1.03718204e-16,0.648427734 1.03718204e-16,1.44547852 L1.03718204e-16,11.0637891 C1.03718204e-16,11.2141113 0.121418174,11.3359863 0.271242188,11.3359863 C0.421066201,11.3359863 0.542484375,11.2141113 0.542484375,11.0637891 L0.542484375,1.44547852 C0.542484375,0.948603516 0.94533347,0.544394531 1.44040666,0.544394531 L13.506991,0.544394531 C14.0020933,0.544394531 14.4049132,0.948603516 14.4049132,1.44547852 L14.4049132,13.5545508 C14.4049132,14.0514258 14.0020641,14.4556348 13.506991,14.4556348 L1.44040666,14.4556348 C0.945304276,14.4556348 0.542484375,14.0514258 0.542484375,13.5545508 L0.542484375,12.0038086 C0.542484375,11.8534863 0.421066201,11.7316113 0.271242188,11.7316113 C0.121418174,11.7316113 0,11.8534863 0,12.0038086 L0,13.5545508 C1.03718204e-16,14.3515723 0.646152549,15 1.44040666,15 L13.506991,15 C14.3012159,15 14.9473684,14.3515723 14.9473684,13.5545215 L14.9473684,1.44547852 C14.9473684,0.648427734 14.3012159,0 13.506991,0 Z" id="Path"></path>
            <path d="M13.1773606,1.50404297 L11.2206567,1.50404297 C11.0708326,1.50404297 10.9494145,1.62591797 10.9494145,1.77624023 C10.9494145,1.9265625 11.0708326,2.0484375 11.2206567,2.0484375 L12.9061476,2.0484375 L12.9061476,12.9515918 L2.04122081,12.9515918 L2.04122081,2.0484082 L10.2838771,2.0484082 C10.4337011,2.0484082 10.5551192,1.9265332 10.5551192,1.77621094 C10.5551192,1.62588867 10.4337011,1.50401367 10.2838771,1.50401367 L1.77000781,1.50401367 C1.6201838,1.50401367 1.49876563,1.62588867 1.49876563,1.77621094 L1.49876563,13.2237598 C1.49876563,13.374082 1.6201838,13.495957 1.77000781,13.495957 L13.1773898,13.495957 C13.3272138,13.495957 13.448632,13.374082 13.448632,13.2237598 L13.448632,1.77624023 C13.4486028,1.62591797 13.3272138,1.50404297 13.1773606,1.50404297 Z" id="Path"></path>
            <path d="M7.70017187,2.96006836 L5.37544737,2.96006836 C5.22562336,2.96006836 5.10420518,3.08194336 5.10420518,3.23226562 L5.10420518,9.29648437 C5.10420518,9.44680664 5.22562336,9.56868164 5.37544737,9.56868164 C5.52527138,9.56868164 5.64668956,9.44680664 5.64668956,9.29648437 L5.64668956,3.50443359 L7.70017187,3.50443359 C9.22214679,3.50443359 10.4603845,4.74703125 10.4603845,6.27436523 C10.4603845,7.80169922 9.22214679,9.04429687 7.70017187,9.04429687 L7.26045066,9.04429687 C7.11062664,9.04429687 6.98920847,9.16617187 6.98920847,9.31649414 L6.98920847,11.4955664 L5.64668956,11.4955664 L5.64668956,10.2365332 C5.64668956,10.0862109 5.52524219,9.96433594 5.37544737,9.96433594 C5.22562336,9.96433594 5.10420518,10.0862109 5.10420518,10.2365332 L5.10420518,11.7677637 C5.10420518,11.9180859 5.22562336,12.0399609 5.37544737,12.0399609 L7.26045066,12.0399609 C7.41027467,12.0399609 7.53169285,11.9180859 7.53169285,11.7677637 L7.53169285,9.58869141 L7.70017187,9.58869141 C9.52126933,9.58869141 11.0028396,8.1019043 11.0028396,6.27439453 C11.0028396,4.44688477 9.52126933,2.96006836 7.70017187,2.96006836 Z" id="Path"></path>
            <path d="M7.60821053,4.62102539 L7.26045066,4.62102539 C7.11062664,4.62102539 6.98920847,4.74290039 6.98920847,4.89322266 L6.98920847,7.65553711 C6.98920847,7.80585937 7.11062664,7.92773437 7.26045066,7.92773437 L7.60821053,7.92773437 C8.51667188,7.92773437 9.25577837,7.18602539 9.25577837,6.27439453 C9.25577837,5.36273438 8.51664268,4.62102539 7.60821053,4.62102539 Z M7.60821053,7.38333984 L7.53169285,7.38333984 L7.53169285,5.16539063 L7.60821053,5.16539063 C8.21757854,5.16539063 8.71332319,5.66288086 8.71332319,6.27436523 C8.71332319,6.88584961 8.21757854,7.38333984 7.60821053,7.38333984 Z" id="Shape" fill-rule="nonzero"></path>
        </g>
    </g>
</svg>