<?xml version="1.0" encoding="UTF-8"?>
<svg width="16px" height="16px" viewBox="0 0 16 16" version="1.1" xmlns="http://www.w3.org/2000/svg" xmlns:xlink="http://www.w3.org/1999/xlink">
    <!-- Generator: Sketch 53.2 (72643) - https://sketchapp.com -->
    <title>007-pool</title>
    <desc>Created with Sketch.</desc>
    <g id="Page-1" stroke="none" stroke-width="1" fill="none" fill-rule="evenodd">
        <g id="007-pool" transform="translate(0.517241, 0.250000)" fill="#6D2158">
            <path d="M5.32370155,0 C4.67648612,0 4.06780937,0.251461988 3.60962398,0.708157895 C3.36778275,0.949444444 3.18314875,1.23245614 3.0607921,1.54929825 C3.00595873,1.69131579 3.07688163,1.85076023 3.21919634,1.9054386 C3.36151106,1.9601462 3.52135135,1.88938596 3.57615541,1.74739766 C3.67061182,1.50280702 3.81324891,1.28426901 4.00005162,1.0978655 C4.35384553,0.745233918 4.82392956,0.551023392 5.32370155,0.551023392 C6.35586422,0.551023392 7.19562654,1.38865497 7.19562654,2.41830409 C7.19562654,2.57046784 7.3192727,2.69383041 7.47178625,2.69383041 C7.6243291,2.69383041 7.74794596,2.57046784 7.74794596,2.41830409 C7.74794596,1.0848538 6.6604224,0 5.32370155,0 Z" id="Path"></path>
            <path d="M14.3583706,14.4197368 C13.7389968,14.4197368 13.445165,14.2210234 13.1049402,13.9909649 C12.7420026,13.7454971 12.3306204,13.4672515 11.5416471,13.4672515 C10.7526738,13.4672515 10.3412624,13.7454971 9.97835397,13.9909649 C9.80963366,14.1050585 9.65029159,14.2128363 9.45712926,14.2911988 C9.31584029,14.348538 9.24787739,14.509269 9.30534839,14.6502047 C9.36279008,14.7911111 9.52394918,14.8589766 9.66515023,14.8016374 C9.91209088,14.7014327 10.1033189,14.5721053 10.2882167,14.447076 C10.6284415,14.2169883 10.9222733,14.0183041 11.5416471,14.0183041 C12.1610209,14.0183041 12.4548527,14.2170175 12.7950775,14.447076 C13.1579859,14.6925146 13.569368,14.9707602 14.3583706,14.9707602 C14.5109135,14.9707602 14.6345303,14.8473977 14.6345303,14.6952339 C14.634501,14.5430994 14.5108842,14.4197368 14.3583706,14.4197368 Z" id="Path"></path>
            <path d="M8.72489427,14.4197368 C8.10557908,14.4197368 7.81183518,14.2210234 7.47169833,13.9909649 C7.10876064,13.7454971 6.69740781,13.4672515 5.90855172,13.4672515 C5.11972494,13.4672515 4.70837212,13.7454971 4.34546374,13.9909649 C4.00532688,14.2210526 3.71158298,14.4197368 3.0922971,14.4197368 C2.47327499,14.4197368 2.17967762,14.2210234 1.8396873,13.9909942 C1.47689615,13.7455263 1.06568986,13.4672807 0.277068226,13.4672807 C0.124554682,13.4672807 0.000908516502,13.5906433 0.000908516502,13.742807 C0.000908516502,13.8949708 0.124554682,14.0183333 0.277068226,14.0183333 C0.896090341,14.0183333 1.18968771,14.2170468 1.52973664,14.447076 C1.89252779,14.6925731 2.30373409,14.9708187 3.09235572,14.9708187 C3.8811825,14.9708187 4.29253532,14.6925731 4.65544371,14.4471053 C4.99558056,14.2170175 5.28932446,14.0183333 5.90861034,14.0183333 C6.52792552,14.0183333 6.82166942,14.2170468 7.16186489,14.4471053 C7.52480258,14.6925731 7.93615541,14.9708187 8.72501149,14.9708187 C8.87755435,14.9708187 9.0011712,14.8474561 9.0011712,14.6952924 C9.00111259,14.5431287 8.87740781,14.4197368 8.72489427,14.4197368 Z" id="Path"></path>
            <path d="M14.3583706,10.3937719 C13.7389968,10.3938012 13.445165,10.1950585 13.1049402,9.965 C12.7420026,9.71953216 12.3306204,9.44128655 11.5416471,9.44128655 C11.3549616,9.44128655 11.185157,9.45628655 11.0225325,9.48704678 C10.8727152,9.51540936 10.7743023,9.65961988 10.8027301,9.80909357 C10.8311579,9.95859649 10.975612,10.0566959 11.1255465,10.0283918 C11.2538232,10.0040643 11.3899542,9.9922807 11.5416764,9.9922807 C12.1610502,9.9922807 12.454882,10.1909942 12.7951068,10.4210526 C13.1580445,10.6665205 13.5694266,10.9447661 14.3583999,10.9447661 C14.5109428,10.9447661 14.6345597,10.8214035 14.6345597,10.6692398 C14.6345597,10.517076 14.5109135,10.3937719 14.3583706,10.3937719 Z" id="Path"></path>
            <path d="M2.36061894,10.2652339 C2.16757384,10.1868421 2.00829038,10.0790936 1.8396873,9.965 C1.47689615,9.71950292 1.06568986,9.44125731 0.277068226,9.44125731 C0.124554682,9.44125731 0.000908516502,9.56461988 0.000908516502,9.71678363 C0.000908516502,9.86894737 0.124525375,9.99233918 0.277009612,9.99233918 C0.896031727,9.99233918 1.18962909,10.1910526 1.52961941,10.4210819 C1.71445856,10.5461404 1.9055401,10.6754386 2.15239282,10.7756433 C2.18647684,10.7895029 2.22173315,10.7960234 2.25640331,10.7960234 C2.36539598,10.7960234 2.46867379,10.7312281 2.51225328,10.6242982 C2.56981219,10.4833333 2.5018786,10.3225731 2.36061894,10.2652339 Z" id="Path"></path>
            <path d="M11.0806482,1.09789474 C11.4343835,0.745263158 11.904409,0.551052632 12.4042689,0.551052632 C13.4364315,0.551052632 14.2761939,1.38868421 14.2761939,2.41833333 C14.2761939,2.57049708 14.3998107,2.69385965 14.5523536,2.69385965 C14.7048964,2.69385965 14.8285133,2.57049708 14.8285133,2.41833333 C14.8284547,1.0848538 13.7409604,0 12.4042396,0 C11.7570241,0 11.1483181,0.251461988 10.690162,0.708157895 C10.2321818,1.16502924 9.98002447,1.77233918 9.98002447,2.41830409 L9.98002447,4.57769006 L3.45180587,4.57769006 L3.45180587,2.60195906 C3.45180587,2.44979532 3.32815971,2.32643275 3.17564617,2.32643275 C3.02313262,2.32643275 2.89948646,2.44979532 2.89948646,2.60195906 L2.89948646,12.3993275 C2.40856517,12.3621637 2.14216468,12.1826901 1.839658,11.9780117 C1.47683753,11.7325146 1.06566055,11.454269 0.277009612,11.454269 C0.124496068,11.454269 0.000849902534,11.5776316 0.000849902534,11.7297953 C0.000849902534,11.8819591 0.124496068,12.0053216 0.277009612,12.0053216 C0.896031727,12.0053216 1.18962909,12.2040351 1.52961941,12.4340643 C1.89243987,12.6795614 2.30361686,12.957807 3.09223849,12.957807 C3.88106527,12.957807 4.2924181,12.6795614 4.65532648,12.4340936 C4.99546333,12.2040058 5.28923654,12.0053216 5.90849311,12.0053216 C6.52780829,12.0053216 6.82155219,12.2040351 7.16174766,12.4340936 C7.52468535,12.6795614 7.93603818,12.957807 8.72489427,12.957807 C9.51386758,12.957807 9.92527902,12.6795614 10.2882167,12.4340936 C10.6284415,12.2040058 10.922244,12.0053216 11.5416471,12.0053216 C12.1610502,12.0053216 12.4548527,12.2040351 12.7950775,12.4340936 C13.1580152,12.6795614 13.5693973,12.957807 14.3583999,12.957807 C14.5109428,12.957807 14.6345597,12.8344444 14.6345597,12.6822807 C14.6345597,12.530117 14.5109428,12.4067544 14.3583999,12.4067544 C13.7390261,12.4067544 13.4451943,12.2080409 13.1049696,11.9779825 C12.7420319,11.7325146 12.3306497,11.454269 11.5416764,11.454269 C11.110219,11.454269 10.7917986,11.5375439 10.5323732,11.6531287 L10.5323732,2.41830409 C10.5323439,1.91953216 10.7270888,1.4505848 11.0806482,1.09789474 Z M9.97996585,11.9768421 C9.97943833,11.9772222 9.97885219,11.9776023 9.97829536,11.9779825 C9.63807058,12.2080702 9.34423876,12.4067544 8.72486496,12.4067544 C8.10554977,12.4067544 7.81180587,12.2080409 7.47166902,11.9779825 C7.10873133,11.7325146 6.6973785,11.454269 5.90852242,11.454269 C5.11969564,11.454269 4.70834281,11.7325146 4.34543443,11.9779825 C4.07891672,12.1582456 3.84024064,12.3187719 3.45177657,12.3800585 L3.45177657,10.789152 L9.97996585,10.789152 L9.97996585,11.9768421 L9.97996585,11.9768421 Z M9.98002447,7.40789474 L9.46152531,7.40789474 C9.30898246,7.40789474 9.1853656,7.53125731 9.1853656,7.68342105 C9.1853656,7.8355848 9.30898246,7.95894737 9.46152531,7.95894737 L9.98002447,7.95894737 L9.98002447,10.2380994 L3.45177657,10.2380994 L3.45180587,7.95894737 L8.54099294,7.95894737 C8.69353579,7.95894737 8.81715265,7.8355848 8.81715265,7.68342105 C8.81715265,7.53125731 8.69353579,7.40789474 8.54099294,7.40789474 L3.45177657,7.40789474 L3.45177657,5.12874269 L9.98002447,5.12874269 L9.98002447,7.40789474 Z" id="Shape" fill-rule="nonzero"></path>
        </g>
    </g>
</svg>