<?xml version="1.0" encoding="UTF-8"?>
<svg width="13px" height="12px" viewBox="0 0 13 12" version="1.1" xmlns="http://www.w3.org/2000/svg" xmlns:xlink="http://www.w3.org/1999/xlink">
    <!-- Generator: Sketch 53.2 (72643) - https://sketchapp.com -->
    <title>013-power-socket copy</title>
    <desc>Created with Sketch.</desc>
    <g id="Page-1" stroke="none" stroke-width="1" fill="none" fill-rule="evenodd">
        <g id="013-power-socket-copy" transform="translate(0.750000, 0.000000)" fill="#6D2158">
            <path d="M9.25195906,2.9171345 C9.15675439,2.81672515 8.99815789,2.8124269 8.89774854,2.9077193 C8.79733918,3.00292398 8.79312865,3.16149123 8.88833333,3.26192982 C9.60052632,4.01312865 9.99277778,4.9971345 9.99277778,6.03274854 C9.99277778,8.25374269 8.18587719,10.0606433 5.96488304,10.0606433 C3.74388889,10.0606433 1.9369883,8.25374269 1.9369883,6.03274854 C1.9369883,3.81175439 3.74388889,2.0048538 5.96488304,2.0048538 C6.85099415,2.0048538 7.69154971,2.2869883 8.39570175,2.82076023 C8.50599415,2.90432749 8.66315789,2.8827193 8.74672515,2.77245614 C8.8302924,2.66219298 8.80865497,2.50505848 8.69842105,2.42143275 C7.90643275,1.82111111 6.96122807,1.50377193 5.96491228,1.50377193 C3.46760234,1.50377193 1.43587719,3.53546784 1.43587719,6.03274854 C1.43587719,8.53002924 3.4675731,10.5617251 5.9648538,10.5617251 C8.4621345,10.5617251 10.4938304,8.53002924 10.4938304,6.03274854 C10.4938889,4.86827485 10.0528363,3.76181287 9.25195906,2.9171345 Z" id="Path"></path>
            <path d="M9.20538012,0.0946491228 L0.277397661,0.0946491228 C0.139035088,0.0946491228 0.0268421053,0.206812865 0.0268421053,0.345204678 L0.0268421053,9.64909357 C0.0268421053,9.78745614 0.138976608,9.89964912 0.277397661,9.89964912 C0.415760234,9.89964912 0.527923977,9.78748538 0.527923977,9.64909357 L0.527923977,0.595730994 L9.20535088,0.595730994 C9.34371345,0.595730994 9.45587719,0.483567251 9.45587719,0.345175439 C9.45587719,0.206783626 9.34374269,0.0946491228 9.20538012,0.0946491228 Z" id="Path"></path>
            <path d="M11.6524269,0.0946491228 L10.1073099,0.0946491228 C9.96894737,0.0946491228 9.85675439,0.206812865 9.85675439,0.345204678 C9.85675439,0.483596491 9.96891813,0.595760234 10.1073099,0.595760234 L11.4018713,0.595760234 L11.4018713,11.4697076 L0.527953216,11.4697076 L0.527953216,10.5176608 C0.527953216,10.3792982 0.415789474,10.2671053 0.277426901,10.2671053 C0.139064327,10.2671053 0.026871345,10.379269 0.026871345,10.5176608 L0.026871345,11.7202632 C0.026871345,11.8586257 0.139035088,11.9707895 0.277426901,11.9707895 L11.6524561,11.9707895 C11.7908187,11.9707895 11.9030117,11.8586257 11.9030117,11.7202632 L11.9030117,0.345204678 C11.9029532,0.206842105 11.7907895,0.0946491228 11.6524269,0.0946491228 Z" id="Path"></path>
            <path d="M4.06078947,5.18087719 C3.59108187,5.18087719 3.20894737,5.5630117 3.20894737,6.0327193 C3.20894737,6.5024269 3.59108187,6.8845614 4.06078947,6.8845614 C4.53049708,6.8845614 4.91263158,6.5024269 4.91263158,6.0327193 C4.91263158,5.5630117 4.53049708,5.18087719 4.06078947,5.18087719 Z M4.06078947,6.38347953 C3.86736842,6.38347953 3.71002924,6.22614035 3.71002924,6.0327193 C3.71002924,5.83929825 3.86736842,5.68195906 4.06078947,5.68195906 C4.25421053,5.68195906 4.41154971,5.83929825 4.41154971,6.0327193 C4.41154971,6.22614035 4.25421053,6.38347953 4.06078947,6.38347953 Z" id="Shape" fill-rule="nonzero"></path>
            <path d="M7.86900585,5.18087719 C7.39929825,5.18087719 7.01716374,5.5630117 7.01716374,6.0327193 C7.01716374,6.5024269 7.39929825,6.8845614 7.86900585,6.8845614 C8.33871345,6.8845614 8.72084795,6.5024269 8.72084795,6.0327193 C8.72084795,5.5630117 8.33871345,5.18087719 7.86900585,5.18087719 Z M7.86900585,6.38347953 C7.6755848,6.38347953 7.51824561,6.22614035 7.51824561,6.0327193 C7.51824561,5.83929825 7.6755848,5.68195906 7.86900585,5.68195906 C8.0624269,5.68195906 8.21976608,5.83929825 8.21976608,6.0327193 C8.21976608,6.22614035 8.0624269,6.38347953 7.86900585,6.38347953 Z" id="Shape" fill-rule="nonzero"></path>
        </g>
    </g>
</svg>