<?xml version="1.0" encoding="UTF-8"?>
<svg width="17px" height="16px" viewBox="0 0 17 16" version="1.1" xmlns="http://www.w3.org/2000/svg" xmlns:xlink="http://www.w3.org/1999/xlink">
    <!-- Generator: Sketch 53.2 (72643) - https://sketchapp.com -->
    <title>020-heating</title>
    <desc>Created with Sketch.</desc>
    <g id="Page-1" stroke="none" stroke-width="1" fill="none" fill-rule="evenodd">
        <g id="020-heating" transform="translate(0.779310, 0.500000)" fill="#6D2158">
            <path d="M14.7752675,10.3448276 L14.5160523,10.3448276 L14.5160523,4.9137931 L14.7752675,4.9137931 C15.2047548,4.9137931 15.5529132,4.56643319 15.5529132,4.13793103 C15.5529132,3.70942888 15.2047548,3.36206897 14.7752675,3.36206897 L14.5160523,3.36206897 L14.5160523,2.97413793 C14.5147238,2.62574353 14.3131192,2.3090625 13.9976219,2.15974138 L13.9976219,0.775862069 C13.9976219,0.347359914 13.6494634,0 13.2199762,0 L9.59096314,0 C9.16147592,0 8.81331748,0.347359914 8.81331748,0.775862069 L8.81331748,2.08215517 C8.36808294,2.1455819 8.03693549,2.52539871 8.03567182,2.97413793 L8.03567182,3.36206897 L7.51724138,3.36206897 L7.51724138,2.97413793 C7.51724138,2.47422414 7.11105113,2.06896552 6.60998811,2.06896552 C6.10892509,2.06896552 5.70273484,2.47422414 5.70273484,2.97413793 L5.70273484,3.36206897 L5.1843044,3.36206897 L5.1843044,2.97413793 C5.1843044,2.47422414 4.77811415,2.06896552 4.27705113,2.06896552 C3.77598811,2.06896552 3.36979786,2.47422414 3.36979786,2.97413793 L3.36979786,3.36206897 L2.85136742,3.36206897 L2.85136742,2.97413793 C2.85136742,2.47422414 2.44517717,2.06896552 1.94411415,2.06896552 C1.44305113,2.06896552 1.03686088,2.47422414 1.03686088,2.97413793 L1.03686088,3.36206897 L0.77764566,3.36206897 C0.348158442,3.36206897 0,3.70942888 0,4.13793103 C0,4.56643319 0.348158442,4.9137931 0.77764566,4.9137931 L1.03686088,4.9137931 L1.03686088,10.3448276 L0.77764566,10.3448276 C0.348158442,10.3448276 0,10.6921875 0,11.1206897 C0,11.5491918 0.348158442,11.8965517 0.77764566,11.8965517 L1.05008086,11.8965517 C1.11365339,12.3407651 1.49434334,12.671153 1.94411415,12.6724138 C1.9875651,12.6711853 2.03088644,12.6667565 2.07372176,12.6592241 L2.07372176,14.4827586 L0.51843044,14.4827586 C0.375278835,14.4827586 0.25921522,14.598556 0.25921522,14.7413793 C0.25921522,14.8842026 0.375278835,15 0.51843044,15 L15.0344828,15 C15.1776344,15 15.293698,14.8842026 15.293698,14.7413793 C15.293698,14.598556 15.1776344,14.4827586 15.0344828,14.4827586 L13.4791914,14.4827586 L13.4791914,12.6592241 C13.5220268,12.6667565 13.5653481,12.6711853 13.608799,12.6724138 C14.0585699,12.671153 14.4392598,12.3407651 14.5028323,11.8965517 L14.7752675,11.8965517 C15.2047548,11.8965517 15.5529132,11.5491918 15.5529132,11.1206897 C15.5529132,10.6921875 15.2047548,10.3448276 14.7752675,10.3448276 Z M14.5160523,3.87931034 L14.7752675,3.87931034 C14.9184191,3.87931034 15.0344828,3.99510776 15.0344828,4.13793103 C15.0344828,4.28075431 14.9184191,4.39655172 14.7752675,4.39655172 L14.5160523,4.39655172 L14.5160523,3.87931034 Z M1.03686088,11.3793103 L0.77764566,11.3793103 C0.634494055,11.3793103 0.51843044,11.2635129 0.51843044,11.1206897 C0.51843044,10.9778664 0.634494055,10.862069 0.77764566,10.862069 L1.03686088,10.862069 L1.03686088,11.3793103 Z M1.03686088,4.39655172 L0.77764566,4.39655172 C0.634494055,4.39655172 0.51843044,4.28075431 0.51843044,4.13793103 C0.51843044,3.99510776 0.634494055,3.87931034 0.77764566,3.87931034 L1.03686088,3.87931034 L1.03686088,4.39655172 Z M2.33293698,11.7672414 C2.33293698,11.9814763 2.15884156,12.1551724 1.94411415,12.1551724 C1.72938674,12.1551724 1.55529132,11.9814763 1.55529132,11.7672414 L1.55529132,2.97413793 C1.55529132,2.75990302 1.72938674,2.5862069 1.94411415,2.5862069 C2.15884156,2.5862069 2.33293698,2.75990302 2.33293698,2.97413793 L2.33293698,11.7672414 Z M2.85136742,3.87931034 L3.36979786,3.87931034 L3.36979786,11.3793103 L2.85136742,11.3793103 L2.85136742,3.87931034 Z M3.62901308,14.4827586 L2.5921522,14.4827586 L2.5921522,13.9655172 L3.62901308,13.9655172 L3.62901308,14.4827586 Z M3.62901308,12.4137931 L3.62901308,13.4482759 L2.5921522,13.4482759 L2.5921522,12.4137931 C2.5921522,12.4093966 2.58981926,12.4060345 2.58981926,12.4016379 C2.72451397,12.2640517 2.81154548,12.0870582 2.83814744,11.8965517 L3.38249941,11.8965517 C3.40910137,12.0870582 3.49613288,12.2640517 3.63082759,12.4016379 C3.63134602,12.4060345 3.62901308,12.4093966 3.62901308,12.4137931 Z M8.55410226,2.97413793 C8.55410226,2.75990302 8.72819768,2.5862069 8.94292509,2.5862069 C9.1576525,2.5862069 9.33174792,2.75990302 9.33174792,2.97413793 L9.33174792,11.7672414 C9.33174792,11.9814763 9.1576525,12.1551724 8.94292509,12.1551724 C8.72819768,12.1551724 8.55410226,11.9814763 8.55410226,11.7672414 L8.55410226,2.97413793 Z M7.51724138,3.87931034 L8.03567182,3.87931034 L8.03567182,11.3793103 L7.51724138,11.3793103 L7.51724138,3.87931034 Z M6.22116528,2.97413793 C6.22116528,2.75990302 6.3952607,2.5862069 6.60998811,2.5862069 C6.82471552,2.5862069 6.99881094,2.75990302 6.99881094,2.97413793 L6.99881094,11.7672414 C6.99881094,11.9814763 6.82471552,12.1551724 6.60998811,12.1551724 C6.3952607,12.1551724 6.22116528,11.9814763 6.22116528,11.7672414 L6.22116528,2.97413793 Z M5.1843044,3.87931034 L5.70273484,3.87931034 L5.70273484,11.3793103 L5.1843044,11.3793103 L5.1843044,3.87931034 Z M3.8882283,11.7672414 L3.8882283,2.97413793 C3.8882283,2.75990302 4.06232372,2.5862069 4.27705113,2.5862069 C4.49177854,2.5862069 4.66587396,2.75990302 4.66587396,2.97413793 L4.66587396,11.7672414 C4.66587396,11.9814763 4.49177854,12.1551724 4.27705113,12.1551724 C4.06232372,12.1551724 3.8882283,11.9814763 3.8882283,11.7672414 Z M11.4054697,14.4827586 L4.14744352,14.4827586 L4.14744352,12.6592241 C4.19027883,12.6667565 4.23360018,12.6711853 4.27705113,12.6724138 C4.72682194,12.671153 5.10751189,12.3407651 5.17108442,11.8965517 L5.71543639,11.8965517 C5.78390161,12.3893211 6.23979637,12.7334159 6.73373098,12.6650754 C7.13392687,12.6097306 7.44854935,12.2958297 7.5040214,11.8965517 L8.04837337,11.8965517 C8.11683859,12.3893211 8.57273335,12.7334159 9.06666795,12.6650754 C9.46686385,12.6097306 9.78148633,12.2958297 9.83695838,11.8965517 L10.3813103,11.8965517 C10.4449153,12.3409591 10.8258968,12.6714116 11.2758621,12.6724138 C11.319313,12.6711853 11.3626344,12.6667565 11.4054697,12.6592241 L11.4054697,14.4827586 L11.4054697,14.4827586 Z M9.85017836,11.3793103 L9.85017836,3.87931034 L10.3686088,3.87931034 L10.3686088,11.3793103 L9.85017836,11.3793103 Z M11.6646849,11.7672414 C11.6646849,11.9814763 11.4905895,12.1551724 11.2758621,12.1551724 C11.0611347,12.1551724 10.8870392,11.9814763 10.8870392,11.7672414 L10.8870392,2.97413793 C10.8870392,2.75990302 11.0611347,2.5862069 11.2758621,2.5862069 C11.4905895,2.5862069 11.6646849,2.75990302 11.6646849,2.97413793 L11.6646849,11.7672414 Z M12.960761,14.4827586 L11.9239001,14.4827586 L11.9239001,13.9655172 L12.960761,13.9655172 L12.960761,14.4827586 Z M12.960761,12.4137931 L12.960761,13.4482759 L11.9239001,13.4482759 L11.9239001,12.4137931 C11.9239001,12.4093966 11.9215672,12.4060345 11.9215672,12.4016379 C12.0562619,12.2640517 12.1432934,12.0870582 12.1698954,11.8965517 L12.7142473,11.8965517 C12.7408493,12.0870582 12.8278808,12.2640517 12.9625755,12.4016379 C12.9630939,12.4060345 12.960761,12.4093966 12.960761,12.4137931 Z M12.1831153,11.3793103 L12.1831153,3.87931034 L12.7015458,3.87931034 L12.7015458,11.3793103 L12.1831153,11.3793103 Z M12.7015458,2.97413793 L12.7015458,3.36206897 L12.1831153,3.36206897 L12.1831153,2.97413793 C12.1831153,2.47422414 11.7769251,2.06896552 11.2758621,2.06896552 C10.774799,2.06896552 10.3686088,2.47422414 10.3686088,2.97413793 L10.3686088,3.36206897 L9.85017836,3.36206897 L9.85017836,2.97413793 C9.84884988,2.62574353 9.64724524,2.3090625 9.33174792,2.15974138 L9.33174792,0.775862069 C9.33174792,0.633038793 9.44781153,0.517241379 9.59096314,0.517241379 L13.2199762,0.517241379 C13.3631278,0.517241379 13.4791914,0.633038793 13.4791914,0.775862069 L13.4791914,2.08215517 C13.0339569,2.1455819 12.7028095,2.52539871 12.7015458,2.97413793 Z M13.9976219,11.7672414 C13.9976219,11.9814763 13.8235265,12.1551724 13.608799,12.1551724 C13.3940716,12.1551724 13.2199762,11.9814763 13.2199762,11.7672414 L13.2199762,2.97413793 C13.2199762,2.75990302 13.3940716,2.5862069 13.608799,2.5862069 C13.8235265,2.5862069 13.9976219,2.75990302 13.9976219,2.97413793 L13.9976219,11.7672414 Z M14.7752675,11.3793103 L14.5160523,11.3793103 L14.5160523,10.862069 L14.7752675,10.862069 C14.9184191,10.862069 15.0344828,10.9778664 15.0344828,11.1206897 C15.0344828,11.2635129 14.9184191,11.3793103 14.7752675,11.3793103 Z" id="Shape" fill-rule="nonzero"></path>
            <ellipse id="Oval" cx="10.1093936" cy="1.29310345" rx="1" ry="1"></ellipse>
            <ellipse id="Oval" cx="11.4054697" cy="1.29310345" rx="1" ry="1"></ellipse>
            <ellipse id="Oval" cx="12.7015458" cy="1.29310345" rx="1" ry="1"></ellipse>
        </g>
    </g>
</svg>