<?xml version="1.0" encoding="UTF-8"?>
<svg width="16px" height="16px" viewBox="0 0 16 16" version="1.1" xmlns="http://www.w3.org/2000/svg" xmlns:xlink="http://www.w3.org/1999/xlink">
    <!-- Generator: Sketch 53.2 (72643) - https://sketchapp.com -->
    <title>001-strongbox</title>
    <desc>Created with Sketch.</desc>
    <g id="Page-1" stroke="none" stroke-width="1" fill="none" fill-rule="evenodd">
        <g id="001-strongbox" transform="translate(0.532847, 0.500000)" fill="#6D2158">
            <path d="M14.2345596,0.0291828794 L3.94567611,0.0291828794 C3.80005027,0.0291828794 3.68195234,0.146964981 3.68195234,0.292266537 C3.68195234,0.437538911 3.80002102,0.555350195 3.94567611,0.555350195 L13.9708359,0.555350195 L13.9708359,13.4444066 L1.05047772,13.4444066 L1.05047772,11.2345914 L1.70275157,11.2345914 L1.70275157,12.5306615 C1.70275157,12.6759339 1.82082024,12.7937451 1.96647533,12.7937451 L3.48600983,12.7937451 C3.63163566,12.7937451 3.74973359,12.675963 3.74973359,12.5306615 C3.74973359,12.3853891 3.63166492,12.2675778 3.48600983,12.2675778 L2.23016984,12.2675778 L2.23016984,11.2345914 L2.45776506,11.2345914 C2.60339089,11.2345914 2.72148882,11.1168093 2.72148882,10.9715078 L2.72148882,8.32377432 C2.72148882,8.17850195 2.60342015,8.06069066 2.45776506,8.06069066 L2.23016984,8.06069066 L2.23016984,5.93909533 L2.45776506,5.93909533 C2.60339089,5.93909533 2.72148882,5.82131323 2.72148882,5.67601167 L2.72148882,3.02821984 C2.72148882,2.88294747 2.60342015,2.76513619 2.45776506,2.76513619 L2.23016984,2.76513619 L2.23016984,1.73214981 L12.7911437,1.73214981 L12.7911437,3.15332685 C12.7911437,3.29859922 12.9092124,3.41641051 13.0548675,3.41641051 C13.2004933,3.41641051 13.3185913,3.2986284 13.3185913,3.15332685 L13.3185913,1.46909533 C13.3185913,1.32382296 13.2005226,1.20601167 13.0548675,1.20601167 L1.96644608,1.20601167 C1.82082024,1.20601167 1.70272232,1.32379377 1.70272232,1.46909533 L1.70272232,2.765107 L1.05047772,2.765107 L1.05047772,0.555321012 L3.02640206,0.555321012 C3.17202789,0.555321012 3.29012582,0.437538911 3.29012582,0.292237354 C3.29012582,0.146964981 3.17205714,0.0291536965 3.02640206,0.0291536965 L0.786753955,0.0291536965 C0.641128121,0.0291536965 0.523030191,0.146935798 0.523030191,0.292237354 L0.523030191,2.76513619 L0.275396064,2.76513619 C0.129770229,2.76513619 0.0116722997,2.88291829 0.0116722997,3.02821984 L0.0116722997,5.67601167 C0.0116722997,5.82128405 0.129740975,5.93909533 0.275396064,5.93909533 L0.523030191,5.93909533 L0.523030191,8.06069066 L0.275396064,8.06069066 C0.129770229,8.06069066 0.0116722997,8.17847276 0.0116722997,8.32377432 L0.0116722997,10.9715078 C0.0116722997,11.1167802 0.129740975,11.2345914 0.275396064,11.2345914 L0.523030191,11.2345914 L0.523030191,13.7074903 C0.523030191,13.8527626 0.641098867,13.9705739 0.786753955,13.9705739 L1.85007413,13.9705739 L1.85007413,14.7078502 C1.85007413,14.8531226 1.9681428,14.9709339 2.11379789,14.9709339 L4.88595444,14.9709339 C5.03158028,14.9709339 5.14967821,14.8531518 5.14967821,14.7078502 L5.14967821,13.9705739 L9.87166463,13.9705739 L9.87166463,14.7078502 C9.87166463,14.8531226 9.98973331,14.9709339 10.1353884,14.9709339 L12.9075449,14.9709339 C13.0531708,14.9709339 13.1712687,14.8531518 13.1712687,14.7078502 L13.1712687,13.9705739 L14.2346181,13.9705739 C14.380244,13.9705739 14.4983419,13.8527918 14.4983419,13.7074903 L14.4983419,0.292266537 C14.4982541,0.146964981 14.380244,0.0291828794 14.2345596,0.0291828794 Z M0.539119827,5.41289883 L0.539119827,3.2913035 L2.19401204,3.2913035 L2.19401204,5.4129572 L0.539119827,5.4129572 L0.539119827,5.41289883 Z M1.70275157,5.93903696 L1.70275157,8.0606323 L1.05047772,8.0606323 L1.05047772,5.93903696 L1.70275157,5.93903696 L1.70275157,5.93903696 Z M0.539119827,10.7084241 L0.539119827,8.58682879 L2.19401204,8.58682879 L2.19401204,10.7084241 L0.539119827,10.7084241 Z M2.3774924,14.444679 L2.3774924,13.9704864 L4.62223068,13.9704864 L4.62223068,14.444679 L2.3774924,14.444679 Z M12.6438212,14.444679 L10.3990829,14.444679 L10.3990829,13.9704864 L12.6438212,13.9704864 L12.6438212,14.444679 Z" id="Shape" fill-rule="nonzero"></path>
            <path d="M13.0548675,3.80731518 C12.9092417,3.80731518 12.7911437,3.92509728 12.7911437,4.07039883 L12.7911437,12.2675486 L4.40528388,12.2675486 C4.25965804,12.2675486 4.14156011,12.3853307 4.14156011,12.5306323 C4.14156011,12.6759047 4.25962879,12.793716 4.40528388,12.793716 L13.0548675,12.793716 C13.2004933,12.793716 13.3185913,12.6759339 13.3185913,12.5306323 L13.3185913,4.07039883 C13.318562,3.92509728 13.2004933,3.80731518 13.0548675,3.80731518 Z" id="Path"></path>
            <path d="M7.62376693,4.11493191 C6.03042489,4.11493191 4.73412679,5.40808366 4.73412679,6.99755837 C4.73412679,8.58703307 6.03042489,9.88018482 7.62376693,9.88018482 C9.21713823,9.88015564 10.5134071,8.58700389 10.5134071,6.99755837 C10.5134071,5.40808366 9.21710898,4.11493191 7.62376693,4.11493191 Z M9.97089381,6.73447471 L8.98281462,6.73447471 C8.94677384,6.54884241 8.87363913,6.37631323 8.7710165,6.22514591 L9.46904343,5.52881323 C9.7403732,5.86733463 9.92022608,6.28161479 9.97089381,6.73447471 Z M7.88751995,4.6561284 C8.34148172,4.70667315 8.75676986,4.88611868 9.09611491,5.1567607 L8.39808799,5.85309339 C8.24649436,5.75071984 8.0735454,5.67776265 7.88751995,5.64180934 L7.88751995,4.6561284 L7.88751995,4.6561284 Z M7.36010168,4.65615759 L7.36010168,5.64178016 L7.36007242,5.64178016 C7.17404698,5.67773346 7.00103951,5.75069066 6.84950439,5.8530642 L6.15150672,5.1567607 C6.49082252,4.88611868 6.90613991,4.70670233 7.36010168,4.65615759 Z M5.77854895,5.52881323 L6.47657588,6.22511673 C6.37395325,6.37634241 6.30081854,6.5488716 6.26477776,6.73450389 L5.27669857,6.73450389 C5.32733704,6.28161479 5.50724843,5.86733463 5.77854895,5.52881323 Z M5.27672783,7.26058366 L6.2647485,7.26058366 L6.2647485,7.26061284 C6.30078929,7.44618677 6.373924,7.61877432 6.47654662,7.76994163 L5.77854895,8.46624514 C5.50724843,8.12772374 5.32739555,7.71344358 5.27672783,7.26058366 Z M7.36007242,9.33895914 C6.90611065,9.2884144 6.49085177,9.10896887 6.15147746,8.83832685 L6.84950439,8.14199416 C7.00109801,8.2443677 7.17404698,8.3173249 7.36007242,8.35327821 L7.36007242,9.33895914 Z M6.76668664,6.99755837 C6.76668664,6.52610895 7.15117044,6.1425 7.62376693,6.1425 C8.09636343,6.1425 8.48090573,6.52607977 8.48090573,6.99755837 C8.48090573,7.46903696 8.09639268,7.85255837 7.62376693,7.85255837 C7.15114119,7.85255837 6.76668664,7.46900778 6.76668664,6.99755837 Z M7.88751995,9.33890078 L7.88751995,8.35327821 L7.8874907,8.35327821 C8.07351615,8.3173249 8.24652362,8.2443677 8.39811724,8.14199416 L9.09614417,8.83829767 C8.75676986,9.10893969 8.34148172,9.28835603 7.88751995,9.33890078 Z M9.46904343,8.4663035 L8.7710165,7.76997082 C8.87363913,7.61874514 8.94677384,7.44621595 8.98281462,7.26064202 L9.97089381,7.26064202 C9.92022608,7.71350195 9.74034395,8.12772374 9.46904343,8.4663035 Z" id="Shape" fill-rule="nonzero"></path>
        </g>
    </g>
</svg>