<?xml version="1.0" encoding="UTF-8"?>
<svg width="14px" height="16px" viewBox="0 0 14 16" version="1.1" xmlns="http://www.w3.org/2000/svg" xmlns:xlink="http://www.w3.org/1999/xlink">
    <!-- Generator: Sketch 53.2 (72643) - https://sketchapp.com -->
    <title>Shape</title>
    <desc>Created with Sketch.</desc>
    <g id="Page-1" stroke="none" stroke-width="1" fill="none" fill-rule="evenodd">
        <path d="M12.3126246,0.25 L1.4425628,0.25 C1.03801795,0.25 0.70890213,0.58122807 0.70890213,0.988304094 L0.70890213,14.4824561 C0.70890213,14.8895614 1.03798889,15.2207602 1.4425628,15.2207602 L2.58852624,15.2207602 C2.72851742,15.2207602 2.84200964,15.1065497 2.84200964,14.9656725 C2.84200964,14.8247953 2.72851742,14.7105848 2.58852624,14.7105848 L1.4425628,14.7105848 C1.31756446,14.7105848 1.21586892,14.6082456 1.21586892,14.4824561 L1.21586892,3.39108187 L12.5392894,3.39108187 L12.5392894,4.71128655 C12.5392894,4.85216374 12.6527526,4.96637427 12.7927728,4.96637427 C12.932793,4.96637427 13.0462562,4.85216374 13.0462562,4.71128655 L13.0462562,0.988304094 C13.0463143,0.58122807 12.7171694,0.25 12.3126246,0.25 Z M2.37810364,0.760204678 L3.60240171,0.760204678 L3.60240171,1.25026316 L2.37810364,1.25026316 L2.37810364,0.760204678 Z M4.58143918,2.88090643 L1.21586892,2.88090643 L1.21586892,0.988304094 C1.21586892,0.86251462 1.31756446,0.760175439 1.4425628,0.760175439 L1.87113686,0.760175439 L1.87113686,1.50532164 C1.87113686,1.64619883 1.98462908,1.76040936 2.12462025,1.76040936 L3.85591416,1.76040936 C3.99590533,1.76040936 4.10939755,1.64619883 4.10939755,1.50532164 L4.10939755,0.760204678 L4.58143918,0.760204678 L4.58143918,2.88090643 Z M12.5393185,2.88090643 L9.17374821,2.88090643 L9.17374821,1.34418129 C9.17374821,1.20330409 9.06028504,1.08909357 8.92026481,1.08909357 C8.78024458,1.08909357 8.66678142,1.20330409 8.66678142,1.34418129 L8.66678142,2.88087719 L5.08840597,2.88087719 L5.08840597,0.760204678 L12.3126246,0.760204678 C12.4376229,0.760204678 12.5393185,0.86254386 12.5393185,0.988333333 L12.5393185,2.88090643 Z" id="Shape" fill="#6D2158" fill-rule="nonzero"></path>
    </g>
</svg>