<?xml version="1.0" encoding="UTF-8"?>
<svg width="14px" height="16px" viewBox="0 0 14 16" version="1.1" xmlns="http://www.w3.org/2000/svg" xmlns:xlink="http://www.w3.org/1999/xlink">
    <!-- Generator: Sketch 53.2 (72643) - https://sketchapp.com -->
    <title>023-shower</title>
    <desc>Created with Sketch.</desc>
    <g id="Page-1" stroke="none" stroke-width="1" fill="none" fill-rule="evenodd">
        <g id="023-shower" transform="translate(0.000000, 0.250000)" fill="#6D2158">
            <path d="M0.75,4.5 C0.6119375,4.5 0.5,4.6119375 0.5,4.75 L0.5,5.5 C0.5,5.6380625 0.6119375,5.75 0.75,5.75 C0.8880625,5.75 1,5.6380625 1,5.5 L1,4.75 C1,4.6119375 0.8880625,4.5 0.75,4.5 Z" id="Path"></path>
            <path d="M1.75,4.5 C1.6119375,4.5 1.5,4.6119375 1.5,4.75 L1.5,5.5 C1.5,5.6380625 1.6119375,5.75 1.75,5.75 C1.8880625,5.75 2,5.6380625 2,5.5 L2,4.75 C2,4.6119375 1.8880625,4.5 1.75,4.5 Z" id="Path"></path>
            <path d="M2.75,4.5 C2.6119375,4.5 2.5,4.6119375 2.5,4.75 L2.5,5.5 C2.5,5.6380625 2.6119375,5.75 2.75,5.75 C2.8880625,5.75 3,5.6380625 3,5.5 L3,4.75 C3,4.6119375 2.8880625,4.5 2.75,4.5 Z" id="Path"></path>
            <path d="M3.75,4.5 C3.6119375,4.5 3.5,4.6119375 3.5,4.75 L3.5,5.5 C3.5,5.6380625 3.6119375,5.75 3.75,5.75 C3.8880625,5.75 4,5.6380625 4,5.5 L4,4.75 C4,4.6119375 3.8880625,4.5 3.75,4.5 Z" id="Path"></path>
            <path d="M4.75,4.5 C4.6119375,4.5 4.5,4.6119375 4.5,4.75 L4.5,5.5 C4.5,5.6380625 4.6119375,5.75 4.75,5.75 C4.8880625,5.75 5,5.6380625 5,5.5 L5,4.75 C5,4.6119375 4.8880625,4.5 4.75,4.5 Z" id="Path"></path>
            <path d="M5.75,4.5 C5.6119375,4.5 5.5,4.6119375 5.5,4.75 L5.5,5.5 C5.5,5.6380625 5.6119375,5.75 5.75,5.75 C5.8880625,5.75 6,5.6380625 6,5.5 L6,4.75 C6,4.6119375 5.8880625,4.5 5.75,4.5 Z" id="Path"></path>
            <path d="M6.75,4.5 C6.6119375,4.5 6.5,4.6119375 6.5,4.75 L6.5,5.5 C6.5,5.6380625 6.6119375,5.75 6.75,5.75 C6.8880625,5.75 7,5.6380625 7,5.5 L7,4.75 C7,4.6119375 6.8880625,4.5 6.75,4.5 Z" id="Path"></path>
            <path d="M7.75,4.5 C7.6119375,4.5 7.5,4.6119375 7.5,4.75 L7.5,5.5 C7.5,5.6380625 7.6119375,5.75 7.75,5.75 C7.8880625,5.75 8,5.6380625 8,5.5 L8,4.75 C8,4.6119375 7.8880625,4.5 7.75,4.5 Z" id="Path"></path>
            <path d="M0.75,6.75 C0.6119375,6.75 0.5,6.8619375 0.5,7 L0.5,7.75 C0.5,7.8880625 0.6119375,8 0.75,8 C0.8880625,8 1,7.8880625 1,7.75 L1,7 C1,6.8619375 0.8880625,6.75 0.75,6.75 Z" id="Path"></path>
            <path d="M1.75,6.75 C1.6119375,6.75 1.5,6.8619375 1.5,7 L1.5,7.75 C1.5,7.8880625 1.6119375,8 1.75,8 C1.8880625,8 2,7.8880625 2,7.75 L2,7 C2,6.8619375 1.8880625,6.75 1.75,6.75 Z" id="Path"></path>
            <path d="M2.75,6.75 C2.6119375,6.75 2.5,6.8619375 2.5,7 L2.5,7.75 C2.5,7.8880625 2.6119375,8 2.75,8 C2.8880625,8 3,7.8880625 3,7.75 L3,7 C3,6.8619375 2.8880625,6.75 2.75,6.75 Z" id="Path"></path>
            <path d="M3.75,6.75 C3.6119375,6.75 3.5,6.8619375 3.5,7 L3.5,7.75 C3.5,7.8880625 3.6119375,8 3.75,8 C3.8880625,8 4,7.8880625 4,7.75 L4,7 C4,6.8619375 3.8880625,6.75 3.75,6.75 Z" id="Path"></path>
            <path d="M4.75,6.75 C4.6119375,6.75 4.5,6.8619375 4.5,7 L4.5,7.75 C4.5,7.8880625 4.6119375,8 4.75,8 C4.8880625,8 5,7.8880625 5,7.75 L5,7 C5,6.8619375 4.8880625,6.75 4.75,6.75 Z" id="Path"></path>
            <path d="M5.75,6.75 C5.6119375,6.75 5.5,6.8619375 5.5,7 L5.5,7.75 C5.5,7.8880625 5.6119375,8 5.75,8 C5.8880625,8 6,7.8880625 6,7.75 L6,7 C6,6.8619375 5.8880625,6.75 5.75,6.75 Z" id="Path"></path>
            <path d="M6.75,6.75 C6.6119375,6.75 6.5,6.8619375 6.5,7 L6.5,7.75 C6.5,7.8880625 6.6119375,8 6.75,8 C6.8880625,8 7,7.8880625 7,7.75 L7,7 C7,6.8619375 6.8880625,6.75 6.75,6.75 Z" id="Path"></path>
            <path d="M7.75,6.75 C7.6119375,6.75 7.5,6.8619375 7.5,7 L7.5,7.75 C7.5,7.8880625 7.6119375,8 7.75,8 C7.8880625,8 8,7.8880625 8,7.75 L8,7 C8,6.8619375 7.8880625,6.75 7.75,6.75 Z" id="Path"></path>
            <path d="M0.75,9 C0.6119375,9 0.5,9.1119375 0.5,9.25 L0.5,10 C0.5,10.1380625 0.6119375,10.25 0.75,10.25 C0.8880625,10.25 1,10.1380625 1,10 L1,9.25 C1,9.1119375 0.8880625,9 0.75,9 Z" id="Path"></path>
            <path d="M1.75,9 C1.6119375,9 1.5,9.1119375 1.5,9.25 L1.5,10 C1.5,10.1380625 1.6119375,10.25 1.75,10.25 C1.8880625,10.25 2,10.1380625 2,10 L2,9.25 C2,9.1119375 1.8880625,9 1.75,9 Z" id="Path"></path>
            <path d="M2.75,9 C2.6119375,9 2.5,9.1119375 2.5,9.25 L2.5,10 C2.5,10.1380625 2.6119375,10.25 2.75,10.25 C2.8880625,10.25 3,10.1380625 3,10 L3,9.25 C3,9.1119375 2.8880625,9 2.75,9 Z" id="Path"></path>
            <path d="M3.75,9 C3.6119375,9 3.5,9.1119375 3.5,9.25 L3.5,10 C3.5,10.1380625 3.6119375,10.25 3.75,10.25 C3.8880625,10.25 4,10.1380625 4,10 L4,9.25 C4,9.1119375 3.8880625,9 3.75,9 Z" id="Path"></path>
            <path d="M4.75,9 C4.6119375,9 4.5,9.1119375 4.5,9.25 L4.5,10 C4.5,10.1380625 4.6119375,10.25 4.75,10.25 C4.8880625,10.25 5,10.1380625 5,10 L5,9.25 C5,9.1119375 4.8880625,9 4.75,9 Z" id="Path"></path>
            <path d="M5.75,9 C5.6119375,9 5.5,9.1119375 5.5,9.25 L5.5,10 C5.5,10.1380625 5.6119375,10.25 5.75,10.25 C5.8880625,10.25 6,10.1380625 6,10 L6,9.25 C6,9.1119375 5.8880625,9 5.75,9 Z" id="Path"></path>
            <path d="M6.75,9 C6.6119375,9 6.5,9.1119375 6.5,9.25 L6.5,10 C6.5,10.1380625 6.6119375,10.25 6.75,10.25 C6.8880625,10.25 7,10.1380625 7,10 L7,9.25 C7,9.1119375 6.8880625,9 6.75,9 Z" id="Path"></path>
            <path d="M7.75,9 C7.6119375,9 7.5,9.1119375 7.5,9.25 L7.5,10 C7.5,10.1380625 7.6119375,10.25 7.75,10.25 C7.8880625,10.25 8,10.1380625 8,10 L8,9.25 C8,9.1119375 7.8880625,9 7.75,9 Z" id="Path"></path>
            <path d="M0.75,11.25 C0.6119375,11.25 0.5,11.3619375 0.5,11.5 L0.5,12.25 C0.5,12.3880625 0.6119375,12.5 0.75,12.5 C0.8880625,12.5 1,12.3880625 1,12.25 L1,11.5 C1,11.3619375 0.8880625,11.25 0.75,11.25 Z" id="Path"></path>
            <path d="M1.75,11.25 C1.6119375,11.25 1.5,11.3619375 1.5,11.5 L1.5,12.25 C1.5,12.3880625 1.6119375,12.5 1.75,12.5 C1.8880625,12.5 2,12.3880625 2,12.25 L2,11.5 C2,11.3619375 1.8880625,11.25 1.75,11.25 Z" id="Path"></path>
            <path d="M2.75,11.25 C2.6119375,11.25 2.5,11.3619375 2.5,11.5 L2.5,12.25 C2.5,12.3880625 2.6119375,12.5 2.75,12.5 C2.8880625,12.5 3,12.3880625 3,12.25 L3,11.5 C3,11.3619375 2.8880625,11.25 2.75,11.25 Z" id="Path"></path>
            <path d="M3.75,11.25 C3.6119375,11.25 3.5,11.3619375 3.5,11.5 L3.5,12.25 C3.5,12.3880625 3.6119375,12.5 3.75,12.5 C3.8880625,12.5 4,12.3880625 4,12.25 L4,11.5 C4,11.3619375 3.8880625,11.25 3.75,11.25 Z" id="Path"></path>
            <path d="M4.75,11.25 C4.6119375,11.25 4.5,11.3619375 4.5,11.5 L4.5,12.25 C4.5,12.3880625 4.6119375,12.5 4.75,12.5 C4.8880625,12.5 5,12.3880625 5,12.25 L5,11.5 C5,11.3619375 4.8880625,11.25 4.75,11.25 Z" id="Path"></path>
            <path d="M5.75,11.25 C5.6119375,11.25 5.5,11.3619375 5.5,11.5 L5.5,12.25 C5.5,12.3880625 5.6119375,12.5 5.75,12.5 C5.8880625,12.5 6,12.3880625 6,12.25 L6,11.5 C6,11.3619375 5.8880625,11.25 5.75,11.25 Z" id="Path"></path>
            <path d="M6.75,11.25 C6.6119375,11.25 6.5,11.3619375 6.5,11.5 L6.5,12.25 C6.5,12.3880625 6.6119375,12.5 6.75,12.5 C6.8880625,12.5 7,12.3880625 7,12.25 L7,11.5 C7,11.3619375 6.8880625,11.25 6.75,11.25 Z" id="Path"></path>
            <path d="M7.75,11.25 C7.6119375,11.25 7.5,11.3619375 7.5,11.5 L7.5,12.25 C7.5,12.3880625 7.6119375,12.5 7.75,12.5 C7.8880625,12.5 8,12.3880625 8,12.25 L8,11.5 C8,11.3619375 7.8880625,11.25 7.75,11.25 Z" id="Path"></path>
            <path d="M0.75,13.5 C0.6119375,13.5 0.5,13.6119375 0.5,13.75 L0.5,14.5 C0.5,14.6380625 0.6119375,14.75 0.75,14.75 C0.8880625,14.75 1,14.6380625 1,14.5 L1,13.75 C1,13.6119375 0.8880625,13.5 0.75,13.5 Z" id="Path"></path>
            <path d="M1.75,13.5 C1.6119375,13.5 1.5,13.6119375 1.5,13.75 L1.5,14.5 C1.5,14.6380625 1.6119375,14.75 1.75,14.75 C1.8880625,14.75 2,14.6380625 2,14.5 L2,13.75 C2,13.6119375 1.8880625,13.5 1.75,13.5 Z" id="Path"></path>
            <path d="M2.75,13.5 C2.6119375,13.5 2.5,13.6119375 2.5,13.75 L2.5,14.5 C2.5,14.6380625 2.6119375,14.75 2.75,14.75 C2.8880625,14.75 3,14.6380625 3,14.5 L3,13.75 C3,13.6119375 2.8880625,13.5 2.75,13.5 Z" id="Path"></path>
            <path d="M3.75,13.5 C3.6119375,13.5 3.5,13.6119375 3.5,13.75 L3.5,14.5 C3.5,14.6380625 3.6119375,14.75 3.75,14.75 C3.8880625,14.75 4,14.6380625 4,14.5 L4,13.75 C4,13.6119375 3.8880625,13.5 3.75,13.5 Z" id="Path"></path>
            <path d="M4.75,13.5 C4.6119375,13.5 4.5,13.6119375 4.5,13.75 L4.5,14.5 C4.5,14.6380625 4.6119375,14.75 4.75,14.75 C4.8880625,14.75 5,14.6380625 5,14.5 L5,13.75 C5,13.6119375 4.8880625,13.5 4.75,13.5 Z" id="Path"></path>
            <path d="M5.75,13.5 C5.6119375,13.5 5.5,13.6119375 5.5,13.75 L5.5,14.5 C5.5,14.6380625 5.6119375,14.75 5.75,14.75 C5.8880625,14.75 6,14.6380625 6,14.5 L6,13.75 C6,13.6119375 5.8880625,13.5 5.75,13.5 Z" id="Path"></path>
            <path d="M6.75,13.5 C6.6119375,13.5 6.5,13.6119375 6.5,13.75 L6.5,14.5 C6.5,14.6380625 6.6119375,14.75 6.75,14.75 C6.8880625,14.75 7,14.6380625 7,14.5 L7,13.75 C7,13.6119375 6.8880625,13.5 6.75,13.5 Z" id="Path"></path>
            <path d="M7.75,13.5 C7.6119375,13.5 7.5,13.6119375 7.5,13.75 L7.5,14.5 C7.5,14.6380625 7.6119375,14.75 7.75,14.75 C7.8880625,14.75 8,14.6380625 8,14.5 L8,13.75 C8,13.6119375 7.8880625,13.5 7.75,13.5 Z" id="Path"></path>
            <path d="M13.25,0 C13.1119375,0 13,0.1119375 13,0.25 L13,5.5 L12.25,5.5 L12.25,1.5 C12.2491875,0.67190625 11.5780938,0.0008125 10.75,0 L5.25,0 C4.42190625,0.0008125 3.7508125,0.67190625 3.75,1.5 L3.75,2.25 L0.75,2.25 C0.33578125,2.25 0,2.58578125 0,3 L0,3.5 C0,3.6380625 0.1119375,3.75 0.25,3.75 L8.25,3.75 C8.3880625,3.75 8.5,3.6380625 8.5,3.5 L8.5,3 C8.5,2.58578125 8.16421875,2.25 7.75,2.25 L4.25,2.25 L4.25,1.5 C4.25,0.94771875 4.69771875,0.5 5.25,0.5 L10.75,0.5 C11.3022813,0.5 11.75,0.94771875 11.75,1.5 L11.75,13 L11.25,13 L11.25,12.875 C11.25,12.39175 10.85825,12 10.375,12 C9.89175,12 9.5,12.39175 9.5,12.875 L9.5,13.625 C9.5,14.10825 9.89175,14.5 10.375,14.5 C10.85825,14.5 11.25,14.10825 11.25,13.625 L11.25,13.5 L11.75,13.5 L11.75,14.75 C11.75,14.8880625 11.8619375,15 12,15 C12.1380625,15 12.25,14.8880625 12.25,14.75 L12.25,13.5 L13,13.5 L13,14.75 C13,14.8880625 13.1119375,15 13.25,15 C13.3880625,15 13.5,14.8880625 13.5,14.75 L13.5,0.25 C13.5,0.1119375 13.3880625,0 13.25,0 Z M7.75,2.75 C7.8880625,2.75 8,2.8619375 8,3 L8,3.25 L0.5,3.25 L0.5,3 C0.5,2.8619375 0.6119375,2.75 0.75,2.75 L7.75,2.75 Z M10.75,13.625 C10.75,13.8320938 10.5820937,14 10.375,14 C10.1679062,14 10,13.8320938 10,13.625 L10,12.875 C10,12.6679062 10.1679062,12.5 10.375,12.5 C10.5820937,12.5 10.75,12.6679062 10.75,12.875 L10.75,13.625 Z M13,13 L12.25,13 L12.25,6 L13,6 L13,13 Z" id="Shape" fill-rule="nonzero"></path>
        </g>
    </g>
</svg>