<?xml version="1.0" encoding="UTF-8"?>
<svg width="19px" height="16px" viewBox="0 0 19 16" version="1.1" xmlns="http://www.w3.org/2000/svg" xmlns:xlink="http://www.w3.org/1999/xlink">
    <!-- Generator: Sketch 53.2 (72643) - https://sketchapp.com -->
    <title>016-single-bed</title>
    <desc>Created with Sketch.</desc>
    <g id="Page-1" stroke="none" stroke-width="1" fill="none" fill-rule="evenodd">
        <g id="016-single-bed" transform="translate(-0.024390, 0.500000)" fill="#6D2158" fill-rule="nonzero">
            <path d="M18.4018243,9.58295122 L18.153718,9.58295122 L18.153718,8.17467073 C18.153718,7.56413415 17.7511656,7.04608537 17.1982534,6.87336585 L17.1982534,1.54339024 C17.1982534,0.694829268 16.509795,0.00446341463 15.6634971,0.00446341463 L3.09023676,0.00446341463 C2.2440119,0.00446341463 1.55548047,0.694792683 1.55548047,1.54339024 L1.55548047,3.56989024 C1.55548047,3.74465854 1.69675511,3.88635366 1.87108626,3.88635366 C2.04541741,3.88635366 2.18669205,3.74465854 2.18669205,3.56989024 L2.18669205,1.54339024 C2.18669205,1.04381707 2.59201745,0.637390244 3.09023676,0.637390244 L15.6634606,0.637390244 C16.16168,0.637390244 16.5670054,1.04381707 16.5670054,1.54339024 L16.5670054,6.81204878 L11.7076978,6.81204878 C12.4555558,6.37134146 13.077208,5.71752439 13.4857807,4.90284146 C13.5306222,4.81339024 13.5306222,4.70795122 13.4857807,4.6185 C12.6993932,3.0504878 11.1249034,2.07636585 9.37681221,2.07636585 C7.628721,2.07636585 6.0542677,3.05045122 5.26784374,4.6185 C5.22300218,4.70795122 5.22300218,4.81339024 5.26784374,4.90284146 C5.42327503,5.21279268 5.61438985,5.50587805 5.83578822,5.77397561 C5.94699822,5.90860976 6.14595756,5.92726829 6.28015388,5.81586585 C6.41438667,5.70439024 6.4331041,5.50489024 6.3219306,5.37029268 C6.16500337,5.18023171 6.02569899,4.97568293 5.90664446,4.76052439 C6.60707039,3.49104878 7.92228911,2.7092561 9.37681221,2.7092561 C10.8312623,2.7092561 12.146554,3.49119512 12.8470165,4.76067073 C12.146554,6.03014634 10.8312988,6.81208537 9.37681221,6.81208537 C8.57298433,6.81208537 7.79914813,6.57219512 7.13878406,6.11835366 C6.99499187,6.0195 6.79862304,6.05626829 6.70000079,6.20045122 C6.60145152,6.34463415 6.63808368,6.54153659 6.78187587,6.64035366 C6.87017252,6.7010122 6.96032996,6.75797561 7.05194686,6.81204878 L2.18672853,6.81204878 L2.18672853,4.62482927 C2.18672853,4.45006098 2.0454539,4.30836585 1.87112274,4.30836585 C1.69679159,4.30836585 1.55551695,4.45006098 1.55551695,4.62482927 L1.55551695,6.87340244 C1.00267777,7.04615854 0.600161808,7.56417073 0.600161808,8.17467073 L0.600161808,9.58295122 L0.352055523,9.58295122 C0.17772437,9.58295122 0.0364497323,9.72464634 0.0364497323,9.89941463 L0.0364497323,12.6703171 C0.0364497323,12.8450854 0.17772437,12.9867805 0.352055523,12.9867805 L1.7039064,12.9867805 L1.7039064,14.679 C1.7039064,14.8537683 1.84518104,14.9954634 2.0195122,14.9954634 L4.02267856,14.9954634 C4.19700972,14.9954634 4.33828435,14.8537683 4.33828435,14.679 L4.33828435,12.9867805 L5.88475273,12.9867805 C6.05908388,12.9867805 6.20035852,12.8450854 6.20035852,12.6703171 C6.20035852,12.4955488 6.05908388,12.3538537 5.88475273,12.3538537 L0.667697799,12.3538537 L0.667697799,10.215878 L14.2148118,10.215878 C14.389143,10.215878 14.5304176,10.0741829 14.5304176,9.89941463 C14.5304176,9.72464634 14.389143,9.58295122 14.2148118,9.58295122 L1.23140988,9.58295122 L1.23140988,8.17467073 C1.23140988,7.77230488 1.55785207,7.44497561 1.9591275,7.44497561 L16.7947888,7.44497561 C17.1960642,7.44497561 17.5225064,7.77230488 17.5225064,8.17467073 L17.5225064,9.58295122 L15.2410232,9.58295122 C15.066692,9.58295122 14.9254174,9.72464634 14.9254174,9.89941463 C14.9254174,10.0741829 15.066692,10.215878 15.2410232,10.215878 L18.0862185,10.215878 L18.0862185,12.3538537 L6.91103708,12.3538537 C6.73670593,12.3538537 6.59543129,12.4955488 6.59543129,12.6703171 C6.59543129,12.8450854 6.73670593,12.9867805 6.91103708,12.9867805 L14.4155225,12.9867805 L14.4155225,14.679 C14.4155225,14.8537683 14.5567971,14.9954634 14.7311283,14.9954634 L16.7343676,14.9954634 C16.9086988,14.9954634 17.0499734,14.8537683 17.0499734,14.679 L17.0499734,12.9867805 L18.4018243,12.9867805 C18.5761555,12.9867805 18.7174301,12.8450854 18.7174301,12.6703171 L18.7174301,9.89941463 C18.7174301,9.72464634 18.576119,9.58295122 18.4018243,9.58295122 Z M2.33515447,12.9867805 L3.70714575,12.9867805 L3.70714575,14.3625366 L2.33515447,14.3625366 L2.33515447,12.9867805 Z M16.4187618,14.3625366 L15.0467341,14.3625366 L15.0467341,12.9867805 L16.4187618,12.9867805 L16.4187618,14.3625366 Z" id="Shape"></path>
            <g id="016-single-bed-copy" transform="translate(4.487805, 1.500000)">
                <path d="M7.21989292,5.31204878 C7.96775094,4.87134146 8.58940313,4.21752439 8.99797581,3.40284146 C9.04281737,3.31339024 9.04281737,3.20795122 8.99797581,3.1185 C8.21158834,1.5504878 6.63709855,0.576365854 4.88900734,0.576365854 C3.14091612,0.576365854 1.56646282,1.55045122 0.780038866,3.1185 C0.735197303,3.20795122 0.735197303,3.31339024 0.780038866,3.40284146 C0.935470157,3.71279268 1.12658497,4.00587805 1.34798334,4.27397561 C1.45919334,4.40860976 1.65815269,4.42726829 1.792349,4.31586585 C1.9265818,4.20439024 1.94529923,4.00489024 1.83412572,3.87029268 C1.67719849,3.68023171 1.53789411,3.47568293 1.41883958,3.26052439 C2.11926552,1.99104878 3.43448424,1.2092561 4.88900734,1.2092561 C6.34345747,1.2092561 7.65874916,1.99119512 8.35921158,3.26067073 C7.65874916,4.53014634 6.34349395,5.31208537 4.88900734,5.31208537 C4.08517946,5.31208537 3.31134325,5.07219512 2.65097918,4.61835366 C2.50718699,4.5195 2.31081816,4.55626829 2.21219592,4.70045122 C2.11364664,4.84463415 2.1502788,5.04153659 2.29407099,5.14035366 C2.38236764,5.2010122 2.47252508,5.25797561 2.56414198,5.31204878 L7.21989292,5.31204878 Z" id="Shape"></path>
            </g>
        </g>
    </g>
</svg>