<?xml version="1.0" encoding="UTF-8"?>
<svg width="18px" height="15px" viewBox="0 0 18 15" version="1.1" xmlns="http://www.w3.org/2000/svg" xmlns:xlink="http://www.w3.org/1999/xlink">
    <!-- Generator: Sketch 53.2 (72643) - https://sketchapp.com -->
    <title>003-spa</title>
    <desc>Created with Sketch.</desc>
    <g id="Page-1" stroke="none" stroke-width="1" fill="none" fill-rule="evenodd">
        <g id="003-spa" transform="translate(0.782609, 0.000000)" fill="#6D2158">
            <path d="M16.1319794,12.244966 L15.828206,12.244966 C16.5834697,11.5135034 16.5999093,10.3111905 15.8649131,9.55955782 C15.748298,9.44030612 15.6164396,9.33683673 15.4727556,9.25176871 C16.0503625,8.9085034 16.4044458,8.28863946 16.4054027,7.61911565 C16.4040356,6.56772109 15.5479128,5.71571429 14.4914391,5.71435374 L12.0306287,5.71435374 L12.0306287,3.80959184 C12.0305603,3.65931973 11.9081008,3.53751701 11.7571028,3.53758503 C11.7432265,3.53758503 11.7293503,3.53863946 11.7156449,3.5407483 L8.47612475,4.03653061 L8.47612475,3.78238095 C9.11221006,3.65221088 9.568998,3.09534014 9.56981827,2.44904762 C9.56981827,1.26156463 8.44413421,0.127414966 8.3960117,0.0797959184 C8.28923987,-0.0264285714 8.11616287,-0.0264285714 8.00939104,0.0797959184 C7.96126853,0.127414966 6.83558448,1.26156463 6.83558448,2.44904762 C6.83640475,3.09534014 7.29319268,3.65221088 7.92927799,3.78238095 L7.92927799,4.12061224 L4.60663709,4.62945578 C4.47337737,4.64986395 4.37494495,4.76384354 4.37477406,4.89802721 L4.37477406,7.92959184 C4.17507246,7.7152381 3.94474744,7.53129252 3.69121562,7.3837415 C3.60662526,7.33513605 3.5023826,7.33513605 3.41779224,7.3837415 C2.610373,7.85064626 2.06530349,8.66292517 1.94130599,9.58401361 C1.75233626,9.54544218 1.56001709,9.52530612 1.3671169,9.52387755 C1.24643465,9.52442177 1.1259233,9.53221088 1.00619803,9.54727891 C0.909201091,9.55891156 0.825841138,9.62115646 0.787459332,9.71054422 C0.230290841,11.0112245 0.664521345,12.522483 1.82838214,13.3334014 L0,13.3334014 L0,13.877619 L0.651294489,13.877619 L1.12240297,14.8155782 C1.16871406,14.9078231 1.26348943,14.9660884 1.3671169,14.9660544 L11.7572053,14.9660544 C11.9082034,14.9660544 12.0306287,14.8442177 12.0306287,14.6939456 L12.0306287,13.877619 L13.7756167,13.877619 L14.2467252,14.8155782 C14.2930362,14.9078231 14.3878116,14.9660884 14.4914391,14.9660544 L15.5851326,14.9660544 C15.7361307,14.9660544 15.858556,14.8442177 15.858556,14.6939456 L15.858556,13.877619 L16.1319794,13.877619 C16.2829774,13.877619 16.4054027,13.7557823 16.4054027,13.6055102 L16.4054027,12.5170748 C16.4054027,12.3668027 16.2829774,12.244966 16.1319794,12.244966 Z M15.858556,10.8844218 C15.8576674,11.6354422 15.2460876,12.2440816 14.4914391,12.244966 L9.56981827,12.244966 C8.81479378,12.244966 8.20270137,11.6358163 8.20270137,10.8844218 C8.20270137,10.1330272 8.81479378,9.52387755 9.56981827,9.52387755 L13.1243222,9.52387755 C13.5773506,9.52387755 13.9445923,9.88935374 13.9445923,10.3402041 C13.9445923,10.7910544 13.5773506,11.1565306 13.1243222,11.1565306 L10.3900884,11.1565306 C10.2390903,11.1565306 10.116665,11.0346939 10.116665,10.8844218 C10.116665,10.7341497 10.2390903,10.6123129 10.3900884,10.6123129 L12.3040521,10.6123129 L12.3040521,10.0680952 L10.3900884,10.0680952 C9.93706004,10.0680952 9.56981827,10.4335714 9.56981827,10.8844218 C9.56981827,11.3352721 9.93706004,11.7007483 10.3900884,11.7007483 L13.1243222,11.7007483 C13.8789707,11.6998639 14.4905505,11.0912245 14.4914391,10.3402041 C14.4904479,10.0448299 14.3918446,9.7579932 14.2109067,9.52387755 L14.4914391,9.52387755 C15.2460876,9.5247619 15.8576674,10.1334014 15.858556,10.8844218 Z M13.671169,6.25857143 C14.1241973,6.25857143 14.4914391,6.62404762 14.4914391,7.07489796 C14.4914391,7.5257483 14.1241973,7.89122449 13.671169,7.89122449 L10.9369352,7.89122449 C10.7859371,7.89122449 10.6635118,7.76938776 10.6635118,7.61911565 C10.6635118,7.46884354 10.7859371,7.3470068 10.9369352,7.3470068 L12.8508988,7.3470068 L12.8508988,6.80278912 L10.9369352,6.80278912 C10.4839068,6.80278912 10.116665,7.16826531 10.116665,7.61911565 C10.116665,8.06996599 10.4839068,8.43544218 10.9369352,8.43544218 L13.671169,8.43544218 C14.4258175,8.43455782 15.0373972,7.82591837 15.0382858,7.07489796 C15.0380124,6.79421769 14.9496967,6.52064626 14.7856426,6.29231293 C15.5219718,6.45857143 15.9834763,7.18738095 15.8164146,7.92017007 C15.6758408,8.53687075 15.1268408,8.97585034 14.4914391,8.97965986 L13.1243222,8.97965986 L10.6635118,8.97965986 C9.9084873,8.97965986 9.29639489,8.3705102 9.29639489,7.61911565 C9.29639489,6.86772109 9.9084873,6.25857143 10.6635118,6.25857143 L13.671169,6.25857143 Z M7.38243123,2.44904762 C7.38243123,1.75326531 7.90877124,1.02972789 8.20270137,0.680340136 C8.49690493,1.02945578 9.02297151,1.75163265 9.02297151,2.44904762 C9.02153603,2.7937415 8.8026948,3.10040816 8.47612475,3.21530612 L8.47612475,2.72115646 L7.92927799,2.72115646 L7.92927799,3.21530612 C7.60270794,3.10040816 7.38386671,2.7937415 7.38243123,2.44904762 Z M3.55450393,7.93965986 C4.16536593,8.34880952 4.56090703,9.00795918 4.63315916,9.73721088 C4.22534819,9.89928571 3.85807223,10.1480952 3.55696474,10.4661905 C3.25366985,10.1493197 2.88465083,9.90204082 2.47557527,9.74156463 C2.54656282,9.01064626 2.94234316,8.34965986 3.55450393,7.93965986 Z M4.92606395,10.2065306 C5.18820862,10.114898 5.46402445,10.0680952 5.74189096,10.0680952 C5.78481843,10.0680952 5.82965986,10.0697279 5.87641526,10.0727211 C6.32688028,11.3488095 5.65258405,12.7466667 4.37033093,13.194966 C4.10818627,13.2865986 3.83233626,13.3334014 3.55450393,13.3334014 C3.51157646,13.3334014 3.46673502,13.3317687 3.41997962,13.3287755 C2.96951461,12.0526871 3.64381084,10.6548299 4.92606395,10.2065306 Z M1.09369352,10.8844218 C1.09335174,10.6079592 1.1403122,10.3334694 1.23259259,10.0727211 C1.27934799,10.0697279 1.32418942,10.0680952 1.3671169,10.0680952 C2.07514674,10.0659864 2.74903283,10.3706122 3.21327155,10.9026531 C2.76489139,11.5885034 2.62325808,12.4290136 2.82227612,13.2229252 C1.79389661,12.9039456 1.09348845,11.9564286 1.09369352,10.8844218 Z M5.57291531,14.4218367 L1.53609254,14.4218367 L1.26266916,13.877619 L5.84633869,13.877619 L5.57291531,14.4218367 Z M8.20270137,14.4218367 L6.18428999,14.4218367 L6.45771337,13.877619 L7.10900785,13.877619 L7.10900785,13.3334014 L5.27843833,13.3334014 C6.44359788,12.5236054 6.87892208,11.0118707 6.32154852,9.71081633 C6.28316672,9.62142857 6.19980676,9.55918367 6.10280982,9.54755102 C5.79168819,9.5077551 5.47608926,9.51877551 5.16852213,9.58020408 C5.12586809,9.27755102 5.03669789,8.98323129 4.90412173,8.70755102 L4.92162082,8.70755102 L4.92162082,5.1314966 L11.4837819,4.12687075 L11.4837819,5.71435374 L10.6635118,5.71435374 C9.60782412,5.71295918 8.75088107,6.56353741 8.74947977,7.61414966 C8.74879621,8.13571429 8.96329685,8.63469388 9.34287686,8.99435374 C8.29474252,9.11741497 7.54535739,10.0627891 7.66901311,11.1058844 C7.72031417,11.5386735 7.91943475,11.9408163 8.23305137,12.244966 L7.92927799,12.244966 C7.77827993,12.244966 7.65585461,12.3668027 7.65585461,12.5170748 L7.65585461,13.6055102 C7.65585461,13.7557823 7.77827993,13.877619 7.92927799,13.877619 L8.20270137,13.877619 L8.20270137,14.4218367 Z M9.40084262,14.4218367 L8.74954813,14.4218367 L8.74954813,13.877619 L9.674266,13.877619 L9.40084262,14.4218367 Z M11.4837819,14.4218367 L10.0122173,14.4218367 L10.2856407,13.877619 L11.4837819,13.877619 L11.4837819,14.4218367 Z M15.3117092,14.4218367 L14.6604147,14.4218367 L14.3869914,13.877619 L15.3117092,13.877619 L15.3117092,14.4218367 Z M15.858556,13.3334014 L8.20270137,13.3334014 L8.20270137,12.7891837 L15.858556,12.7891837 L15.858556,13.3334014 Z" id="Shape" fill-rule="nonzero"></path>
            <rect id="Rectangle" x="5.46846758" y="5.71435374" width="1" height="2.17687075" rx="0.362811791"></rect>
            <rect id="Rectangle" x="5.46846758" y="8.43544218" width="1" height="1" rx="0.362811791"></rect>
        </g>
    </g>
</svg>