<?xml version="1.0" encoding="UTF-8"?>
<svg width="20px" height="16px" viewBox="0 0 20 16" version="1.1" xmlns="http://www.w3.org/2000/svg" xmlns:xlink="http://www.w3.org/1999/xlink">
    <!-- Generator: Sketch 53.2 (72643) - https://sketchapp.com -->
    <title>004-telephone</title>
    <desc>Created with Sketch.</desc>
    <g id="Page-1" stroke="none" stroke-width="1" fill="none" fill-rule="evenodd">
        <g id="004-telephone" transform="translate(0.514851, 0.750000)" fill="#6D2158">
            <path d="M18.4895648,2.9154878 L18.4131794,2.73285366 C18.0224429,1.79820732 17.202098,1.08856098 16.2202096,0.83495122 C16.1794658,0.824231707 16.1387588,0.81395122 16.098382,0.803890244 C15.5941869,0.676792683 15.0620951,0.563231707 14.5168259,0.466353659 C14.343573,0.43554878 14.1773678,0.550756098 14.1464612,0.723804878 C14.1155547,0.896853659 14.2311422,1.06210976 14.4047621,1.09295122 C14.9351654,1.18719512 15.4522811,1.29757317 15.9426747,1.42115854 C15.981106,1.4307439 16.0190968,1.44029268 16.0585559,1.45068293 C16.8496093,1.65504878 17.5095117,2.22589024 17.8238261,2.97771951 L17.9002115,3.16035366 C17.9966385,3.39102439 18.0650954,3.62970732 18.1067568,3.8717561 L13.8075537,2.97669512 L13.6748979,2.19354878 C13.6542323,2.07160976 13.5645593,1.97264634 13.4450075,1.9397561 C12.3293987,1.6329878 10.8917672,1.464 9.39702101,1.464 C7.90183434,1.464 6.46420285,1.63295122 5.34903453,1.9397561 C5.22940932,1.97264634 5.139773,2.07164634 5.11914417,2.19354878 L4.98637817,2.97654878 L3.88519488,3.20579268 C3.71256605,3.24171951 3.60186042,3.41030488 3.63790582,3.58236585 C3.66936296,3.73247561 3.80209225,3.83560976 3.95012799,3.83560976 C3.97174789,3.83560976 3.99373485,3.83341463 4.01572181,3.82880488 L4.87207534,3.6504878 L4.73116059,4.48130488 L0.750162763,5.27509756 C0.684825887,5.0307439 0.648927312,4.78126829 0.640998793,4.53139024 L2.7534354,4.09156098 C2.92606424,4.05563415 3.03676986,3.88704878 3.00072446,3.7149878 C2.96467906,3.54296341 2.79553731,3.43269512 2.62290848,3.46854878 L0.686954842,3.87160976 C0.728689688,3.62956098 0.797073171,3.3909878 0.893463415,3.16035366 L0.969812123,2.97771951 C1.28397972,2.22585366 1.94380874,1.6550122 2.73640377,1.4502439 C2.77296305,1.44062195 2.81003622,1.43136585 2.84710939,1.42210976 C2.84740304,1.42207317 2.85173436,1.42097561 2.85199131,1.42086585 C5.92755953,0.645621951 9.69290896,0.458121951 13.1825588,0.906402439 C13.3578305,0.928939024 13.5175021,0.805792683 13.5400396,0.631426829 C13.5625772,0.457097561 13.4390611,0.297585366 13.2642299,0.275121951 C9.69801111,-0.182963415 5.84581502,0.00969512195 2.69209949,0.804621951 C2.65223666,0.814536585 2.61244723,0.824487805 2.57463994,0.834439024 C1.59120985,1.0884878 0.770938421,1.79820732 0.380348708,2.73285366 L0.303963294,2.9154878 C-0.0742197537,3.82035366 -0.100354504,4.82714634 0.230330838,5.75030488 C0.283628109,5.89902439 0.438050712,5.98642683 0.593758029,5.95536585 L5.07182999,5.06242683 C5.2016228,5.03656098 5.30194059,4.93353659 5.32403767,4.80340244 L5.71440715,2.50170732 C6.74672978,2.24231707 8.04440087,2.10032927 9.39691089,2.10032927 C10.7490539,2.10032927 12.0467249,2.24235366 13.0794146,2.5017439 L13.4693436,4.80332927 C13.491404,4.93346341 13.5917218,5.03652439 13.721588,5.06242683 L17.6169138,5.83895122 C17.6224197,5.84034146 17.627999,5.84162195 17.6336151,5.84271951 L18.1998802,5.95543902 C18.2208761,5.95960976 18.241872,5.96162195 18.2625743,5.96162195 C18.3951567,5.96162195 18.517021,5.87897561 18.5630872,5.75037805 C18.8939928,4.82729268 18.867858,3.82046341 18.4895648,2.9154878 Z M18.0432185,5.2752439 L17.7751905,5.22193902 C17.769758,5.22054878 17.7642521,5.21930488 17.7586728,5.21820732 L14.0623675,4.48137805 L13.9216363,3.65059756 L18.152566,4.53146341 C18.1446008,4.78137805 18.1086655,5.03089024 18.0432185,5.2752439 Z" id="Shape" fill-rule="nonzero"></path>
            <path d="M17.2072369,14.6226951 L17.0636059,13.0007561 C17.0490336,12.8364512 16.9110186,12.7105244 16.7455475,12.7105244 L16.3128925,12.7105244 L16.072908,10.9053659 C16.0497831,10.7311463 15.8894509,10.6085488 15.7144361,10.6316707 C15.5396416,10.6547561 15.4166762,10.8147073 15.4398744,10.9889634 L15.668737,12.7105244 L3.12497464,12.7105244 L3.89459164,6.91902439 C3.92432359,6.69545122 4.09298817,6.51354878 4.31421589,6.46639024 L5.53601546,6.20608537 C6.01018498,6.10510976 6.37816373,5.71628049 6.45183289,5.23862195 L6.55795025,4.54990244 C6.59843709,4.28714634 6.82142671,4.09642683 7.0881333,4.09642683 L11.7053581,4.09642683 C11.9721014,4.09642683 12.1951277,4.28721951 12.2355412,4.54997561 L12.3415117,5.23840244 C12.415034,5.71613415 12.7830128,6.10503659 13.2573291,6.20612195 L14.4789819,6.46639024 C14.700283,6.51354878 14.8689109,6.69545122 14.8986428,6.91902439 L15.3000609,9.93852439 C15.3231857,10.1127439 15.484142,10.2354146 15.6585327,10.2122195 C15.8333272,10.1891341 15.9562927,10.0291829 15.9330944,9.85492683 L15.5316764,6.83539024 C15.4665231,6.34569512 15.0971495,5.94728049 14.6124453,5.844 L13.3907926,5.58373171 C13.1742632,5.53759756 13.0062227,5.36008537 12.9726733,5.14196341 L12.8667027,4.45353659 C12.7780942,3.87786585 12.289646,3.4599878 11.7053214,3.4599878 L11.5886694,3.4599878 L11.5886694,3.0435 C11.5886694,2.8677439 11.4457725,2.7252439 11.269363,2.7252439 C11.0929901,2.7252439 10.9500565,2.8677439 10.9500565,3.0435 L10.9500565,3.4599878 L7.84347163,3.4599878 L7.84347163,3.0435 C7.84347163,2.8677439 7.70053803,2.7252439 7.52416518,2.7252439 C7.34779232,2.7252439 7.20485873,2.8677439 7.20485873,3.0435 L7.20485873,3.4599878 L7.0880966,3.4599878 C6.50384545,3.4599878 6.01543395,3.87771951 5.92671529,4.45328049 L5.82059792,5.142 C5.78701183,5.36004878 5.61897126,5.53756098 5.40255204,5.58369512 L4.18075248,5.844 C3.69601159,5.94728049 3.32663801,6.34573171 3.26148467,6.83546341 L2.48074571,12.7104878 L2.04823762,12.7104878 C1.88276648,12.7104878 1.74475151,12.8364512 1.73017918,13.0007195 L1.58654818,14.6226951 C1.57861966,14.7116341 1.60864525,14.7997683 1.66910022,14.865622 C1.72959189,14.931439 1.81504371,14.968939 1.90456991,14.968939 L4.29667037,14.968939 C4.47304323,14.968939 4.61597682,14.826439 4.61597682,14.6506829 C4.61597682,14.4749268 4.47304323,14.3324268 4.29667037,14.3324268 L2.25335136,14.3324268 L2.34063849,13.3469268 L16.45322,13.3469268 L16.5405438,14.3324268 L5.36103743,14.3324268 C5.18466457,14.3324268 5.04173098,14.4749268 5.04173098,14.6506829 C5.04173098,14.826439 5.18462787,14.968939 5.36103743,14.968939 L16.8892152,14.968939 C16.9787781,14.968939 17.0642299,14.931439 17.1246849,14.8655854 C17.1851765,14.7997317 17.2151287,14.7115976 17.2072369,14.6226951 Z" id="Path"></path>
            <path d="M9.39691089,5.45813415 C7.61930741,5.45813415 6.17308669,6.89956098 6.17308669,8.67135366 C6.17308669,10.4431098 7.61930741,11.8845366 9.39691089,11.8845366 C11.1745144,11.8845366 12.6207351,10.4431098 12.6207351,8.67135366 C12.6206984,6.89959756 11.1745144,5.45813415 9.39691089,5.45813415 Z M9.39691089,11.248061 C7.97142912,11.248061 6.81166288,10.0921463 6.81166288,8.67135366 C6.81166288,7.25056098 7.97139242,6.09460976 9.39691089,6.09460976 C10.8224294,6.09460976 11.9821589,7.25052439 11.9821589,8.67135366 C11.9821222,10.0921829 10.8223927,11.248061 9.39691089,11.248061 Z" id="Shape" fill-rule="nonzero"></path>
            <path d="M9.39691089,7.49904878 C8.74835064,7.49904878 8.22073702,8.02496341 8.22073702,8.67135366 C8.22073702,9.3177439 8.74838735,9.84362195 9.39691089,9.84362195 C10.0454711,9.84362195 10.5730848,9.31770732 10.5730848,8.67135366 C10.5730848,8.02496341 10.0454344,7.49904878 9.39691089,7.49904878 Z M9.39691089,9.20718293 C9.10047235,9.20718293 8.85931321,8.96681707 8.85931321,8.67139024 C8.85931321,8.37596341 9.10047235,8.13556098 9.39691089,8.13556098 C9.69334943,8.13556098 9.93450857,8.37592683 9.93450857,8.67139024 C9.93450857,8.96681707 9.69331273,9.20718293 9.39691089,9.20718293 Z" id="Shape" fill-rule="nonzero"></path>
        </g>
    </g>
</svg>