<?xml version="1.0" encoding="UTF-8"?>
<svg width="19px" height="16px" viewBox="0 0 19 16" version="1.1" xmlns="http://www.w3.org/2000/svg" xmlns:xlink="http://www.w3.org/1999/xlink">
    <!-- Generator: Sketch 53.2 (72643) - https://sketchapp.com -->
    <title>006-television copy</title>
    <desc>Created with Sketch.</desc>
    <g id="Page-1" stroke="none" stroke-width="1" fill="none" fill-rule="evenodd">
        <g id="006-television-copy" transform="translate(0.250000, 0.250000)" fill="#6D2158">
            <path d="M18.2390217,0.0284057971 L3.27474638,0.0284057971 C3.10257246,0.0284057971 2.96304348,0.167971014 2.96304348,0.340108696 C2.96304348,0.512246377 3.10257246,0.651811594 3.27474638,0.651811594 L17.9273188,0.651811594 L17.9273188,11.5348913 L0.623405797,11.5348913 L0.623405797,0.651811594 L2.3326087,0.651811594 C2.50478261,0.651811594 2.64431159,0.512246377 2.64431159,0.340108696 C2.64431159,0.167971014 2.50478261,0.0284057971 2.3326087,0.0284057971 L0.311702899,0.0284057971 C0.139528986,0.0284057971 0,0.167971014 0,0.340108696 L0,11.8465942 C0,12.0187319 0.139528986,12.1582971 0.311702899,12.1582971 L5.84655797,12.1582971 L5.84655797,13.0181884 L5.07768116,13.0181884 C4.17246377,13.0181884 3.43601449,13.7546377 3.43601449,14.6598551 C3.43601449,14.8319928 3.57554348,14.971558 3.74771739,14.971558 L14.8030072,14.971558 C14.9751812,14.971558 15.1147101,14.8319928 15.1147101,14.6598551 C15.1147101,13.7546377 14.3782609,13.0181884 13.4730435,13.0181884 L12.7041667,13.0181884 L12.7041667,12.1583333 L18.2390217,12.1583333 C18.4111957,12.1583333 18.5507246,12.0187681 18.5507246,11.8466304 L18.5507246,0.340108696 C18.5507246,0.167971014 18.4111594,0.0284057971 18.2390217,0.0284057971 Z M6.46996377,12.1583696 L12.0807246,12.1583696 L12.0807246,13.0182609 L6.46996377,13.0182609 L6.46996377,12.1583696 Z M13.4730435,13.6416667 C13.9257971,13.6416667 14.3105435,13.9387319 14.4425,14.3482246 L4.10822464,14.3482246 C4.24018116,13.9387319 4.62492754,13.6416667 5.07768116,13.6416667 L13.4730435,13.6416667 Z" id="Shape" fill-rule="nonzero"></path>
            <path d="M17.0336957,7.76768116 C17.2058696,7.76768116 17.3453986,7.62811594 17.3453986,7.45597826 L17.3453986,1.54539855 C17.3453986,1.37326087 17.2058696,1.23369565 17.0336957,1.23369565 L1.51695652,1.23369565 C1.34478261,1.23369565 1.20525362,1.37326087 1.20525362,1.54539855 L1.20525362,10.6413768 C1.20525362,10.8135145 1.34478261,10.9530797 1.51695652,10.9530797 L17.0336957,10.9530797 C17.2058696,10.9530797 17.3453986,10.8135145 17.3453986,10.6413768 L17.3453986,8.45351449 C17.3453986,8.28137681 17.2058696,8.14181159 17.0336957,8.14181159 C16.8615217,8.14181159 16.7219928,8.28137681 16.7219928,8.45351449 L16.7219928,10.3296739 L1.82865942,10.3296739 L1.82865942,1.85710145 L16.7219928,1.85710145 L16.7219928,7.45597826 C16.7219928,7.62811594 16.8615217,7.76768116 17.0336957,7.76768116 Z" id="Path"></path>
            <path d="M8.37478261,3.35724638 L5.32695652,3.35724638 C5.15478261,3.35724638 5.01525362,3.49681159 5.01525362,3.66894928 C5.01525362,3.84108696 5.15478261,3.98065217 5.32695652,3.98065217 L6.56684783,3.98065217 L6.56684783,8.51778986 C6.56684783,8.68992754 6.70637681,8.82949275 6.87855072,8.82949275 C7.05072464,8.82949275 7.19025362,8.68992754 7.19025362,8.51778986 L7.19025362,3.98068841 L8.37474638,3.98068841 C8.54692029,3.98068841 8.68644928,3.84112319 8.68644928,3.66898551 C8.68648551,3.49681159 8.54695652,3.35724638 8.37478261,3.35724638 Z" id="Path"></path>
            <path d="M10.2707609,4.52177536 L9.91365942,3.56043478 C9.85376812,3.39905797 9.67423913,3.31684783 9.51293478,3.37677536 C9.35155797,3.4367029 9.26934783,3.61612319 9.32927536,3.7775 L9.68637681,4.73884058 C9.73300725,4.86442029 9.85202899,4.94206522 9.97858696,4.94206522 C10.0146377,4.94206522 10.0513043,4.93576087 10.0870652,4.9225 C10.2484783,4.86257246 10.3306884,4.68315217 10.2707609,4.52177536 Z" id="Path"></path>
            <path d="M13.3322464,3.37673913 C13.170942,3.31677536 12.9914493,3.39902174 12.9315217,3.56039855 L11.4225362,7.62257246 L10.5586594,5.29677536 C10.4987681,5.13539855 10.3192391,5.05318841 10.1579348,5.11311594 C9.99655797,5.17304348 9.91434783,5.35246377 9.97427536,5.51384058 L11.1304348,8.62634058 C11.1757609,8.74847826 11.2923551,8.82949275 11.4226087,8.82949275 C11.5528623,8.82949275 11.6694565,8.74844203 11.7147826,8.62634058 L13.5159058,3.7775 C13.5758333,3.61608696 13.4936232,3.43666667 13.3322464,3.37673913 Z" id="Path"></path>
        </g>
    </g>
</svg>