<?xml version="1.0" encoding="UTF-8"?>
<svg width="16px" height="16px" viewBox="0 0 16 16" version="1.1" xmlns="http://www.w3.org/2000/svg" xmlns:xlink="http://www.w3.org/1999/xlink">
    <!-- Generator: Sketch 53.2 (72643) - https://sketchapp.com -->
    <title>019-shower-1</title>
    <desc>Created with Sketch.</desc>
    <g id="Page-1" stroke="none" stroke-width="1" fill="none" fill-rule="evenodd">
        <g id="019-shower-1" transform="translate(0.250000, 0.500000)" fill="#6D2158">
            <path d="M11.6455696,1.04417722 L11.1392405,1.04417722 C10.9994304,1.04417722 10.8860759,1.15753165 10.8860759,1.29734177 L10.8860759,1.30721519 C9.74221519,1.39759494 8.86022152,2.35246835 8.86075949,3.49987342 L8.86075949,6.61379747 C8.86075949,6.75360759 8.97411392,6.86696203 9.11392405,6.86696203 L9.36708861,6.86696203 L9.36708861,10.6824051 C9.36708861,12.4135443 8.11265823,13.8310127 6.53164557,13.9444304 C6.45316456,13.7351266 6.2864557,13.5710127 6.07594937,13.4958228 L6.07594937,13.0611392 C6.08243671,12.4802215 5.88136076,11.9160759 5.50886076,11.4702532 C5.26015823,11.1693671 5.10860759,10.8000949 5.07417722,10.4112658 L5.3164557,10.4112658 C5.45626582,10.4112658 5.56962025,10.2979114 5.56962025,10.1581013 L5.56962025,9.65177215 L6.58227848,9.65177215 C7.00174051,9.65177215 7.34177215,9.31174051 7.34177215,8.89227848 L7.34177215,1.04417722 C7.34177215,0.62471519 7.00174051,0.284683544 6.58227848,0.284683544 L0.759493671,0.284683544 C0.340031646,0.284683544 0,0.62471519 0,1.04417722 L0,8.89227848 C0,9.31174051 0.340031646,9.65177215 0.759493671,9.65177215 L1.51898734,9.65177215 L1.51898734,10.1581013 C1.51898734,10.2979114 1.63234177,10.4112658 1.7721519,10.4112658 L2.01443038,10.4112658 C1.98,10.8000949 1.82844937,11.1693671 1.57974684,11.4702532 C1.20724684,11.9160759 1.00617089,12.4802215 1.01265823,13.0611392 L1.01265823,13.4958228 C0.617183544,13.6356329 0.409936709,14.0695886 0.549778481,14.4650316 C0.689588608,14.8605063 1.1235443,15.0677532 1.51898734,14.9279114 C1.91443038,14.7880696 2.12170886,14.3541456 1.98186709,13.9587025 C1.90541139,13.7424051 1.73525316,13.5722785 1.51898734,13.4958228 L1.51898734,13.0611392 C1.51484177,12.6012975 1.67256329,12.1546203 1.96455696,11.7993671 C2.29329114,11.4076582 2.48889241,10.921519 2.52303797,10.4112658 L2.78481013,10.4112658 C2.92462025,10.4112658 3.03797468,10.2979114 3.03797468,10.1581013 L3.03797468,9.65177215 L4.05063291,9.65177215 L4.05063291,10.1581013 C4.05063291,10.2979114 4.16398734,10.4112658 4.30379747,10.4112658 L4.56556962,10.4112658 C4.59971519,10.921519 4.79531646,11.4076582 5.12405063,11.7993671 C5.4160443,12.1546203 5.57376582,12.6012975 5.56962025,13.0611392 L5.56962025,13.4958228 C5.17471519,13.6343354 4.96689873,14.0667405 5.10541139,14.4616456 C5.24392405,14.8565506 5.67632911,15.0643671 6.07123418,14.9258544 C6.29234177,14.8482911 6.46512658,14.6728165 6.53924051,14.4505063 C8.3956962,14.3335443 9.87341772,12.6897468 9.87341772,10.6824051 L9.87341772,6.86696203 L10.1265823,6.86696203 C10.2663924,6.86696203 10.3797468,6.75360759 10.3797468,6.61379747 L10.3797468,4.58848101 C10.3797468,4.44867089 10.4931013,4.33531646 10.6329114,4.33531646 L10.8860759,4.33531646 C10.8860759,4.47512658 10.9994304,4.58848101 11.1392405,4.58848101 L11.6455696,4.58848101 C12.0650316,4.58848101 12.4050633,4.24844937 12.4050633,3.82898734 L12.4050633,1.80367089 C12.4050633,1.38420886 12.0650316,1.04417722 11.6455696,1.04417722 Z M1.26582278,14.4618987 C1.12601266,14.4618987 1.01265823,14.3485443 1.01265823,14.2087342 C1.01265823,14.0689241 1.12601266,13.9555696 1.26582278,13.9555696 C1.40563291,13.9555696 1.51898734,14.0689241 1.51898734,14.2087342 C1.51898734,14.3485443 1.40563291,14.4618987 1.26582278,14.4618987 Z M2.53164557,9.90493671 L2.02531646,9.90493671 L2.02531646,9.65177215 L2.53164557,9.65177215 L2.53164557,9.90493671 Z M0.759493671,9.14544304 C0.619683544,9.14544304 0.506329114,9.03208861 0.506329114,8.89227848 L0.506329114,1.04417722 C0.506329114,0.904367089 0.619683544,0.791012658 0.759493671,0.791012658 L6.58227848,0.791012658 C6.72208861,0.791012658 6.83544304,0.904367089 6.83544304,1.04417722 L6.83544304,8.89227848 C6.83544304,9.03208861 6.72208861,9.14544304 6.58227848,9.14544304 L0.759493671,9.14544304 Z M5.06329114,9.90493671 L4.55696203,9.90493671 L4.55696203,9.65177215 L5.06329114,9.65177215 L5.06329114,9.90493671 Z M5.82278481,14.4618987 C5.68297468,14.4618987 5.56962025,14.3485443 5.56962025,14.2087342 C5.56962025,14.0689241 5.68297468,13.9555696 5.82278481,13.9555696 C5.96259494,13.9555696 6.07594937,14.0689241 6.07594937,14.2087342 C6.07594937,14.3485443 5.96259494,14.4618987 5.82278481,14.4618987 Z M10.8860759,3.82898734 L10.6329114,3.82898734 C10.2134494,3.82898734 9.87341772,4.16901899 9.87341772,4.58848101 L9.87341772,6.36063291 L9.36708861,6.36063291 L9.36708861,3.49987342 C9.36724684,2.63183544 10.0227848,1.90398734 10.8860759,1.81329114 L10.8860759,3.82898734 Z M11.8987342,3.82898734 C11.8987342,3.96879747 11.7853797,4.0821519 11.6455696,4.0821519 L11.3924051,4.0821519 L11.3924051,1.55050633 L11.6455696,1.55050633 C11.7853797,1.55050633 11.8987342,1.66386076 11.8987342,1.80367089 L11.8987342,3.82898734 Z" id="Shape" fill-rule="nonzero"></path>
            <path d="M4.05063291,1.29734177 C3.91082278,1.29734177 3.79746835,1.4106962 3.79746835,1.55050633 L3.79746835,2.31 C3.79746835,2.44981013 3.91082278,2.56316456 4.05063291,2.56316456 C4.19044304,2.56316456 4.30379747,2.44981013 4.30379747,2.31 L4.30379747,1.55050633 C4.30379747,1.4106962 4.19044304,1.29734177 4.05063291,1.29734177 Z" id="Path"></path>
            <path d="M5.06329114,1.29734177 C4.92348101,1.29734177 4.81012658,1.4106962 4.81012658,1.55050633 L4.81012658,2.31 C4.81012658,2.44981013 4.92348101,2.56316456 5.06329114,2.56316456 C5.20310127,2.56316456 5.3164557,2.44981013 5.3164557,2.31 L5.3164557,1.55050633 C5.3164557,1.4106962 5.20310127,1.29734177 5.06329114,1.29734177 Z" id="Path"></path>
            <path d="M6.07594937,1.29734177 C5.93613924,1.29734177 5.82278481,1.4106962 5.82278481,1.55050633 L5.82278481,2.31 C5.82278481,2.44981013 5.93613924,2.56316456 6.07594937,2.56316456 C6.21575949,2.56316456 6.32911392,2.44981013 6.32911392,2.31 L6.32911392,1.55050633 C6.32911392,1.4106962 6.21575949,1.29734177 6.07594937,1.29734177 Z" id="Path"></path>
            <path d="M3.5443038,5.09481013 C2.56556962,5.09481013 1.7721519,5.88822785 1.7721519,6.86696203 C1.77341772,7.84515823 2.56610759,8.6378481 3.5443038,8.63911392 C4.52303797,8.63911392 5.3164557,7.8456962 5.3164557,6.86696203 C5.3164557,5.88822785 4.52303797,5.09481013 3.5443038,5.09481013 Z M4.78455696,7.11987342 C4.64474684,7.80484177 3.97610759,8.24677215 3.29113924,8.10696203 C2.60617089,7.9671519 2.16424051,7.29851266 2.30405063,6.6135443 C2.40553797,6.11642405 2.79401899,5.72794304 3.29113924,5.6264557 L3.29113924,6.10746835 C3.29113924,6.24727848 3.40449367,6.36063291 3.5443038,6.36063291 C3.68411392,6.36063291 3.79746835,6.24727848 3.79746835,6.10746835 L3.79746835,5.6264557 C4.48243671,5.76626582 4.92436709,6.43490506 4.78455696,7.11987342 Z" id="Shape" fill-rule="nonzero"></path>
            <path d="M13.6708861,2.56316456 L13.164557,2.56316456 C13.0247468,2.56316456 12.9113924,2.67651899 12.9113924,2.81632911 C12.9113924,2.95613924 13.0247468,3.06949367 13.164557,3.06949367 L13.6708861,3.06949367 C13.8106962,3.06949367 13.9240506,2.95613924 13.9240506,2.81632911 C13.9240506,2.67651899 13.8106962,2.56316456 13.6708861,2.56316456 Z" id="Path"></path>
            <path d="M14.9367089,2.56316456 L14.4303797,2.56316456 C14.2905696,2.56316456 14.1772152,2.67651899 14.1772152,2.81632911 C14.1772152,2.95613924 14.2905696,3.06949367 14.4303797,3.06949367 L14.9367089,3.06949367 C15.076519,3.06949367 15.1898734,2.95613924 15.1898734,2.81632911 C15.1898734,2.67651899 15.076519,2.56316456 14.9367089,2.56316456 Z" id="Path"></path>
            <path d="M13.6029114,1.11835443 C13.5057595,1.01778481 13.3455063,1.015 13.2449367,1.1121519 C13.2428165,1.11417722 13.2407595,1.11626582 13.2387342,1.11835443 L12.9855696,1.37151899 C12.8867089,1.47041139 12.8867405,1.6306962 12.9856329,1.72955696 C13.0331013,1.77699367 13.0974684,1.80367089 13.164557,1.80367089 C13.2317089,1.80367089 13.2960759,1.77696203 13.3435443,1.72949367 L13.5967089,1.47632911 C13.6972785,1.37920886 13.7000633,1.21892405 13.6029114,1.11835443 Z" id="Path"></path>
            <path d="M14.6155696,0.105696203 C14.5184177,0.00512658228 14.3581646,0.00234177215 14.2575949,0.0994936709 C14.2554747,0.101518987 14.2534177,0.103607595 14.2513924,0.105696203 L13.9982278,0.358860759 C13.8976582,0.456012658 13.8948734,0.616265823 13.9920253,0.716835443 C14.0891772,0.817405063 14.2494304,0.820189873 14.35,0.723037975 C14.3521203,0.721012658 14.3541772,0.718924051 14.3562025,0.716835443 L14.6093671,0.463670886 C14.7099367,0.366550633 14.7127215,0.206265823 14.6155696,0.105696203 Z" id="Path"></path>
            <path d="M13.5967089,4.15632911 L13.3435443,3.90316456 C13.2446835,3.80433544 13.0844304,3.80433544 12.9855696,3.90316456 C12.8867405,4.00202532 12.8867405,4.16227848 12.9855696,4.26113924 L13.2387342,4.5143038 C13.3393038,4.61142405 13.499557,4.60867089 13.5967089,4.50810127 C13.6914557,4.40996835 13.6914557,4.25443038 13.5967089,4.15632911 Z" id="Path"></path>
            <path d="M14.6093671,5.16898734 L14.3562025,4.91582278 C14.2556329,4.81867089 14.0953797,4.8214557 13.9982278,4.92202532 C13.903481,5.02012658 13.903481,5.17566456 13.9982278,5.27379747 L14.2513924,5.52696203 C14.351962,5.62411392 14.5122152,5.62132911 14.6093671,5.52075949 C14.7041139,5.42265823 14.7041139,5.26708861 14.6093671,5.16898734 Z" id="Path"></path>
        </g>
    </g>
</svg>