<?xml version="1.0" encoding="UTF-8"?>
<svg width="13px" height="16px" viewBox="0 0 13 16" version="1.1" xmlns="http://www.w3.org/2000/svg" xmlns:xlink="http://www.w3.org/1999/xlink">
    <!-- Generator: Sketch 53.2 (72643) - https://sketchapp.com -->
    <title>Group 64</title>
    <desc>Created with Sketch.</desc>
    <g id="Page-1" stroke="none" stroke-width="1" fill="none" fill-rule="evenodd">
        <g id="Group-64" transform="translate(-0.519126, 0.500000)" fill="#6D2158" fill-rule="nonzero">
            <path d="M12.1648911,12.5533301 L12.3298538,12.5533301 C12.4526765,12.5533301 12.5522214,12.4535742 12.5522214,12.3305566 L12.5522214,11.3503711 C12.5522214,11.2273535 12.4526765,11.1275977 12.3298538,11.1275977 L11.6165753,11.1275977 L11.7774731,9.75328125 C11.7917732,9.63108398 11.7044813,9.52040039 11.5825359,9.50610352 C11.4606197,9.49163086 11.3500792,9.57919922 11.3357791,9.70139648 L11.1687987,11.127627 L10.3085131,11.127627 L10.5054974,9.22075195 C10.5119894,9.15802734 10.4916359,9.09547852 10.4494375,9.04863281 C10.4072684,9.00178711 10.3472607,8.97506836 10.2843287,8.97506836 L9.63965548,8.97506836 C9.49247289,8.48862305 9.267795,8.03273437 8.97816726,7.62383789 L10.9869918,7.8234375 C11.1363676,7.83829102 11.2704491,7.91097656 11.3644962,8.02813477 C11.4585434,8.14529297 11.5008002,8.29204102 11.4833126,8.44136719 L11.4135376,9.03706055 C11.3992375,9.15925781 11.4865294,9.26994141 11.6084749,9.28426758 C11.6172772,9.28532227 11.626021,9.28582031 11.634677,9.28582031 C11.7458901,9.28582031 11.841955,9.20235352 11.8552316,9.08897461 L11.9250066,8.49328125 C11.9565311,8.22424805 11.8804688,7.95987305 11.7109734,7.74884766 C11.5414487,7.53782227 11.2999266,7.40683594 11.030857,7.38011719 L8.58159601,7.13671875 C8.43219092,6.97637695 8.27138085,6.82637695 8.10018934,6.68800781 L7.52403368,3.87213867 C8.07343152,3.48711914 8.43371158,2.8490332 8.43371158,2.12786133 C8.43368233,0.954521484 7.48092875,0 6.30975538,0 C5.1386405,0 4.18582842,0.954521484 4.18582842,2.12780273 C4.18582842,2.75663086 4.45972315,3.32241211 4.89404777,3.71226563 L4.75163187,4.26931641 C4.69911053,4.4746875 4.65694138,4.68249023 4.62462731,4.89181641 L4.01615757,3.30442383 C3.8934518,2.98426758 3.58098489,2.76914062 3.2386311,2.76914062 C2.98049863,2.76914062 2.74128671,2.88600586 2.58234823,3.08976563 C2.42340975,3.29352539 2.36802254,3.55429687 2.43039895,3.80522461 L3.02152728,6.1828418 C2.54538443,6.43160156 2.111323,6.76353516 1.74013512,7.16856445 C0.948425546,8.03238281 0.512404798,9.15442383 0.512404798,10.3279688 C0.512404798,12.9041016 2.60442708,14.9999414 5.17586749,14.9999414 C6.9437547,14.9999414 8.48503394,14.0094434 9.27577848,12.5533008 L10.0832795,12.5533008 C9.83418332,12.8132813 9.68056715,13.1658105 9.68056715,13.5538184 C9.68056715,14.3512207 10.3281355,15 11.1240853,15 C11.9200645,15 12.5676328,14.35125 12.5676328,13.5538184 C12.5676035,13.1658398 12.4140166,12.8133398 12.1648911,12.5533301 Z M10.0377182,9.42055664 L9.86137978,11.1275977 L9.77104658,11.1275977 C9.81599385,10.8677051 9.83965185,10.6005762 9.83965185,10.327998 C9.83965185,10.018916 9.8090339,9.71537109 9.75069309,9.42058594 L10.0377182,9.42058594 L10.0377182,9.42055664 Z M7.57044314,6.31751953 C7.25402835,6.12758789 6.91190851,5.97357422 6.54879184,5.86180664 L6.54879184,5.09589844 C6.54879184,4.97288086 6.44921768,4.873125 6.32642418,4.873125 C6.20363068,4.873125 6.10405652,4.97288086 6.10405652,5.09589844 L6.10405652,8.79375 L4.99230597,8.79375 L4.99230597,5.90112305 C4.99233521,5.89954102 4.99230597,5.89798828 4.99230597,5.89640625 L4.99230597,5.89212891 C4.99230597,5.38242187 5.05632001,4.87362305 5.18256425,4.37985352 L5.28243084,3.98926758 C5.58703125,4.15875 5.93725154,4.25560547 6.30975538,4.25560547 C6.59499658,4.25560547 6.86710745,4.19859375 7.11585276,4.09599609 L7.57044314,6.31751953 Z M6.10399804,9.23929688 L6.10399804,9.66254883 C6.10399804,9.96960938 5.85460938,10.2194531 5.54810814,10.2194531 C5.2416069,10.2194531 4.99221824,9.96960938 4.99221824,9.66254883 L4.99221824,9.23929688 L4.99224748,9.23929688 L6.10399804,9.23929688 Z M4.63056374,2.12780273 C4.63056374,1.20020508 5.38384734,0.445546875 6.30975538,0.445546875 C7.23566342,0.445546875 7.98897626,1.20020508 7.98897626,2.12780273 C7.98897626,3.05540039 7.23569267,3.81005859 6.30975538,3.81005859 C5.38384734,3.81005859 4.63056374,3.05540039 4.63056374,2.12780273 Z M2.86197468,3.69758789 C2.83287739,3.58063477 2.85869941,3.45911133 2.93277322,3.36413086 C3.00684704,3.26917969 3.1183233,3.2147168 3.23860186,3.2147168 C3.39815446,3.2147168 3.5437579,3.3149707 3.60092896,3.46415039 L4.46191641,5.71022461 C4.10695867,5.76492187 3.76191449,5.86022461 3.43269104,5.99314453 L2.86197468,3.69758789 Z M5.17589673,14.5544238 C2.84966317,14.5544238 0.957169356,12.6584473 0.957169356,10.327998 C0.957169356,9.26633789 1.35157659,8.25131836 2.06775017,7.46991211 C2.44037099,7.06333008 2.88297152,6.73828125 3.36981749,6.50701172 C3.3747304,6.50484375 3.37955558,6.5025293 3.38423455,6.50006836 C3.75071422,6.32768555 4.14210938,6.20865234 4.54754141,6.14794922 L4.54754141,6.71745117 C3.64260096,6.87553711 2.81638405,7.37841797 2.2575698,8.11798828 C2.1834375,8.21610352 2.20273822,8.35582031 2.30064549,8.43008789 C2.34079683,8.46052734 2.38793737,8.47526367 2.43469775,8.47526367 C2.50195782,8.47526367 2.56845756,8.44482422 2.61217661,8.38693359 C3.0874714,7.75787109 3.78270663,7.3237207 4.54754141,7.17064453 L4.54754141,9.66260742 C4.54754141,10.2153516 4.9964293,10.6650586 5.54816662,10.6650586 C6.09990394,10.6650586 6.54879184,10.2153516 6.54879184,9.66260742 L6.54879184,7.41700195 C7.66136121,7.94422852 8.38926144,9.07637695 8.38926144,10.3280859 C8.38926144,12.1031543 6.94776106,13.5472852 5.17592597,13.5472852 C3.40409089,13.5472852 1.96259051,12.1031543 1.96259051,10.3280859 C1.96259051,9.85696289 2.06175525,9.40306641 2.25739434,8.97902344 C2.30892141,8.86734375 2.26028945,8.73495117 2.14881318,8.68333008 C2.03727843,8.63173828 1.90518549,8.68040039 1.85365843,8.79210937 C1.63082287,9.27515625 1.51782595,9.79195312 1.51782595,10.3280859 C1.51782595,12.3488379 3.15882556,13.992832 5.17589673,13.992832 C7.1929679,13.992832 8.83396751,12.3488379 8.83396751,10.3280859 C8.83396751,8.8330957 7.92197938,7.48746094 6.54876259,6.93032227 L6.54876259,6.33035156 C8.23842341,6.91148437 9.39494578,8.5153125 9.39494578,10.3280566 C9.39491654,12.6584473 7.50227651,14.5544238 5.17589673,14.5544238 Z M9.4877062,12.1077832 C9.55920658,11.9345215 9.6206472,11.7560742 9.67120923,11.5731152 L12.1075154,11.5731152 L12.1075154,12.1077832 L11.1280917,12.1077832 C11.1267465,12.1077832 11.1254305,12.1076953 11.1240853,12.1076953 C11.1227401,12.1076953 11.1214242,12.1077832 11.120079,12.1077832 L9.4877062,12.1077832 Z M11.1240853,14.5544531 C10.5733715,14.5544531 10.1253025,14.1055957 10.1253025,13.5538184 C10.1253025,13.003418 10.5711783,12.555498 11.120079,12.5533008 L11.1280625,12.5533008 C11.6769632,12.5554688 12.1228682,13.003418 12.1228682,13.5538184 C12.1228682,14.1055664 11.6748284,14.5544531 11.1240853,14.5544531 Z" id="Shape"></path>
            <path d="M11.0797649,12.825 C10.6669997,12.825 10.3311475,13.161465 10.3311475,13.5749834 C10.3311475,13.9885018 10.6669997,14.325 11.0797649,14.325 C11.4925631,14.325 11.8284153,13.988535 11.8284153,13.5749834 C11.8284153,13.1614318 11.4925631,12.825 11.0797649,12.825 Z M11.0797649,13.8201198 C10.9448275,13.8201198 10.8351081,13.710167 10.8351081,13.5749834 C10.8351081,13.4397998 10.9448606,13.3298802 11.0797649,13.3298802 C11.2146691,13.3298802 11.3244548,13.439833 11.3244548,13.5749834 C11.3244548,13.7101338 11.2146691,13.8201198 11.0797649,13.8201198 Z" id="Shape"></path>
        </g>
    </g>
</svg>