<?xml version="1.0" encoding="UTF-8"?>
<svg width="16px" height="16px" viewBox="0 0 16 16" version="1.1" xmlns="http://www.w3.org/2000/svg" xmlns:xlink="http://www.w3.org/1999/xlink">
    <!-- Generator: Sketch 53.2 (72643) - https://sketchapp.com -->
    <title>Group 15</title>
    <desc>Created with Sketch.</desc>
    <g id="Page-1" stroke="none" stroke-width="1" fill="none" fill-rule="evenodd">
        <g id="Group-15" transform="translate(0.225352, 0.500000)" fill="#6D2158" fill-rule="nonzero">
            <g id="027-wifi">
                <path d="M7.46478873,9.50000977 C6.91738061,9.50000977 6.46949329,9.95000977 6.46949329,10.5 C6.46949329,11.0499902 6.91738061,11.4999902 7.46478873,11.4999902 C8.01219685,11.4999902 8.46008418,11.0499902 8.46008418,10.5 C8.46008418,9.95000977 8.01219685,9.50000977 7.46478873,9.50000977 Z M7.46478873,11.0000098 C7.19107009,11.0000098 6.96712643,10.7750098 6.96712643,10.5 C6.96712643,10.2249902 7.19107009,9.99999023 7.46478873,9.99999023 C7.73850737,9.99999023 7.96245103,10.2249902 7.96245103,10.5 C7.96245103,10.7750098 7.73850737,11.0000098 7.46478873,11.0000098 Z" id="Shape"></path>
                <path d="M7.48966164,7.52499023 C6.69340779,7.52499023 5.94692892,7.82499023 5.37464789,8.4 C5.32487291,8.45000977 5.3,8.49999023 5.3,8.57499023 C5.3,8.64999023 5.32487291,8.7 5.37464789,8.74998047 L6.07135178,9.4499707 C6.12112676,9.49998047 6.17087258,9.5249707 6.24552047,9.5249707 C6.29529544,9.5249707 6.36994333,9.47496094 6.41968915,9.4499707 C6.69340779,9.1499707 7.06664723,8.9999707 7.46475957,8.9999707 C7.86287192,8.9999707 8.23611136,9.1499707 8.55960497,9.4499707 C8.65912577,9.54996094 8.80842154,9.54996094 8.9079715,9.4499707 L9.6046754,8.74998047 C9.65445037,8.6999707 9.67932328,8.64999023 9.67932328,8.57499023 C9.67932328,8.49999023 9.65445037,8.44998047 9.6046754,8.4 C9.03239437,7.82499023 8.28591549,7.52499023 7.48966164,7.52499023 Z M8.68402784,8.925 C8.33566131,8.64999023 7.91267606,8.49999023 7.46478873,8.49999023 C7.01690141,8.49999023 6.59388699,8.64999023 6.24554963,8.925 L5.8971831,8.57499023 C6.34507042,8.19999023 6.89247854,7.99998047 7.46478873,7.99998047 C8.03709892,7.99998047 8.58450704,8.19999023 9.03239437,8.57499023 L8.68402784,8.925 Z" id="Shape"></path>
                <path d="M7.46478873,5.49999023 C6.14599967,5.49999023 4.90188765,6.02499023 3.95633803,6.975 C3.85681723,7.07499023 3.85681723,7.22499023 3.95633803,7.32500977 L4.65304192,8.025 C4.7028169,8.07500977 4.75256272,8.1 4.82721061,8.1 C4.90185849,8.1 4.95163347,8.07500977 5.00137929,8.025 C5.67321028,7.37499023 6.54411202,6.99999023 7.46475957,6.99999023 C8.38540713,6.99999023 9.28118178,7.37499023 9.92813985,8.025 C9.97791483,8.07500977 10.0276607,8.1 10.1023085,8.1 C10.1769564,8.1 10.2267314,8.07500977 10.2764772,8.025 L10.9731811,7.32500977 C11.0727019,7.22501953 11.0727019,7.07501953 10.9731811,6.975 C10.0525919,6.02499023 8.78357779,5.49999023 7.46478873,5.49999023 Z M10.1023377,7.5 C9.38073173,6.84999023 8.43521127,6.50000977 7.46478873,6.50000977 C6.4943662,6.50000977 5.57371864,6.85001953 4.82723977,7.5 L4.47887324,7.14999023 C5.3,6.39999023 6.34507042,6 7.46478873,6 C8.58450704,6 9.62957746,6.39999023 10.4507042,7.14999023 L10.1023377,7.5 Z" id="Shape"></path>
                <path d="M12.3915493,5.55 C11.0727602,4.22499023 9.33098592,3.50000977 7.46478873,3.50000977 C5.59859155,3.50000977 3.85681723,4.22501953 2.56290108,5.57501953 C2.46338028,5.67500977 2.46338028,5.82500977 2.56290108,5.9250293 L3.25960497,6.62501953 C3.35912577,6.72500977 3.50842154,6.72500977 3.6079715,6.62501953 C4.62816901,5.57501953 5.9967039,5.00000977 7.46478873,5.00000977 C8.93287357,5.00000977 10.3014085,5.57501953 11.3464789,6.6 C11.3962539,6.65000977 11.4459997,6.675 11.5206476,6.675 C11.5704225,6.675 11.6450704,6.65000977 11.6948162,6.62499023 L12.3915201,5.89998047 C12.4910701,5.79999023 12.4910701,5.64999023 12.3915493,5.55 Z M11.4957746,6.075 C10.4009292,5.04999023 8.98261939,4.5 7.46478873,4.5 C5.94695808,4.5 4.52864822,5.04999023 3.40892991,6.075 L3.06056338,5.72499023 C4.27980249,4.62498047 5.82253521,3.99999023 7.46478873,3.99999023 C9.10704225,3.99999023 10.649775,4.62498047 11.8441412,5.72499023 L11.4957746,6.075 Z" id="Shape"></path>
                <path d="M7.46478873,0 C3.35915493,0 0,3.375 0,7.5 C0,11.625 3.35915493,15 7.46478873,15 C11.5704225,15 14.9295775,11.625 14.9295775,7.5 C14.9295775,3.375 11.5704225,0 7.46478873,0 Z M7.46478873,14.4999902 C3.63287357,14.4999902 0.497662302,11.3499902 0.497662302,7.5 C0.497662302,3.65000977 3.63287357,0.500009766 7.46478873,0.500009766 C11.2967039,0.500009766 14.4319152,3.65000977 14.4319152,7.5 C14.4319152,11.3499902 11.2967039,14.4999902 7.46478873,14.4999902 Z" id="Shape"></path>
            </g>
        </g>
    </g>
</svg>