<?xml version="1.0" encoding="UTF-8"?>
<svg width="15px" height="16px" viewBox="0 0 15 16" version="1.1" xmlns="http://www.w3.org/2000/svg" xmlns:xlink="http://www.w3.org/1999/xlink">
    <!-- Generator: Sketch 53.2 (72643) - https://sketchapp.com -->
    <title>009-yoga</title>
    <desc>Created with Sketch.</desc>
    <g id="Page-1" stroke="none" stroke-width="1" fill="none" fill-rule="evenodd">
        <g id="009-yoga" transform="translate(0.275168, 0.500000)" fill="#6D2158">
            <path d="M13.8487377,10.3820801 L12.4613635,10.3820801 L11.3497208,8.73447419 L11.3497208,6.3684082 L10.3105666,5.33157349 C10.0391936,5.33157349 8.26230862,5.33157349 8.26230862,5.33157349 L9.31190031,4.28432464 L9.31190031,2.38220215 C9.31190031,1.06864928 8.24086029,-2.84217094e-14 6.92436885,-2.84217094e-14 C5.60787738,-2.84217094e-14 4.53683739,1.06864928 4.53683739,2.38220215 L4.53683739,4.28432464 L5.58642904,5.33157349 C5.58642904,5.33157349 3.79807439,5.33157349 3.53817114,5.33157349 L2.49901688,6.3684082 L2.49901688,8.44367982 L1.37739552,10.3820801 L-2.84217094e-14,10.3820801 L-2.84217094e-14,12.1616364 L0.600094379,12.7603912 L0.455576237,12.9044723 L0.455576237,14.435463 L1.02149091,15 L5.79013081,15 L5.79013081,14.5605469 L1.20385906,14.5605469 L0.896012479,14.2533875 L0.896012479,13.0865479 L1.20385906,12.7793884 L5.45624804,12.7793884 L5.45624804,12.3399353 L3.02731096,12.3399353 L4.19836672,10.3052902 L4.19836672,11.9737244 L4.63880296,11.9737244 L4.63880296,5.77102661 L5.38364486,5.77102661 C5.4908865,6.52370452 6.14075937,7.10449219 6.92436885,7.10449219 C7.70797833,7.10449219 8.35785116,6.52370452 8.4652075,5.77102661 L9.20993471,5.77102661 L9.20993471,11.9737244 L9.65037095,11.9737244 L9.65037095,10.3054046 L10.8214267,12.3399353 L5.82327824,12.3399353 L5.82327824,14.2451477 L6.57981924,15 L12.8272467,15 L13.3931614,14.435463 L13.3931614,12.9044723 L13.2486433,12.7603912 L13.8487377,12.1616364 L13.8487377,10.3820801 Z M4.19836672,9.42283629 L2.51943295,12.3398209 C2.30173815,12.3398209 0.967927466,12.3398209 0.801502202,12.3398209 L0.440436242,11.9795609 L0.440436242,10.8214188 L1.63167862,10.8214188 L2.93945312,8.56143952 L2.93945312,6.55036928 L3.72053929,5.77102661 L4.19836672,5.77102661 L4.19836672,9.42283629 Z M6.92436885,6.66503906 C6.38426097,6.66503906 5.93246973,6.28028871 5.83004537,5.77102661 L8.01880701,5.77102661 C7.91626797,6.28028871 7.46447672,6.66503906 6.92436885,6.66503906 L6.92436885,6.66503906 Z M7.63950426,5.33157349 L6.20923343,5.33157349 L4.97727363,4.10236359 L4.97727363,2.38220215 C4.97727363,1.31092072 5.85080551,0.439453125 6.92436885,0.439453125 C7.99793219,0.439453125 8.87146406,1.31092072 8.87146406,2.38220215 L8.87146406,4.10236359 L7.63950426,5.33157349 Z M12.9527252,14.2533875 L12.6448786,14.5605469 L6.76230208,14.5605469 L6.26371448,14.0630722 L6.26371448,12.779274 L12.6448786,12.779274 L12.9527252,13.0864334 L12.9527252,14.2533875 Z M13.4083015,11.9795609 L13.0471208,12.3398209 C12.8728961,12.3398209 11.5689066,12.3398209 11.3293047,12.3398209 L9.65037095,9.42295075 L9.65037095,5.77102661 L10.1281984,5.77102661 L10.9092845,6.55036928 L10.9092845,8.86859895 L12.226923,10.8215332 L13.4083015,10.8215332 L13.4083015,11.9795609 Z" id="Shape" fill-rule="nonzero"></path>
            <polygon id="Path" points="10.2877419 2.37281801 11.1231943 2.37281801 11.1231943 2.81227113 10.2877419 2.81227113"></polygon>
            <polygon id="Path" points="9.81954894 4.11575317 10.0397671 3.7351227 10.7632753 4.1519165 10.5430572 4.53243255"></polygon>
            <polygon id="Path" points="9.81954894 1.0695648 10.5429425 0.652770996 10.7631607 1.0334015 10.0397671 1.45019531"></polygon>
            <polygon id="Path" points="2.72554334 2.37281801 3.56099584 2.37281801 3.56099584 2.81227113 2.72554334 2.81227113"></polygon>
            <polygon id="Path" points="3.08511822 4.15168764 3.80862654 3.7348938 4.02884466 4.11540984 3.30533634 4.53220368"></polygon>
            <polygon id="Path" points="3.08523294 1.03351594 3.30545106 0.65288543 4.02895935 1.06967927 3.80874122 1.45019531"></polygon>
            <path d="M8.5778399,3.011055 L8.13740366,3.011055 L8.13740366,2.38220215 C8.13740366,2.16007233 8.0762702,1.94274902 7.96065569,1.75369263 L8.33651755,1.52469636 C8.49445522,1.78264617 8.5778399,2.0791626 8.5778399,2.38220215 L8.5778399,3.011055 Z M7.81040268,1.55651092 C7.72495347,1.46530151 7.6266582,1.38816832 7.51826958,1.32717132 L7.73470271,0.944366455 C7.88220295,1.02745055 8.0159396,1.13239289 8.1320129,1.25633238 L7.81040268,1.55651092 Z M7.29105495,1.22840883 C7.17291709,1.19087221 7.0496179,1.171875 6.92436885,1.171875 L6.92436885,0.732421875 C7.09492317,0.732421875 7.26318359,0.758399971 7.42456219,0.809555039 L7.29105495,1.22840883 Z" id="Shape" fill-rule="nonzero"></path>
            <path d="M12.4320011,14.0723572 L10.0074225,14.0723572 L10.0074225,13.0723572 L12.4320011,13.0723572 L12.4320011,14.0723572 Z M9.71379838,14.0723572 L9.27336214,14.0723572 L9.27336214,13.0723572 L9.71379838,13.0723572 L9.71379838,14.0723572 Z M8.97973797,14.0723572 L8.53930173,14.0723572 L8.53930173,13.0723572 L8.97973797,13.0723572 L8.97973797,14.0723572 Z" id="Shape" fill-rule="nonzero"></path>
            <path d="M9.26845638,11.2168121 L8.26845638,11.2168121 L8.26845638,8.96484375 L9.26845638,8.96484375 L9.26845638,11.2168121 Z M9.26845638,8.671875 L8.26845638,8.671875 L8.26845638,8.23242188 L9.26845638,8.23242188 L9.26845638,8.671875 Z M9.26845638,7.93945312 L8.26845638,7.93945312 L8.26845638,7.5 L9.26845638,7.5 L9.26845638,7.93945312 Z" id="Shape" fill-rule="nonzero"></path>
        </g>
    </g>
</svg>