<svg xmlns="http://www.w3.org/2000/svg" width="24.412" height="23.399" viewBox="0 0 24.412 23.399">
  <g id="policy" transform="translate(-69.621 0.5)">
    <path id="Path_5470" data-name="Path 5470" d="M164.29,62.5l2.624,1.8,2.634-1.8a3.337,3.337,0,0,0,1.293-2.472V56.31l-3.92-1.939L163,56.305v3.728A3.333,3.333,0,0,0,164.29,62.5Zm.591-3.519a.494.494,0,0,1,.7,0l.788.8,1.9-1.9a.495.495,0,0,1,.7.7l-2.248,2.249a.5.5,0,0,1-.35.147h0a.493.493,0,0,1-.35-.148l-1.138-1.149A.5.5,0,0,1,164.88,58.986Zm0,0" transform="translate(-86.315 -50.531)" fill="#6d2158"/>
    <path id="Path_5472" data-name="Path 5472" d="M72.763,0a2.478,2.478,0,0,0-2.492,2.456l-.146,19.935H83.749c.277.011,7.881.009,7.887,0L91.66,2.668A3.786,3.786,0,0,1,92.831,0ZM75.7,5.466a.481.481,0,0,1,.261-.444l4.428-2.176a.486.486,0,0,1,.432,0l4.436,2.182a.481.481,0,0,1,.262.444V9.5a4.31,4.31,0,0,1-1.723,3.289l-2.9,1.992a.488.488,0,0,1-.277.086.481.481,0,0,1-.275-.086l-2.913-1.992A4.313,4.313,0,0,1,75.7,9.5ZM87.634,20.131H74.072a.494.494,0,0,1,0-.989H87.634a.494.494,0,1,1,0,.989Zm0-2.614H74.072a.494.494,0,0,1,0-.989H87.634a.494.494,0,1,1,0,.989Zm0,0" fill="none" stroke="#6d2158" stroke-width="1"/>
  </g>
</svg>
